<?xml version="1.0" encoding="utf-8"?>
<!-- Generator: Adobe Illustrator 27.5.0, SVG Export Plug-In . SVG Version: 6.00 Build 0)  -->
<svg version="1.1"
	 id="Ebene_1" xmlns:cc="http://creativecommons.org/ns#" xmlns:dc="http://purl.org/dc/elements/1.1/" xmlns:rdf="http://www.w3.org/1999/02/22-rdf-syntax-ns#"
	 xmlns="http://www.w3.org/2000/svg" xmlns:xlink="http://www.w3.org/1999/xlink" x="0px" y="0px" viewBox="0 0 177.5 225"
	 style="enable-background:new 0 0 177.5 225;" xml:space="preserve">
<style type="text/css">
	.st0{fill:#2B2B2A;}
	.st1{fill:#FCBF00;}
	.st2{fill:#E53025;}
</style>
<g transform="matrix(1.3333 0 0 -1.3333 111.84 34.667)">
	<path class="st0" d="M28.1-25.4h-88.3c-3.2,0-5.8,2.6-5.8,5.8s2.6,5.8,5.8,5.8h88.3c3.2,0,5.8-2.6,5.8-5.8S31.3-25.4,28.1-25.4"/>
</g>
<g transform="matrix(1.3333 0 0 -1.3333 108.72 21.333)">
	<path class="st0" d="M25.9-16h-81.2c-3.2,0-5.8,2.6-5.8,5.8s2.6,5.8,5.8,5.8h81.2c3.2,0,5.8-2.6,5.8-5.8S29.1-16,25.9-16"/>
</g>
<g transform="matrix(1.3333 0 0 -1.3333 77.575 8.0001)">
	<path class="st0" d="M3.8-6.5h-16.4c-3.2,0-5.8,2.6-5.8,5.8s2.6,5.8,5.8,5.8H3.8c3.2,0,5.8-2.6,5.8-5.8S7.1-6.5,3.8-6.5"/>
</g>
<g transform="matrix(1.3333 0 0 -1.3333 98.505 114.67)">
	<path class="st1" d="M18.6-82h-64.4c-3.2,0-5.8,2.6-5.8,5.8s2.6,5.8,5.8,5.8h64.4c3.2,0,5.8-2.6,5.8-5.8S21.9-82,18.6-82"/>
</g>
<g transform="matrix(1.3333 0 0 -1.3333 113.76 101.33)">
	<path class="st1" d="M29.4-72.6h-79c-3.2,0-5.8,2.6-5.8,5.8c0,3.2,2.6,5.8,5.8,5.8h79c3.2,0,5.8-2.6,5.8-5.8
		C35.3-70,32.6-72.6,29.4-72.6"/>
</g>
<g transform="matrix(1.3333 0 0 -1.3333 100.11 88)">
	<path class="st1" d="M19.8-63.1h-80c-3.2,0-5.8,2.6-5.8,5.8s2.6,5.8,5.8,5.8h80c3.2,0,5.8-2.6,5.8-5.8S23-63.1,19.8-63.1"/>
</g>
<g transform="matrix(1.3333 0 0 -1.3333 91.593 74.667)">
	<path class="st2" d="M13.7-53.7h-72c-3.2,0-5.8,2.6-5.8,5.8c0,3.2,2.6,5.8,5.8,5.8h72c3.2,0,5.8-2.6,5.8-5.8
		C19.6-51.1,17-53.7,13.7-53.7"/>
</g>
<g transform="matrix(1.3333 0 0 -1.3333 121.55 61.333)">
	<path class="st2" d="M34.9-44.3H-84.2c-3.2,0-5.8,2.6-5.8,5.8c0,3.2,2.6,5.8,5.8,5.8H34.9c3.2,0,5.8-2.6,5.8-5.8
		C40.8-41.7,38.2-44.3,34.9-44.3"/>
</g>
<g transform="matrix(1.3333 0 0 -1.3333 118.02 48)">
	<path class="st2" d="M32.4-34.8H-71.1c-3.2,0-5.8,2.6-5.8,5.8s2.6,5.8,5.8,5.8H32.4c3.2,0,5.8-2.6,5.8-5.8S35.7-34.8,32.4-34.8"/>
</g>
</svg>
