<?xml version="1.0" encoding="utf-8"?>
<!-- Generator: Adobe Illustrator 24.2.3, SVG Export Plug-In . SVG Version: 6.00 Build 0)  -->
<svg version="1.1" id="Layer_1" xmlns="http://www.w3.org/2000/svg" xmlns:xlink="http://www.w3.org/1999/xlink" x="0px" y="0px"
	 viewBox="0 0 720 720" style="enable-background:new 0 0 720 720;" xml:space="preserve">
<style type="text/css">
	.st0{fill:#2BBCB2;}
	.st1{fill:#82B036;}
	.st2{fill:#6DCEF5;}
	.st3{fill:#1176B8;}
	.st4{fill:#106BA7;}
	.st5{fill:#00A28C;}
	.st6{fill:#23A098;}
	.st7{fill:#3AC5F3;}
	.st8{fill:#96C93F;}
</style>
<g>
	<path class="st0" d="M403.6,401.4c-7.61,7.04-15.47,11.75-23.05,14.83l27.49,46.69c2.55,4.34,7.12,6.75,11.81,6.75
		c2.36,0,4.75-0.61,6.93-1.9c6.52-3.84,8.69-12.23,4.85-18.75L403.6,401.4z"/>
	<path class="st1" d="M345.38,310.54l-13.11-38.26c-3.86,1.37-7.56,3.07-11.07,5.06l20.45,34.89
		C342.85,311.59,344.1,311.02,345.38,310.54z"/>
	<path class="st2" d="M325.5,339.17c0-9.12,4-17.31,10.34-22.9l-26.26-30.73c-15.01,13.01-24.52,32.21-24.52,53.63
		c0,2.62,0.15,5.21,0.43,7.76l40.08-5.67C325.54,340.57,325.5,339.88,325.5,339.17z"/>
	<path class="st2" d="M341.65,312.23l-20.45-34.89c-4.15,2.34-8.04,5.09-11.62,8.2l26.26,30.73
		C337.61,314.71,339.56,313.35,341.65,312.23z"/>
	<path class="st3" d="M326.89,348.29l-38.41,12.62c7.2,22.39,25.2,39.91,47.88,46.45l9.98-39.23
		C337.08,365.03,329.8,357.62,326.89,348.29z"/>
	<path class="st4" d="M325.58,341.26l-40.08,5.67c0.52,4.82,1.53,9.49,2.97,13.98l38.41-12.62
		C326.19,346.05,325.75,343.69,325.58,341.26z"/>
	<path class="st0" d="M350.6,409.92c1.8,0.14,3.62,0.23,5.45,0.23c6.71,0,13.19-0.95,19.34-2.69l-21.93-37.24L350.6,409.92z"/>
	<path class="st0" d="M412.21,382.55l-32.47-24.1c-0.28,0.34-0.56,0.67-0.85,0.99l20.94,35.57
		C404.46,391.38,408.62,387.2,412.21,382.55z"/>
	<path class="st5" d="M399.84,395.01c-7.17,5.63-15.44,9.9-24.45,12.45l5.16,8.77c7.58-3.08,15.43-7.79,23.05-14.83L399.84,395.01z"
		/>
	<path class="st0" d="M356.05,369.72c-0.86,0-1.71-0.04-2.55-0.11l-0.04,0.61l21.93,37.24c9.01-2.55,17.28-6.82,24.45-12.45
		l-20.94-35.57C373.3,365.74,365.14,369.72,356.05,369.72z"/>
	<path class="st6" d="M353.08,369.57c-2.34-0.23-4.6-0.72-6.75-1.44l-9.98,39.23c4.58,1.32,9.34,2.19,14.24,2.56l2.86-39.7
		L353.08,369.57z"/>
	<path class="st0" d="M353.46,370.22l0.04-0.61c-0.14-0.01-0.28-0.02-0.42-0.03L353.46,370.22z"/>
	<path class="st2" d="M386.6,339.17c0,4.66-1.05,9.07-2.91,13.02l36.21,18.01c4.57-9.38,7.13-19.9,7.13-31.03
		c0-13.21-3.62-25.58-9.91-36.17l-34.63,20.88C385.1,328.38,386.6,333.6,386.6,339.17z"/>
	<path class="st7" d="M379.74,358.45l32.47,24.1c2.96-3.83,5.55-7.96,7.68-12.35l-36.21-18.01
		C382.63,354.44,381.3,356.54,379.74,358.45z"/>
	<path class="st8" d="M378.13,318.08l30.42-26.66c-2.77-3.05-5.82-5.84-9.08-8.36l-24.5,32.16
		C376.1,316.09,377.15,317.05,378.13,318.08z"/>
	<path class="st8" d="M356.05,308.62c7.15,0,13.72,2.46,18.93,6.58l24.5-32.16c-12.01-9.3-27.06-14.86-43.43-14.86
		c-8.34,0-16.34,1.45-23.77,4.09l13.11,38.26C348.7,309.31,352.3,308.62,356.05,308.62z"/>
	<path class="st8" d="M382.49,323.88L417.12,303c-2.46-4.15-5.33-8.04-8.56-11.59l-30.42,26.66
		C379.81,319.83,381.27,321.77,382.49,323.88z"/>
	<circle class="st7" cx="279.66" cy="301.88" r="9.26"/>
	<circle class="st3" cx="290.93" cy="392.9" r="9.26"/>
	<circle class="st2" cx="440.34" cy="346.58" r="9.26"/>
	<circle class="st8" cx="380.34" cy="259.6" r="9.26"/>
</g>
</svg>
