<svg xmlns="http://www.w3.org/2000/svg" version="1.1" xmlns:xlink="http://www.w3.org/1999/xlink" width="512" height="512" x="0" y="0" viewBox="0 0 64 64" style="enable-background:new 0 0 512 512" xml:space="preserve" class=""><g><g fill="#fb8c00"><path d="M53 6h-4v13h4a3 3 0 0 0 3-3V9a3 3 0 0 0-3-3zM53 21h-4v13h4a3 3 0 0 0 3-3v-7a3 3 0 0 0-3-3zM53 36h-4v13h4a3 3 0 0 0 3-3v-7a3 3 0 0 0-3-3z" fill="#fb8c00" opacity="1" data-original="#fb8c00" class=""></path></g><path fill="#ffb300" d="M51 5v47H14a1.01 1.01 0 0 1-1-1V3a1.003 1.003 0 0 1 1-1h34a3.009 3.009 0 0 1 3 3z" opacity="1" data-original="#ffb300" class=""></path><path fill="#ffa000" d="M14 2v50c-.12-.03-6 4.55-6 4V7.13a2.987 2.987 0 0 1 1.46-2.57l3.98-2.39.05-.03A.975.975 0 0 1 14 2z" opacity="1" data-original="#ffa000" class=""></path><path fill="#fb8c00" d="M50.985 50h-36.99A6 6 0 0 0 14 62h34.5a2.503 2.503 0 0 0 2.5-2.5c0-1.378-.015-9.5-.015-9.5z" opacity="1" data-original="#fb8c00" class=""></path><path fill="#eeeeee" d="M51 53H14.118a3.08 3.08 0 0 0-3.06 2.402A3.005 3.005 0 0 0 14 59h37z" opacity="1" data-original="#eeeeee"></path><rect width="28" height="17" x="18" y="9" fill="#eeeeee" rx="3" opacity="1" data-original="#eeeeee"></rect><path fill="#e53935" d="M24.119 21.922a1.62 1.62 0 0 1-1.008-.378.473.473 0 0 1-.168-.522l2.232-7.32c.142-.47.765-.62 1.224-.624.47.005 1.077.15 1.224.624l2.244 7.32a.476.476 0 0 1-.168.522 1.587 1.587 0 0 1-1.008.378c-.277-.005-.526-.068-.612-.348l-.408-1.5h-2.532l-.408 1.5c-.07.283-.342.342-.612.348zm1.404-3.288h1.752l-.876-3.216zM30.875 18.262c-.762-.005-.751-1.506 0-1.524h3.12c.755.05.768 1.488 0 1.524zM35.4 21.886c-.683.02-.62-.708-.337-1.152l3.385-5.988h-2.784c-.75-.03-.777-1.612 0-1.632h4.632a.471.471 0 0 1 .54.492 1.411 1.411 0 0 1-.204.66l-3.384 5.988h3.264c.757.043.757 1.59 0 1.632z" opacity="1" data-original="#e53935"></path><path fill="#eeeeee" d="M44 35H20a1 1 0 0 1 0-2h24a1 1 0 0 1 0 2zM44 39H20a1 1 0 0 1 0-2h24a1 1 0 0 1 0 2zM44 43H20a1 1 0 0 1 0-2h24a1 1 0 0 1 0 2z" opacity="1" data-original="#eeeeee"></path></g></svg>