<?xml version="1.0" encoding="utf-8"?>
<!-- https://www.flaticon.com/free-icon/store_403203 -->
<svg xmlns="http://www.w3.org/2000/svg" version="1.1" xmlns:xlink="http://www.w3.org/1999/xlink" width="512" height="512" x="0" y="0" viewBox="0 0 512 512" style="enable-background:new 0 0 512 512" xml:space="preserve" class=""><g><path d="M256 0C114.616 0 0 114.616 0 256s114.616 256 256 256 256-114.616 256-256S397.384 0 256 0z" style="" fill="#e5e5e5" data-original="#e5e5e5" class=""></path><path d="M347.352 134.44v131.848l-182.704.136V134.44" style="" fill="#ffffff" data-original="#ffffff"></path><path d="M199.496 142.92c0 15.536-12.648 28.136-28.248 28.136S143 158.456 143 142.92v-34.152h226.008v34.152c0 15.536-12.648 28.136-28.248 28.136-15.6 0-28.248-12.6-28.248-28.136" style="" fill="#f00000" data-original="#f00000"></path><path d="M199.496 142.92c0 15.536 12.648 28.136 28.248 28.136S256 158.456 256 142.92M256 142.92c0 15.536 12.648 28.136 28.248 28.136 15.6 0 28.248-12.6 28.248-28.136" style="" fill="#f00000" data-original="#f00000"></path><path d="M143.104 259.36h225.84v14.128h-225.84zM227.528 194h56.944v65.328h-56.944z" fill="#000000" data-original="#000000"></path><path d="M255.816 72.888h-76.72l-36.104 35.872h225.976l-36.104-35.872h-86.64" style="" fill="#f00000" data-original="#f00000"></path><path d="M150.76 399.384c-3.144 1.568-10.192 3.248-19.392 3.248-26.112 0-39.552-16.24-39.552-37.76 0-25.776 18.376-40.12 41.24-40.12 8.848 0 15.568 1.792 18.6 3.36l-3.48 13.552c-3.48-1.456-8.288-2.8-14.344-2.8-13.56 0-24.096 8.176-24.096 24.992 0 15.128 8.968 24.648 24.2 24.648 5.16 0 10.872-1.12 14.232-2.464l2.592 13.344zM161.032 321.952h17.032v79.56h-17.032v-79.56zM245.952 373.496c0 20.064-14.232 29.248-28.912 29.248-16.024 0-28.352-10.536-28.352-28.24s11.656-29.024 29.248-29.024c16.816.008 28.016 11.552 28.016 28.016zm-39.672.568c0 9.416 3.92 16.472 11.208 16.472 6.608 0 10.864-6.608 10.864-16.472 0-8.176-3.144-16.48-10.864-16.48-8.176 0-11.208 8.408-11.208 16.48zM256.344 386.608c3.136 1.904 9.632 4.152 14.68 4.152 5.152 0 7.28-1.8 7.28-4.592 0-2.808-1.68-4.152-8.072-6.272-11.312-3.816-15.688-9.976-15.576-16.48 0-10.192 8.744-17.928 22.304-17.928 6.384 0 12.104 1.464 15.464 3.144L289.4 360.4c-2.472-1.344-7.168-3.144-11.872-3.144-4.152 0-6.496 1.68-6.496 4.488 0 2.576 2.128 3.92 8.848 6.272 10.424 3.584 14.792 8.848 14.904 16.92 0 10.192-8.072 17.704-23.76 17.704-7.168 0-13.56-1.56-17.712-3.808l3.032-12.224zM318.168 379.552c.56 7.056 7.504 10.424 15.472 10.424 5.832 0 10.528-.792 15.128-2.24l2.24 11.536c-5.6 2.24-12.44 3.36-19.832 3.36-18.6 0-29.248-10.76-29.248-27.896 0-13.896 8.632-29.248 27.68-29.248 17.712 0 24.432 13.784 24.432 27.344 0 2.912-.336 5.496-.56 6.728h-35.312v-.008zm20.064-11.656c0-4.152-1.8-11.096-9.64-11.096-7.168 0-10.088 6.496-10.528 11.096h20.168zM417.312 321.952v63.2c0 6.168.224 12.664.448 16.36h-15.128l-.792-8.072h-.216c-3.48 6.168-10.088 9.304-17.152 9.304-13 0-23.424-11.096-23.424-28.136-.112-18.488 11.432-29.136 24.544-29.136 6.72 0 11.984 2.352 14.456 6.168h.224v-29.696l17.04.008zm-17.032 47.96c0-.896-.12-2.128-.224-3.024-1.008-4.592-4.704-8.408-9.976-8.408-7.728 0-11.768 6.944-11.768 15.576 0 9.296 4.592 15.128 11.656 15.128 4.928 0 8.848-3.36 9.856-8.176.336-1.232.456-2.464.456-3.92v-7.176z" fill="#000000" data-original="#000000"></path></g></svg>