<svg xmlns="http://www.w3.org/2000/svg" xmlns:xlink="http://www.w3.org/1999/xlink" viewBox="0 0 235 176.2"><defs><linearGradient id="a" x1="17.31" y1="-24.29" x2="132.83" y2="105.33" gradientUnits="userSpaceOnUse"><stop offset="0" stop-color="#e6e6e6"/><stop offset="1" stop-color="#666"/></linearGradient><linearGradient id="b" x1="537.03" y1="118.75" x2="632.84" y2="173.27" gradientTransform="matrix(0.94, 0.34, 0.34, -0.94, -470.99, 15.5)" gradientUnits="userSpaceOnUse"><stop offset="0" stop-color="#fafafa"/><stop offset="1" stop-color="#ececec"/></linearGradient><radialGradient id="c" cx="526.72" cy="116.79" r="58.21" gradientTransform="matrix(0.94, 0.34, 0.34, -0.94, -470.99, 15.5)" gradientUnits="userSpaceOnUse"><stop offset="0" stop-color="#f7f7f6"/><stop offset="1" stop-color="#fff"/></radialGradient><linearGradient id="d" x1="485.44" y1="129.66" x2="524.58" y2="135.88" gradientTransform="matrix(0.94, 0.34, 0.34, -0.94, -470.99, 15.5)" gradientUnits="userSpaceOnUse"><stop offset="0" stop-color="#fcfcfc"/><stop offset="1" stop-color="#fff"/></linearGradient><linearGradient id="e" x1="572.8" y1="139.7" x2="639.09" y2="140.19" gradientTransform="matrix(0.94, 0.34, 0.34, -0.94, -470.99, 15.5)" gradientUnits="userSpaceOnUse"><stop offset="0" stop-color="#f8f8f8"/><stop offset="1" stop-color="#fff"/></linearGradient><linearGradient id="f" x1="540.48" y1="131.05" x2="566.24" y2="137.71" gradientTransform="matrix(0.94, 0.34, 0.34, -0.94, -470.99, 15.5)" gradientUnits="userSpaceOnUse"><stop offset="0"/><stop offset="0.91" stop-color="#fff"/></linearGradient><linearGradient id="g" x1="570.31" y1="126.41" x2="598.38" y2="217.87" gradientTransform="matrix(0.94, 0.34, 0.34, -0.94, -470.99, 15.5)" gradientUnits="userSpaceOnUse"><stop offset="0" stop-color="#fff"/><stop offset="1" stop-color="#f5f5f5"/></linearGradient><linearGradient id="h" x1="570.46" y1="104.63" x2="569.43" y2="104.83" gradientTransform="matrix(0.94, 0.34, 0.34, -0.94, -470.99, 15.5)" gradientUnits="userSpaceOnUse"><stop offset="0" stop-color="#fff"/><stop offset="1"/></linearGradient><linearGradient id="i" x1="599.34" y1="141.16" x2="560.47" y2="138.9" xlink:href="#h"/><linearGradient id="j" x1="529.81" y1="122.25" x2="538.03" y2="125.96" xlink:href="#h"/><linearGradient id="k" x1="607.13" y1="134.13" x2="584.63" y2="138" gradientTransform="matrix(0.94, 0.34, 0.34, -0.94, -470.99, 15.5)" gradientUnits="userSpaceOnUse"><stop offset="0" stop-color="#fff"/><stop offset="0.15" stop-color="#ccc"/><stop offset="0.39" stop-color="#848484"/><stop offset="0.6" stop-color="#4c4c4c"/><stop offset="0.77" stop-color="#222"/><stop offset="0.92" stop-color="#090909"/><stop offset="1"/></linearGradient><linearGradient id="l" x1="607.36" y1="133.58" x2="604.58" y2="134.07" gradientTransform="matrix(0.94, 0.34, 0.34, -0.94, -470.99, 15.5)" gradientUnits="userSpaceOnUse"><stop offset="0" stop-color="#fff"/><stop offset="0.32" stop-color="#e0e0e0"/><stop offset="1"/></linearGradient><linearGradient id="m" x1="556.48" y1="116.36" x2="593.02" y2="164.23" gradientTransform="matrix(0.94, 0.34, 0.34, -0.94, -470.99, 15.5)" gradientUnits="userSpaceOnUse"><stop offset="0" stop-color="#fff"/><stop offset="0.17" stop-color="#bebebe"/><stop offset="0.33" stop-color="#848484"/><stop offset="0.49" stop-color="#555"/><stop offset="0.64" stop-color="#303030"/><stop offset="0.78" stop-color="#161616"/><stop offset="0.9" stop-color="#060606"/><stop offset="1"/></linearGradient><linearGradient id="n" x1="569.41" y1="140.56" x2="525.62" y2="144.68" xlink:href="#m"/><linearGradient id="o" x1="567.05" y1="140.35" x2="527.29" y2="144.08" xlink:href="#m"/><linearGradient id="p" x1="558.13" y1="117.55" x2="592.99" y2="163.24" xlink:href="#m"/><linearGradient id="q" x1="567.8" y1="94.54" x2="577" y2="112.69" xlink:href="#m"/><linearGradient id="r" x1="546.1" y1="105.54" x2="555.29" y2="123.68" xlink:href="#m"/><linearGradient id="s" x1="584.34" y1="122.7" x2="595.47" y2="103.35" xlink:href="#m"/><linearGradient id="t" x1="569.09" y1="118.92" x2="576.64" y2="147.96" xlink:href="#h"/><linearGradient id="u" x1="577.92" y1="165.33" x2="581.31" y2="190.98" xlink:href="#m"/><linearGradient id="v" x1="550.21" y1="139.54" x2="562.26" y2="140.03" xlink:href="#m"/><linearGradient id="w" x1="610.54" y1="137.33" x2="596.7" y2="139.51" xlink:href="#m"/><linearGradient id="x" x1="120.11" y1="100.72" x2="113.66" y2="121.81" gradientTransform="matrix(-1, 0, 0, 1, 244.63, 0)" xlink:href="#m"/><linearGradient id="y" x1="177.8" y1="76.33" x2="182.92" y2="76.93" gradientUnits="userSpaceOnUse"><stop offset="0" stop-color="#fff"/><stop offset="1" stop-color="#666"/></linearGradient><linearGradient id="z" x1="183.58" y1="37.96" x2="184.18" y2="109.36" gradientUnits="userSpaceOnUse"><stop offset="0" stop-color="#ccc"/><stop offset="0.35" stop-color="#999"/><stop offset="0.62" stop-color="#a2a2a2"/><stop offset="0.64" stop-color="#b2b2b2"/><stop offset="0.67" stop-color="#c1c1c1"/><stop offset="0.7" stop-color="#c9c9c9"/><stop offset="0.74" stop-color="#ccc"/><stop offset="1" stop-color="gray"/></linearGradient><linearGradient id="aa" x1="191.64" y1="55.24" x2="181.75" y2="51.97" gradientUnits="userSpaceOnUse"><stop offset="0" stop-color="#fff"/><stop offset="1" stop-color="#999"/></linearGradient><linearGradient id="ab" x1="191.63" y1="55.28" x2="181.74" y2="52.01" xlink:href="#aa"/><linearGradient id="ac" x1="188.25" y1="52.85" x2="180.85" y2="50.4" xlink:href="#aa"/><linearGradient id="ad" x1="184.63" y1="52.24" x2="182.82" y2="51.94" xlink:href="#aa"/><linearGradient id="ae" x1="181.5" y1="52.43" x2="179.39" y2="52.53" xlink:href="#aa"/><linearGradient id="af" x1="187.28" y1="50.05" x2="178.53" y2="70.82" gradientUnits="userSpaceOnUse"><stop offset="0.01" stop-color="#fff"/><stop offset="0.66" stop-color="#f2f2f2"/><stop offset="0.99" stop-color="#f3f3f3"/></linearGradient><linearGradient id="ag" x1="186.53" y1="49.28" x2="180.2" y2="71.88" xlink:href="#af"/><linearGradient id="ah" x1="183.17" y1="65.08" x2="182.2" y2="74.65" gradientUnits="userSpaceOnUse"><stop offset="0" stop-color="#fff"/><stop offset="0.4" stop-color="#e6e6e6"/><stop offset="1" stop-color="#fff"/></linearGradient><linearGradient id="ai" x1="184.04" y1="52.52" x2="176.05" y2="58.63" gradientUnits="userSpaceOnUse"><stop offset="0" stop-color="#fff"/><stop offset="0.4" stop-color="#999"/><stop offset="1" stop-color="#ebebeb"/></linearGradient><linearGradient id="aj" x1="187.17" y1="38.76" x2="180.83" y2="43.6" gradientTransform="matrix(1, 0, 0, 1, 0, 0)" xlink:href="#h"/><linearGradient id="ak" x1="187.17" y1="37.27" x2="181.63" y2="41.51" gradientTransform="matrix(1, 0, 0, 1, 0, 0)" xlink:href="#h"/><linearGradient id="al" x1="187" y1="35.93" x2="182.07" y2="39.7" gradientTransform="matrix(1, 0, 0, 1, 0, 0)" xlink:href="#h"/><linearGradient id="am" x1="192.13" y1="52.32" x2="182.27" y2="59.86" gradientTransform="matrix(1, 0, 0, 1, 0, 0)" xlink:href="#h"/><linearGradient id="an" x1="182.33" y1="56.34" x2="184.54" y2="42.58" xlink:href="#aa"/><linearGradient id="ao" x1="178.35" y1="34.87" x2="181.66" y2="37.78" gradientTransform="matrix(1, 0, 0, 1, 0, 0)" xlink:href="#h"/><linearGradient id="ap" x1="170.5" y1="45.82" x2="189.59" y2="53.1" gradientTransform="matrix(1, 0, 0, 1, 0, 0)" xlink:href="#h"/><linearGradient id="aq" x1="170.79" y1="45.83" x2="189.03" y2="52.79" gradientTransform="matrix(1, 0, 0, 1, 0, 0)" xlink:href="#h"/><linearGradient id="ar" x1="171.05" y1="46.03" x2="188.32" y2="52.62" gradientTransform="matrix(1, 0, 0, 1, 0, 0)" xlink:href="#h"/><linearGradient id="as" x1="171.13" y1="46.75" x2="187.39" y2="52.96" gradientTransform="matrix(1, 0, 0, 1, 0, 0)" xlink:href="#h"/><linearGradient id="at" x1="183.93" y1="74.87" x2="182.5" y2="68.62" xlink:href="#ah"/><linearGradient id="au" x1="181.4" y1="50.38" x2="183.66" y2="50.6" gradientUnits="userSpaceOnUse"><stop offset="0" stop-color="#fff"/><stop offset="1" stop-color="#f2f2f2"/></linearGradient><linearGradient id="av" x1="181.83" y1="50.99" x2="184.05" y2="51.22" xlink:href="#au"/><linearGradient id="aw" x1="182.67" y1="49.12" x2="184.6" y2="49.31" xlink:href="#au"/><linearGradient id="ax" x1="183.47" y1="48.09" x2="185.11" y2="48.26" xlink:href="#au"/><linearGradient id="ay" x1="184.54" y1="47.35" x2="185.71" y2="47.47" xlink:href="#au"/><linearGradient id="az" x1="178.5" y1="65.22" x2="183.68" y2="65.22" xlink:href="#au"/><linearGradient id="ba" x1="178.5" y1="67.72" x2="182.79" y2="67.72" xlink:href="#au"/><linearGradient id="bb" x1="178.5" y1="69.82" x2="181.91" y2="69.82" xlink:href="#au"/><linearGradient id="bc" x1="178.5" y1="71.56" x2="180.43" y2="71.56" xlink:href="#au"/><linearGradient id="bd" x1="182.26" y1="68.94" x2="180.23" y2="69.99" gradientUnits="userSpaceOnUse"><stop offset="0" stop-color="#fff"/><stop offset="1" stop-color="#e6e6e6"/></linearGradient><linearGradient id="be" x1="188.51" y1="78.19" x2="188.66" y2="78.19" xlink:href="#au"/><linearGradient id="bf" x1="182.43" y1="69.9" x2="180.52" y2="70.89" xlink:href="#au"/><linearGradient id="bg" x1="185.25" y1="59.94" x2="187.55" y2="60.01" gradientUnits="userSpaceOnUse"><stop offset="0" stop-color="#fff"/><stop offset="1" stop-color="#b3b3b3"/></linearGradient><linearGradient id="bh" x1="186.53" y1="48.5" x2="185.93" y2="48.5" gradientTransform="matrix(1, 0, 0, 1, 0, 0)" xlink:href="#h"/><linearGradient id="bi" x1="179.72" y1="48.11" x2="182.87" y2="47.17" gradientTransform="matrix(1, 0, 0, 1, 0, 0)" xlink:href="#h"/><linearGradient id="bj" x1="183.33" y1="37.05" x2="187.88" y2="35.69" gradientTransform="matrix(1, 0, 0, 1, 0, 0)" xlink:href="#h"/><linearGradient id="bk" x1="178.48" y1="50.16" x2="179.42" y2="50.16" gradientTransform="matrix(1, 0, 0, 1, 0, 0)" xlink:href="#h"/><linearGradient id="bl" x1="181.78" y1="121.27" x2="181.75" y2="121.37" xlink:href="#aa"/><linearGradient id="bm" x1="196.6" y1="71.99" x2="192.42" y2="83.99" xlink:href="#aa"/><linearGradient id="bn" x1="183.13" y1="98.68" x2="185.07" y2="98.68" gradientTransform="matrix(1, 0, 0, 1, 0, 0)" xlink:href="#h"/><linearGradient id="bo" x1="1602.99" y1="98.68" x2="1604.93" y2="98.68" gradientTransform="matrix(-1, 0, 0, 1, 1791.11, 0)" xlink:href="#h"/><linearGradient id="bp" x1="184.6" y1="55.94" x2="183.99" y2="103.41" gradientUnits="userSpaceOnUse"><stop offset="0" stop-color="#fff"/><stop offset="0.92"/></linearGradient><linearGradient id="bq" x1="184.65" y1="76.82" x2="184.8" y2="82.62" gradientUnits="userSpaceOnUse"><stop offset="0" stop-color="#fff"/><stop offset="0.4" stop-color="#999"/><stop offset="1" stop-color="#fff"/></linearGradient><linearGradient id="br" x1="184.19" y1="75.25" x2="184.46" y2="79.22" xlink:href="#bq"/><linearGradient id="bs" x1="50.99" y1="79.96" x2="53.63" y2="80.45" xlink:href="#y"/><linearGradient id="bt" x1="48.4" y1="47.68" x2="54.98" y2="47.59" xlink:href="#y"/><radialGradient id="bu" cx="54.34" cy="-2502.13" r="24.53" gradientTransform="translate(0 3739.4) scale(1 1.46)" gradientUnits="userSpaceOnUse"><stop offset="0.09" stop-color="#f2f2f2"/><stop offset="0.26" stop-color="#ccc"/><stop offset="0.65" stop-color="gray"/><stop offset="1" stop-color="gray"/></radialGradient><linearGradient id="bv" x1="48.47" y1="49.34" x2="49.12" y2="49.34" gradientTransform="matrix(1, 0, 0, 1, 0, 0)" xlink:href="#h"/><linearGradient id="bw" x1="46.16" y1="40.29" x2="46.89" y2="40.66" gradientUnits="userSpaceOnUse"><stop offset="0" stop-color="#fff"/><stop offset="0.17" stop-color="#c6c6c6"/><stop offset="0.4" stop-color="gray"/><stop offset="0.6" stop-color="#494949"/><stop offset="0.78" stop-color="#212121"/><stop offset="0.92" stop-color="#090909"/><stop offset="1"/></linearGradient><linearGradient id="bx" x1="49.2" y1="45.82" x2="50.7" y2="45.77" xlink:href="#aa"/><linearGradient id="by" x1="47.28" y1="47.62" x2="49.88" y2="47.68" xlink:href="#bw"/><linearGradient id="bz" x1="49.39" y1="46.23" x2="49.87" y2="46.23" xlink:href="#aa"/><linearGradient id="ca" x1="53.82" y1="58.51" x2="53.83" y2="58.42" xlink:href="#aa"/><linearGradient id="cb" x1="56.75" y1="58.47" x2="56.75" y2="58.46" xlink:href="#aa"/><linearGradient id="cc" x1="53.86" y1="44.02" x2="54.09" y2="51.38" gradientUnits="userSpaceOnUse"><stop offset="0.66" stop-color="#fff"/><stop offset="1" stop-color="#999"/></linearGradient><linearGradient id="cd" x1="54.11" y1="47.75" x2="55.24" y2="65.68" xlink:href="#cc"/><linearGradient id="ce" x1="54.27" y1="44.55" x2="54.27" y2="50.42" xlink:href="#cc"/><linearGradient id="cf" x1="53.6" y1="75.03" x2="53.56" y2="70.1" xlink:href="#cc"/><linearGradient id="cg" x1="55.15" y1="55.45" x2="55.15" y2="60.04" xlink:href="#cc"/><linearGradient id="ch" x1="55.43" y1="55.29" x2="55.43" y2="59.68" xlink:href="#cc"/><linearGradient id="ci" x1="55.78" y1="56.05" x2="55.78" y2="61.2" xlink:href="#cc"/><linearGradient id="cj" x1="57.45" y1="56.03" x2="57.48" y2="55.89" gradientUnits="userSpaceOnUse"><stop offset="0.39" stop-color="#fff"/><stop offset="1" stop-color="#999"/></linearGradient><linearGradient id="ck" x1="57.89" y1="48.65" x2="59.44" y2="48.65" xlink:href="#aa"/><linearGradient id="cl" x1="52.89" y1="67.17" x2="54" y2="61.16" xlink:href="#aa"/><linearGradient id="cm" x1="52.92" y1="67.09" x2="53.93" y2="61.57" xlink:href="#aa"/><linearGradient id="cn" x1="50.15" y1="57.34" x2="50.15" y2="57.34" xlink:href="#aa"/><linearGradient id="co" x1="53.83" y1="63.97" x2="53.79" y2="61.84" xlink:href="#aa"/><linearGradient id="cp" x1="54.41" y1="65.06" x2="53.06" y2="66.31" xlink:href="#aa"/><linearGradient id="cq" x1="53.5" y1="63.58" x2="56.32" y2="65.76" xlink:href="#aa"/><linearGradient id="cr" x1="52.45" y1="63.88" x2="52" y2="64.71" xlink:href="#aa"/><linearGradient id="cs" x1="51.59" y1="63.55" x2="51.32" y2="64.04" xlink:href="#aa"/><linearGradient id="ct" x1="54.32" y1="62.78" x2="56" y2="64.08" xlink:href="#aa"/><linearGradient id="cu" x1="51.57" y1="56.62" x2="50.03" y2="56.36" xlink:href="#aa"/><linearGradient id="cv" x1="47.07" y1="59.33" x2="50.72" y2="60.8" gradientTransform="matrix(1, 0, 0, 1, 0, 0)" xlink:href="#h"/><linearGradient id="cw" x1="58.73" y1="62.59" x2="58.2" y2="62.47" gradientTransform="matrix(1, 0, 0, 1, 0, 0)" xlink:href="#h"/><linearGradient id="cx" x1="53.05" y1="59.24" x2="53.81" y2="62.35" gradientTransform="matrix(1, 0, 0, 1, 0, 0)" xlink:href="#h"/><linearGradient id="cy" x1="50.55" y1="45.97" x2="52.43" y2="45.97" xlink:href="#bw"/><linearGradient id="cz" x1="57.84" y1="45.75" x2="61.24" y2="45.86" gradientUnits="userSpaceOnUse"><stop offset="0" stop-color="#fff"/><stop offset="0.02" stop-color="#f6f6f6"/><stop offset="0.13" stop-color="#bdbdbd"/><stop offset="0.25" stop-color="#8b8b8b"/><stop offset="0.37" stop-color="#606060"/><stop offset="0.49" stop-color="#3d3d3d"/><stop offset="0.62" stop-color="#222"/><stop offset="0.74" stop-color="#0f0f0f"/><stop offset="0.87" stop-color="#040404"/><stop offset="1"/></linearGradient><linearGradient id="da" x1="57.9" y1="45.18" x2="58.34" y2="45.18" gradientTransform="matrix(1, 0, 0, 1, 0, 0)" xlink:href="#h"/><linearGradient id="db" x1="52.2" y1="47.03" x2="53.52" y2="46.95" xlink:href="#aa"/><linearGradient id="dc" x1="48.18" y1="50.46" x2="51.54" y2="47.43" xlink:href="#aa"/><linearGradient id="dd" x1="50.16" y1="35.59" x2="50.94" y2="36.56" gradientTransform="matrix(1, 0, 0, 1, 0, 0)" xlink:href="#h"/><linearGradient id="de" x1="51.19" y1="34.6" x2="51.49" y2="34.97" gradientTransform="matrix(1, 0, 0, 1, 0, 0)" xlink:href="#h"/><clipPath id="df"><path d="M59.6,61.9a4.3,4.3,0,0,0-.1.5,2.2,2.2,0,0,1-.5.8h-.1a8.7,8.7,0,0,0-1.4,1.2h-.3a.1.1,0,0,1-.1-.1l-.9-.2c-.9-.5-2,.2-4.6-.2a8.5,8.5,0,0,0-1.6,0h-.5l-.8-.7a1.3,1.3,0,0,1-.5-1.3v-.8l.2-3.1h.3c.2,0,.4-.2.5-.6S49,38.4,49,34.5V34h.2a6.7,6.7,0,0,1,.5,1.9v2.2L50.2,57h0v.5c0,.1,0,.1.1.2h.9a.1.1,0,0,0,.1-.1h.1c0-.1,0-.1.1-.1h0v-.8h0V56h0v-.5h0v-.3h0v-.4h0V53.1h0V51.9h0V51h0a.6.6,0,0,1,.1-.4v-.9h0v-1h0v-.2h0V44.9h0V43.7h0V41.4h0v-.4h0v-.2h0V35.6h0a.1.1,0,0,1,.1-.1v-.2h0v-.2h.1v-.2a.1.1,0,0,0,.1-.1v-.2a.1.1,0,0,0,.1-.1h.5v.2h.1v.2h0a.4.4,0,0,1,.1.3v.2c.1,0,.1.1.1.2h0v3.9h0v3.4l.2,7.6v6.8h0v.7H54a.1.1,0,0,0,.1-.1h.3a.1.1,0,0,0,.1-.1h0V56.7h0v-.4l.4-18.3v-2a4.5,4.5,0,0,1,.4-2h0a.1.1,0,0,0,.1-.1h.3c0,.1.1.1.1.2a.4.4,0,0,0,.1.3h0v.2h.1v.6h0c0,.1.1.2.1.3v.4h0v7.9h0V54.7h0v3.2a.6.6,0,0,0,.1.4c.1,0,.1,0,.1.1h1V58h0V55.9c0-.2.1-.6.1-.7s.1-2.8.1-4.4V49.5c0-1.3.1-2.6.1-3.9v-.5c0-1.2,0-2.4.1-3.6V39.1A.1.1,0,0,0,58,39h0V36.1h0a4.1,4.1,0,0,1,.5-1.9h.2a.1.1,0,0,1,.1.1,4.6,4.6,0,0,1,.5,2V57.2l.2,2.8v1.9Z" fill="none"/></clipPath><linearGradient id="dg" x1="55.26" y1="58.84" x2="49.53" y2="78.78" gradientTransform="matrix(1, 0, 0, 1, 0, 0)" xlink:href="#h"/><linearGradient id="dh" x1="51.87" y1="50.94" x2="51.87" y2="57.13" gradientTransform="matrix(1, 0, 0, 1, 0, 0)" xlink:href="#h"/><linearGradient id="di" x1="51.45" y1="45.77" x2="53.97" y2="46.34" xlink:href="#bw"/><linearGradient id="dj" x1="51.13" y1="34.41" x2="51.77" y2="36.67" xlink:href="#bw"/><linearGradient id="dk" x1="51.23" y1="45.89" x2="52.06" y2="45.89" gradientTransform="matrix(1, 0, 0, 1, 0, 0)" xlink:href="#h"/><linearGradient id="dl" x1="55.76" y1="46.74" x2="55.99" y2="46.74" xlink:href="#aa"/><linearGradient id="dm" x1="54.38" y1="45.91" x2="55.24" y2="45.95" gradientTransform="matrix(1, 0, 0, 1, 0, 0)" xlink:href="#h"/><linearGradient id="dn" x1="54.6" y1="45.94" x2="55.56" y2="45.94" gradientTransform="matrix(1, 0, 0, 1, 0, 0)" xlink:href="#h"/><linearGradient id="do" x1="54.02" y1="45.99" x2="56.62" y2="46.26" xlink:href="#bw"/><linearGradient id="dp" x1="55.56" y1="33.86" x2="55.56" y2="35.08" gradientTransform="matrix(1, 0, 0, 1, 0, 0)" xlink:href="#h"/><linearGradient id="dq" x1="55.66" y1="46.21" x2="56.14" y2="46.21" xlink:href="#y"/><linearGradient id="dr" x1="52.43" y1="46.18" x2="52.96" y2="46.18" xlink:href="#y"/><linearGradient id="ds" x1="57.64" y1="46.14" x2="58.39" y2="46.18" xlink:href="#bw"/><linearGradient id="dt" x1="58.64" y1="33.93" x2="58.64" y2="36.14" xlink:href="#bw"/><linearGradient id="du" x1="58.8" y1="45.48" x2="59.08" y2="45.53" gradientTransform="matrix(1, 0, 0, 1, 0, 0)" xlink:href="#h"/><linearGradient id="dv" x1="54.86" y1="46.23" x2="55.59" y2="46.27" gradientTransform="translate(-0.1 -0.6) rotate(0.2)" xlink:href="#h"/><linearGradient id="dw" x1="58.1" y1="46.43" x2="58.76" y2="46.47" gradientTransform="translate(-0.1 -0.1) rotate(0.1)" xlink:href="#h"/><linearGradient id="dx" x1="50.24" y1="40.98" x2="50.9" y2="41.02" gradientTransform="translate(0 6.8) rotate(-1.7)" xlink:href="#h"/><linearGradient id="dy" x1="53.48" y1="57.54" x2="57.57" y2="50.77" gradientUnits="userSpaceOnUse"><stop offset="0" stop-color="#fff"/><stop offset="1" stop-color="#ccc"/></linearGradient><linearGradient id="dz" x1="49.02" y1="34.61" x2="49.04" y2="34.58" xlink:href="#aa"/><linearGradient id="ea" x1="49.35" y1="46" x2="50.06" y2="45.96" gradientUnits="userSpaceOnUse"><stop offset="0" stop-color="#fff"/><stop offset="1" stop-color="gray"/></linearGradient><linearGradient id="eb" x1="55.59" y1="46.16" x2="56.02" y2="46.16" xlink:href="#aa"/><linearGradient id="ec" x1="58.68" y1="49.22" x2="59.32" y2="49.18" xlink:href="#dy"/><linearGradient id="ed" x1="58.15" y1="55.54" x2="58.15" y2="57.08" gradientUnits="userSpaceOnUse"><stop offset="0" stop-color="#fff"/><stop offset="0.93" stop-color="#111"/><stop offset="1"/></linearGradient><linearGradient id="ee" x1="48.4" y1="45.82" x2="49.11" y2="45.82" gradientTransform="matrix(1, 0, 0, 1, 0, 0)" xlink:href="#h"/><linearGradient id="ef" x1="56.73" y1="51.01" x2="57.71" y2="52.03" gradientTransform="matrix(1, 0, 0, 1, 0, 0)" xlink:href="#h"/><linearGradient id="eg" x1="53.37" y1="56.72" x2="53.22" y2="57.78" gradientTransform="matrix(1, 0, 0, 1, 0, 0)" xlink:href="#h"/><linearGradient id="eh" x1="48.57" y1="63.96" x2="50.64" y2="63.38" gradientTransform="matrix(1, 0, 0, 1, 0, 0)" xlink:href="#h"/><linearGradient id="ei" x1="47.02" y1="58.35" x2="49.09" y2="57.78" gradientTransform="matrix(1, 0, 0, 1, 0, 0)" xlink:href="#h"/><linearGradient id="ej" x1="51.38" y1="99.16" x2="53.27" y2="99.16" gradientTransform="matrix(1, 0, 0, 1, 0, 0)" xlink:href="#h"/><linearGradient id="ek" x1="65.46" y1="71.58" x2="61.26" y2="83.66" xlink:href="#aa"/><linearGradient id="el" x1="54.32" y1="68.79" x2="53.46" y2="81.87" gradientUnits="userSpaceOnUse"><stop offset="0" stop-color="#fcfcfc"/><stop offset="0.4" stop-color="#aeaeae"/><stop offset="1" stop-color="#fff"/></linearGradient><linearGradient id="em" x1="55.35" y1="34.33" x2="55.44" y2="36.43" gradientTransform="matrix(1, 0, 0, 1, 0, 0)" xlink:href="#h"/><linearGradient id="en" x1="58.49" y1="34.31" x2="58.64" y2="36.03" gradientTransform="matrix(1, 0, 0, 1, 0, 0)" xlink:href="#h"/><linearGradient id="eo" x1="53.5" y1="57.47" x2="56.43" y2="135.13" gradientUnits="userSpaceOnUse"><stop offset="0" stop-color="#fff"/><stop offset="0.92" stop-color="#4d4d4d"/></linearGradient><linearGradient id="ep" x1="53.8" y1="67.32" x2="53.97" y2="72.53" xlink:href="#bq"/><linearGradient id="eq" x1="53.59" y1="115.43" x2="53.9" y2="125.28" xlink:href="#aa"/><linearGradient id="er" x1="53.64" y1="117.06" x2="53.91" y2="125.65" xlink:href="#aa"/><linearGradient id="es" x1="53.69" y1="118.76" x2="53.92" y2="126.02" xlink:href="#aa"/><linearGradient id="et" x1="53.74" y1="120.27" x2="53.93" y2="126.35" xlink:href="#aa"/><linearGradient id="eu" x1="53.78" y1="121.59" x2="53.94" y2="126.65" xlink:href="#aa"/><linearGradient id="ev" x1="53.83" y1="122.98" x2="53.95" y2="126.95" xlink:href="#aa"/><linearGradient id="ew" x1="53.9" y1="125.01" x2="53.98" y2="127.4" xlink:href="#aa"/><linearGradient id="ex" x1="40.98" y1="98.87" x2="42.92" y2="98.87" gradientTransform="matrix(-1, 0, 0, 1, 97.39, 0)" xlink:href="#h"/></defs><g style="isolation:isolate"><rect width="235" height="176.22" fill="url(#a)"/><rect width="235" height="176.22" fill="#fff" opacity="0.43" style="mix-blend-mode:screen"/><rect width="235" height="176.22" fill="#c69c6d" opacity="0.43" style="mix-blend-mode:screen"/><g opacity="0.83" style="mix-blend-mode:multiply"><ellipse cx="126.2" cy="74.9" rx="42.2" ry="40.6" fill="#ccc" opacity="0.92"/></g><path d="M96.4,29a43.2,43.2,0,0,0-6.7,3.6A51,51,0,0,0,68.4,59a52.1,52.1,0,0,0,1.8,39c.1-13.4,2.3-35.6,13.6-53.1A119.3,119.3,0,0,1,96.4,29Z" fill="#fefefe" opacity="0.28" style="mix-blend-mode:multiply"/><path d="M89.7,32.6a48.4,48.4,0,0,0-9.4,7.5A53.4,53.4,0,0,0,68.4,59a51.5,51.5,0,0,0-.7,32.4c.6-13.5,3.6-32.3,13.5-47.4A105.6,105.6,0,0,1,89.7,32.6Z" fill="#fefefe" opacity="0.28" style="mix-blend-mode:multiply"/><path d="M80.3,40.1A53.4,53.4,0,0,0,68.4,59a51.5,51.5,0,0,0-2.8,21.5c1.5-11.9,5-25.7,12.6-37.3Z" fill="#fcfcfc" opacity="0.28" style="mix-blend-mode:multiply"/><path d="M165.9,93.7a51.9,51.9,0,0,0-8.3-49.6,50.1,50.1,0,0,0-10-9.5,49.6,49.6,0,0,0-13.1-6.9A50.3,50.3,0,0,0,111.3,25,51.7,51.7,0,0,0,68.4,59a52.8,52.8,0,0,0-.5,33.3,51.9,51.9,0,0,0,31.9,32.8l3,.9a51.7,51.7,0,0,0,63.1-32.3Z" fill="url(#b)"/><path d="M134.1,28.9a50.4,50.4,0,0,0-33.9,94.9l3,1a50.4,50.4,0,0,0,43.6-89.2A49.8,49.8,0,0,0,134.1,28.9Z" opacity="0.44" fill="url(#c)" style="mix-blend-mode:multiply"/><path d="M133.6,30.1a49.1,49.1,0,1,0-32.9,92.5,24.6,24.6,0,0,0,2.9.9,49.1,49.1,0,0,0,42.5-86.8A48.2,48.2,0,0,0,133.6,30.1Z" fill="#fefefe" opacity="0.96" style="mix-blend-mode:multiply"/><path d="M133.2,31.3a47.8,47.8,0,0,0-32.1,90.1l2.8.9a47.9,47.9,0,0,0,58.3-29.9,47.2,47.2,0,0,0,.5-30.4,47.9,47.9,0,0,0-17.4-24.3A50.1,50.1,0,0,0,133.2,31.3Z" fill="#fefefe" opacity="0.28" style="mix-blend-mode:multiply"/><path d="M132.7,32.6a46.5,46.5,0,0,0-31.2,87.6l2.8.8a46.4,46.4,0,0,0,56.6-29,45.5,45.5,0,0,0,.6-29.6,46.5,46.5,0,0,0-17-23.6A44.3,44.3,0,0,0,132.7,32.6Z" fill="#fefefe" opacity="0.28" style="mix-blend-mode:multiply"/><path d="M132.3,33.8A45.2,45.2,0,1,0,102,118.9l2.7.9a45.1,45.1,0,0,0,55.5-57,45.9,45.9,0,0,0-16.4-23A48.4,48.4,0,0,0,132.3,33.8Z" fill="#fefefe" opacity="0.28" style="mix-blend-mode:multiply"/><path d="M131.9,35a43.9,43.9,0,0,0-29.5,82.7l2.6.8a43.8,43.8,0,0,0,54-55.3,44.4,44.4,0,0,0-16-22.3A45.4,45.4,0,0,0,131.9,35Z" fill="#fefefe" opacity="0.28" style="mix-blend-mode:multiply"/><path d="M131.4,36.3a42.6,42.6,0,1,0-28.5,80.2l2.5.8A42.5,42.5,0,0,0,142.2,42,38.5,38.5,0,0,0,131.4,36.3Z" fill="#fefefe" opacity="0.28" style="mix-blend-mode:multiply"/><path d="M131,37.5a41.2,41.2,0,0,0-27.7,77.7l2.4.8A41.3,41.3,0,0,0,156,90.2a40.8,40.8,0,0,0,.5-26.3,41.6,41.6,0,0,0-15-20.9A40.4,40.4,0,0,0,131,37.5Z" fill="#fefefe" opacity="0.28" style="mix-blend-mode:multiply"/><path d="M130.6,38.7A40,40,0,0,0,103.7,114l2.4.8a39.9,39.9,0,0,0,34.6-70.7A39.3,39.3,0,0,0,130.6,38.7Z" fill="#fefefe" opacity="0.28" style="mix-blend-mode:multiply"/><path d="M130.1,39.9a38.7,38.7,0,1,0-25.9,72.9l2.3.7A38.6,38.6,0,0,0,154,64.7a39.2,39.2,0,0,0-14.1-19.6A36.7,36.7,0,0,0,130.1,39.9Z" fill="#fefefe" opacity="0.28" style="mix-blend-mode:multiply"/><path d="M129.7,41.2a37.4,37.4,0,0,0-25.1,70.4l2.2.7a37.4,37.4,0,0,0,45.5-23.4,36.6,36.6,0,0,0,.5-23.8,37.2,37.2,0,0,0-23.1-23.9Z" fill="#fefefe" opacity="0.28" style="mix-blend-mode:multiply"/><path d="M147.6,34.6l-2.7-1.9a52.5,52.5,0,0,0-10.4-5,51.7,51.7,0,1,0-34.7,97.4h0l3,.9c-.6-11.2,0-38.8,13.5-59.6A113,113,0,0,1,147.6,34.6Z" fill="#fefefe" opacity="0.28" style="mix-blend-mode:multiply"/><path d="M144.9,32.7l-2.8-1.6a47.5,47.5,0,0,0-7.6-3.4,51.7,51.7,0,0,0-37.3,96.4l2.6,1c-.7-10.9-.4-39.1,13.4-60.4A111.9,111.9,0,0,1,144.9,32.7Z" fill="#fefefe" opacity="0.28" style="mix-blend-mode:multiply"/><path d="M142.1,31.1l-3.3-1.7-4.3-1.7a51.7,51.7,0,0,0-39.9,95.2l2.6,1.2c-.7-10.3-.7-39.4,13.4-61.1A112.4,112.4,0,0,1,142.1,31.1Z" fill="#fefefe" opacity="0.28" style="mix-blend-mode:multiply"/><path d="M138.8,29.4l-3.7-1.5-.6-.2A51.6,51.6,0,0,0,91,120.9a30.7,30.7,0,0,0,3.6,2c-.8-9.3-1.3-39.6,13.3-62A110.9,110.9,0,0,1,138.8,29.4Z" fill="#fefefe" opacity="0.28" style="mix-blend-mode:multiply"/><path d="M135.1,27.9l-.6-.2a27.8,27.8,0,0,0-3.8-1.2h0a51.7,51.7,0,0,0-43.4,92.1c1.2.8,2.4,1.6,3.7,2.3-.8-9.7-1.1-39.4,13.3-61.6A112.9,112.9,0,0,1,135.1,27.9Z" fill="#fefefe" opacity="0.28" style="mix-blend-mode:multiply"/><path d="M130.7,26.5a32.2,32.2,0,0,0-5-1.1A51.7,51.7,0,0,0,83.9,116l3.4,2.6c-.8-10.2-.8-39.4,13.3-61.2A113.5,113.5,0,0,1,130.7,26.5Z" fill="#fefefe" opacity="0.28" style="mix-blend-mode:multiply"/><path d="M125.7,25.4l-4.2-.6a51.7,51.7,0,0,0-40.6,88.4,39.7,39.7,0,0,0,3,2.8c-.7-10.4-.6-39.3,13.4-60.9A113.1,113.1,0,0,1,125.7,25.4Z" fill="#fefefe" opacity="0.28" style="mix-blend-mode:multiply"/><path d="M121.5,24.8h-4.3A51.6,51.6,0,0,0,78.8,111a21.8,21.8,0,0,0,2.1,2.2c-.6-11.3,0-38.8,13.5-59.5A114.5,114.5,0,0,1,121.5,24.8Z" fill="#fefefe" opacity="0.28" style="mix-blend-mode:multiply"/><path d="M117.2,24.7a54.4,54.4,0,0,0-5.7.3,51.7,51.7,0,0,0-35.2,83.1,34.7,34.7,0,0,0,2.5,2.9c-.6-11.6.1-38.7,13.5-59.2A109.6,109.6,0,0,1,117.2,24.7Z" fill="#fefefe" opacity="0.28" style="mix-blend-mode:multiply"/><path d="M111.5,25a40.4,40.4,0,0,0-6.8,1.2,51.6,51.6,0,0,0-31.3,77.7c.9,1.4,1.9,2.9,2.9,4.2-.5-11.8.4-38.4,13.6-58.6A111.9,111.9,0,0,1,111.5,25Z" fill="#fefefe" opacity="0.28" style="mix-blend-mode:multiply"/><path d="M104.7,26.2A50.7,50.7,0,0,0,96.4,29,51.6,51.6,0,0,0,70.2,98a48.3,48.3,0,0,0,3.2,5.9C73,91.2,74.5,66.4,87,47.2A113.5,113.5,0,0,1,104.7,26.2Z" fill="#fefefe" opacity="0.28" style="mix-blend-mode:multiply"/><path d="M148.8,35.9a51.6,51.6,0,0,0-66.3,78.9,51.6,51.6,0,0,1,51.9-87,53,53,0,0,1,13.1,7,37.5,37.5,0,0,1,5.3,4.4A41.2,41.2,0,0,0,148.8,35.9Z" fill="url(#d)" style="mix-blend-mode:screen"/><path d="M150.4,88.6a35.5,35.5,0,0,0-12.7-40.7,35,35,0,0,0-5.3-3.1,36.8,36.8,0,0,0-3.5-1.5,35.4,35.4,0,1,0-13.1,68.8c2,0,4.1-.1,6.1-.3A35.7,35.7,0,0,0,150.4,88.6Zm-4.6-1.8A30.6,30.6,0,0,1,116.2,107a30.1,30.1,0,0,1-9.3-1.8A27.1,27.1,0,0,1,102,103a30.5,30.5,0,0,1,25.3-55.2l.3.2a28.1,28.1,0,0,1,7.1,3.7A30.4,30.4,0,0,1,145.8,86.8Z" fill="url(#e)"/><path d="M129,43.2a35.4,35.4,0,0,0-29.4,64.1,32,32,0,0,0,5.6,2.6,35.4,35.4,0,0,0,24.1-66.5Z" opacity="0.06" fill="url(#f)" style="mix-blend-mode:multiply"/><path d="M128.8,43.7a34.9,34.9,0,0,0-29,63.2,35.7,35.7,0,0,0,5.6,2.6,34.9,34.9,0,0,0,23.8-65.7Z" fill="#fbfbfb" opacity="0.11" style="mix-blend-mode:multiply"/><path d="M128.6,44.2a34.4,34.4,0,0,0-28.5,62.3,33.2,33.2,0,0,0,5.4,2.5A34.4,34.4,0,0,0,129,44.3Z" fill="#f5f5f5" opacity="0.41" style="mix-blend-mode:multiply"/><path d="M128.5,44.6a34,34,0,0,0-28.2,61.5,32.8,32.8,0,0,0,5.4,2.4,33.9,33.9,0,0,0,23.1-63.8Z" fill="#fbfbfb" opacity="0.41" style="mix-blend-mode:multiply"/><path d="M128.3,45.1a30.5,30.5,0,1,0,.4.1Z" fill="#fbfbfb" opacity="0.41" style="mix-blend-mode:multiply"/><path d="M128.1,45.5a32.9,32.9,0,0,0-27.3,59.7,24.5,24.5,0,0,0,5.2,2.4,32.9,32.9,0,0,0,22.5-61.9Z" fill="#fbfbfb" opacity="0.41" style="mix-blend-mode:multiply"/><path d="M128,46a32.5,32.5,0,0,0-27,58.8,41.2,41.2,0,0,0,5.2,2.4,32.5,32.5,0,0,0,22.1-61.1Z" fill="#fbfbfb" opacity="0.59" style="mix-blend-mode:multiply"/><path d="M127.8,46.4a32,32,0,0,0-26.6,58,38.2,38.2,0,0,0,5.1,2.3,32,32,0,0,0,21.9-60.1Z" fill="#fbfbfb" opacity="0.59" style="mix-blend-mode:multiply"/><path d="M127.7,46.9A31.5,31.5,0,0,0,101.5,104a45.2,45.2,0,0,0,5,2.3A31.5,31.5,0,0,0,128,47Z" fill="#fbfbfb" opacity="0.3" style="mix-blend-mode:multiply"/><path d="M146.3,87a31.1,31.1,0,0,0-15.8-38.4l-2.7-1.1-.3-.2a31,31,0,0,0-25.8,56.2,28.4,28.4,0,0,0,5,2.3A31,31,0,0,0,146.3,87Z" fill="#fbfbfb" opacity="0.3" style="mix-blend-mode:multiply"/><path d="M145.8,86.7a30.5,30.5,0,0,0-14.3-37.1l-3.8-1.7h-.4a30.5,30.5,0,0,0-25.6,55l.3.2a43.1,43.1,0,0,0,4.9,2.2,30.4,30.4,0,0,0,38.9-18.5Z" opacity="0.48" fill="url(#g)"/><g style="mix-blend-mode:screen"><path d="M101.1,108.1l-1-.3-1-.6,2.8,1.2Z" opacity="0.32" fill="url(#h)" style="mix-blend-mode:screen"/></g><path d="M137.7,47.9a37.8,37.8,0,0,0-4.3-2.6l-1-.5a36.8,36.8,0,0,0-3.5-1.5A35.4,35.4,0,0,0,105.2,110a32.9,32.9,0,0,0,8.1,1.9l2.5.2a5.8,5.8,0,0,1,.4-5.1l-2.8-.2a29.4,29.4,0,0,1-6.5-1.6A27.1,27.1,0,0,1,102,103a30.5,30.5,0,0,1,25.3-55.2l.3.2a18.3,18.3,0,0,1,3.2,1.4,19,19,0,0,1,3.9,2.3A5.4,5.4,0,0,1,137.7,47.9Z" fill="#fbfbfb" opacity="0.28" style="mix-blend-mode:multiply"/><path d="M113.3,111.9a13.8,13.8,0,0,1-.1-4.1c.1-.4.1-.7.2-1l-4.3-.9-2.2-.7A27.1,27.1,0,0,1,102,103a30.4,30.4,0,0,1,24.2-55.5l1.1.3.3.2a18.3,18.3,0,0,1,3.2,1.4,5.3,5.3,0,0,1,2.6-4.1l-1-.5a36.8,36.8,0,0,0-3.5-1.5l-.7-.2a35.4,35.4,0,0,0-23,66.9l3.2,1A42.1,42.1,0,0,0,113.3,111.9Z" fill="url(#i)" style="mix-blend-mode:soft-light"/><path d="M109.1,105.9l-2.2-.7h-.5A35.5,35.5,0,0,1,102,103a30.5,30.5,0,0,1,21.8-56.2l2.4.7c-.5-1.1-1.2-3.4,2-4.4L124.4,42a35.4,35.4,0,0,0-19.2,68l.4.2,2.8.8A5.1,5.1,0,0,1,109.1,105.9Z" fill="#fbfbfb" opacity="0.1" style="mix-blend-mode:multiply"/><path d="M106.4,105.1l-2.3-1L102,103a30.5,30.5,0,0,1,18.3-56.8l3.5.6a3.3,3.3,0,0,1,.6-4.8l-3.3-.5a35.4,35.4,0,0,0-18.7,67.4l2.8,1.1.4.2a7.9,7.9,0,0,1,.1-3.4A8.7,8.7,0,0,1,106.4,105.1Z" fill="#fbfbfb" opacity="0.12" style="mix-blend-mode:multiply"/><path d="M104.1,104.1,102,103l-.5-.3a30.4,30.4,0,0,1,14.9-56.6h3.9a4,4,0,0,1,.8-4.7,33.9,33.9,0,0,0-4.5-.2,35.4,35.4,0,0,0-17.3,66l3.1,1.6A5.1,5.1,0,0,1,104.1,104.1Z" fill="#fbfbfb" opacity="0.12" style="mix-blend-mode:multiply"/><path d="M88.4,66.3a30.6,30.6,0,0,1,24.6-20l3.4-.2c-.9-.9-2.5-3,.2-4.8a29.7,29.7,0,0,0-4.2.3A35.4,35.4,0,0,0,97.2,106l2.1,1.3a5.4,5.4,0,0,1,2.2-4.6l-2.3-1.5A30.3,30.3,0,0,1,88.4,66.3Z" fill="#fbfbfb" opacity="0.12" style="mix-blend-mode:multiply"/><path d="M88.4,66.3a30.4,30.4,0,0,1,21.8-19.4l2.8-.6c-.8-.6-2.8-2.4-.6-4.7a23.2,23.2,0,0,0-3.8.7,35.4,35.4,0,0,0-13.9,61.9l2.5,1.8a8.2,8.2,0,0,1,2-4.8l-1.8-1.4A30.5,30.5,0,0,1,88.4,66.3Z" fill="#fbfbfb" opacity="0.12" style="mix-blend-mode:multiply"/><path d="M94.9,105.7h0Z" fill="#fefefe"/><path d="M88.4,66.3A30.1,30.1,0,0,1,106.5,48a22.6,22.6,0,0,1,3.7-1.1s-3.4-1.1-1.6-4.6l-3.3,1h0a35.4,35.4,0,0,0-13.2,58.5,29.6,29.6,0,0,0,2.6,2.4,7.4,7.4,0,0,1,2.7-4.4l-2.3-2.2A30.5,30.5,0,0,1,88.4,66.3Z" fill="#fbfbfb" opacity="0.12" style="mix-blend-mode:multiply"/><path d="M88.4,66.3a30.4,30.4,0,0,1,14.5-16.7,23.2,23.2,0,0,1,3.6-1.6s-4.6-2-1.2-4.7a39.9,39.9,0,0,0-5.6,2.5A35.4,35.4,0,0,0,89,98.3a33.8,33.8,0,0,0,3.1,3.5,4.4,4.4,0,0,1,3-4.2A25.3,25.3,0,0,1,92.9,95,30.2,30.2,0,0,1,88.4,66.3Z" fill="#fefefe" opacity="0.28" style="mix-blend-mode:multiply"/><path d="M88.4,66.2A30.2,30.2,0,0,1,103,49.5c-1.1-.7-3.1-2.1-3.3-3.8A35.4,35.4,0,0,0,89,98.2a4.3,4.3,0,0,1,3.9-3.3A30.5,30.5,0,0,1,88.4,66.2Z" fill="#fefefe" opacity="0.28" style="mix-blend-mode:multiply"/><path d="M91.5,67.9c2.4-9.4,8.2-17.9,13.6-24.2A33.9,33.9,0,0,0,90,97.8a15,15,0,0,1-.2-2.2A82.9,82.9,0,0,1,91.5,67.9Z" fill="#fefefe" style="mix-blend-mode:multiply"/><path d="M90,115.7c1.4.9,2.6-1.2,1.3-2.2-6.1-5.2-15.1-17.3-16.8-29.4-2.4-18.4,9.1-37,21.2-44.2S83.9,36,74.4,52.7s-8,32.2-1.8,43.7S83.2,111.4,90,115.7Z" opacity="0.49" fill="url(#j)" style="mix-blend-mode:screen"/><path d="M91.3,66.7C85.7,82.5,94.7,100,111.4,106a32.3,32.3,0,0,1-5.1-1.4C89.6,98.7,80.6,81.1,86.2,65.3c4.5-12.6,17.1-20.2,30.5-19.6.2,5.6-.2-4.2,0,1.5C105.3,48.5,95.3,55.7,91.3,66.7Z" fill="#fefefe" style="mix-blend-mode:multiply"/><path d="M105.5,109.6a34.7,34.7,0,0,1-10.3-5.8,34.8,34.8,0,0,0,4.8,2.1c18.1,6.5,39.8-2,46.2-20.1,5.1-14.3-1.3-30.7-12.5-39.8a34.9,34.9,0,0,1-28.2,63.6Z" opacity="0.47" fill="url(#k)" style="mix-blend-mode:screen"/><path d="M131.4,104.1A48.4,48.4,0,0,0,143,92.4c5.1-7.4,4-15.5,5.8-16.2s3.1,6.1.2,12.9-5.1,9.3-9.4,12.7S130.9,104.9,131.4,104.1Z" fill="url(#l)" style="mix-blend-mode:screen"/><path d="M145.8,86.7a30.5,30.5,0,0,0-18.1-38.8h-.4a30.2,30.2,0,0,0-23.8,1.5l-2.6,1.4a48.3,48.3,0,0,1,13.4,12.4c9.1,12.1,11.3,33.5,11.9,42.5l1.9-.7A30.3,30.3,0,0,0,145.8,86.7Z" fill="#fefefe" opacity="0.49" style="mix-blend-mode:multiply"/><path d="M145.8,86.7a30.5,30.5,0,0,0-18.1-38.8h-.4a30.5,30.5,0,0,0-21.9.6,8.2,8.2,0,0,0-1.9.9c5.5,3.8,13.3,10.2,17.5,18.3,7.7,14.8,7.3,32.9,7.1,37.3a20.6,20.6,0,0,0,2.6-1.2A30.2,30.2,0,0,0,145.8,86.7Z" fill="#fefefe" opacity="0.49" style="mix-blend-mode:multiply"/><path d="M145.8,86.7a30.5,30.5,0,0,0-18.1-38.8h-.4a30.3,30.3,0,0,0-19.5-.3,23.4,23.4,0,0,0-2.4.9c5.6,3.8,13.8,10.4,18.1,18.7,7.4,14.2,7.4,31.3,7.2,36.6l2.7-1.5A30.5,30.5,0,0,0,145.8,86.7Z" fill="#fefefe" opacity="0.49" style="mix-blend-mode:multiply"/><path d="M145.8,86.7a30.5,30.5,0,0,0-18.1-38.8h-.4a30.9,30.9,0,0,0-16.7-1.1l-2.8.8c5.6,3.8,14,10.4,18.4,18.9,7,13.5,7.3,29.7,7.2,35.8a28.3,28.3,0,0,0,2.8-2A30.2,30.2,0,0,0,145.8,86.7Z" fill="#fefefe" opacity="0.49" style="mix-blend-mode:multiply"/><path d="M145.8,86.7a30.5,30.5,0,0,0-18.1-38.8h-.4a29.9,29.9,0,0,0-12.1-1.7,34,34,0,0,0-4.6.6c5.5,3.8,14,10.5,18.4,19,6.6,12.6,7.3,27.6,7.2,34.5l2.4-2.1A30.4,30.4,0,0,0,145.8,86.7Z" fill="#fefefe" opacity="0.49" style="mix-blend-mode:multiply"/><path d="M145.8,86.7a30.5,30.5,0,0,0-18.1-38.8h-.4a30.5,30.5,0,0,0-8.8-1.7,18.2,18.2,0,0,0-3.3,0c5.4,3.9,12.3,9.9,16.1,17.4,6.7,12.7,7.3,27.8,7.3,34.6l1.9-2.1A32.6,32.6,0,0,0,145.8,86.7Z" fill="#fefefe" opacity="0.49" style="mix-blend-mode:multiply"/><path d="M145.8,86.7a30.5,30.5,0,0,0-18.1-38.8h-.4l-2.4-.7a28.4,28.4,0,0,0-6.4-1c5.1,3.9,11.2,9.5,14.8,16.4,6.2,12,7.2,26.3,7.2,33.5a38.1,38.1,0,0,0,2.9-4.1A41.2,41.2,0,0,0,145.8,86.7Z" fill="#fefefe" opacity="0.49" style="mix-blend-mode:multiply"/><path d="M145.8,86.7a30.5,30.5,0,0,0-16-37.9h0l-2.1-.9h-.4l-2.4-.7a48.1,48.1,0,0,1,11.3,13.5c5.7,10.9,7,23.6,7.2,31.3a35.5,35.5,0,0,0,2.1-4.4Z" fill="#fefefe" opacity="0.49" style="mix-blend-mode:multiply"/><path d="M145.8,86.7a30.5,30.5,0,0,0-16-37.9A45.5,45.5,0,0,1,138.5,60c4.8,9.2,6.5,19.8,7,27.5Z" fill="#fefefe" opacity="0.49" style="mix-blend-mode:multiply"/><path d="M165.2,93.5a51.4,51.4,0,0,0-28.7-64.9l-2.6-1-1.3-.5c-.4,1.7-.8,3.5-1.1,5.5-6.4,44.1-26.1,79.1-33.8,91.6l1.6.6,2.3.8A51.7,51.7,0,0,0,165.2,93.5Z" fill="#fefefe" opacity="0.49" style="mix-blend-mode:multiply"/><path d="M165.2,93.5a51.5,51.5,0,0,0-25.4-63.4l-3.3-1.5a40,40,0,0,0-1,5.4c-6.5,44-26.1,79.1-33.9,91.6l3.7,1A51.6,51.6,0,0,0,165.2,93.5Z" fill="#fefefe" opacity="0.49" style="mix-blend-mode:multiply"/><path d="M165.2,93.5A51.6,51.6,0,0,0,143,31.8l-3.2-1.7a41.2,41.2,0,0,0-1.1,5.7c-6.4,43.1-25.3,77.6-33.4,90.8l3.8.7A51.7,51.7,0,0,0,165.2,93.5Z" fill="#fefefe" opacity="0.49" style="mix-blend-mode:multiply"/><path d="M165.2,93.5a51.7,51.7,0,0,0-18.1-59L143,31.8a41.6,41.6,0,0,0-1,5.5c-6.3,42.2-24.6,76.2-32.9,90a40.5,40.5,0,0,0,4.9.4A51.4,51.4,0,0,0,165.2,93.5Z" fill="#fefefe" opacity="0.49" style="mix-blend-mode:multiply"/><path d="M165.2,93.5a51.6,51.6,0,0,0-14.5-56.1l-3.6-2.9c-.3,1.3-.5,2.6-.7,4-6.1,41.5-23.9,75.1-32.4,89.2h5.2A51.5,51.5,0,0,0,165.2,93.5Z" fill="#fefefe" opacity="0.49" style="mix-blend-mode:multiply"/><path d="M165.2,93.5a51.6,51.6,0,0,0-14.5-56.1c-.3,1.2-.5,2.5-.7,3.8-5.7,39.1-21.8,71.1-30.8,86.5A51.5,51.5,0,0,0,165.2,93.5Z" fill="#fefefe" opacity="0.49" style="mix-blend-mode:multiply"/><path d="M145.5,86.6a30.2,30.2,0,0,0-8.8-33,30.7,30.7,0,0,0-9.5-5.5l-.8-.2a8.3,8.3,0,0,0-2.1-.6,30.1,30.1,0,0,0-20.5,56.2l2.3,1,.9.4a31,31,0,0,0,15,1.3A30,30,0,0,0,145.5,86.6Z" opacity="0.21" fill="url(#m)" style="mix-blend-mode:screen"/><path d="M128.2,48.1a30.6,30.6,0,0,0-20.8,57.1l.4.2-.8-.3-1-.3-2.3-1a30.6,30.6,0,0,1,20.8-57.1l2.2.6.8.3,2.8,1.1Z" opacity="0.06" fill="url(#n)" style="mix-blend-mode:multiply"/><path d="M125.1,47.2a30.6,30.6,0,0,0-20.8,57.1l.4.2-.8-.3-.7-.2.8.2-.4-.2a30.5,30.5,0,0,1,20.8-57,8.3,8.3,0,0,1,2.1.6l-2.3-1h.2a13.9,13.9,0,0,1,2.8,1.2Z" opacity="0.3" fill="url(#o)" style="mix-blend-mode:multiply"/><path d="M145,86.3a28.8,28.8,0,0,0-17.4-36.7l-.8-.3-2-.5a28.7,28.7,0,0,0-19.6,53.6l2.2,1,.9.3A28.6,28.6,0,0,0,145,86.3Z" opacity="0.21" fill="url(#p)" style="mix-blend-mode:screen"/><g style="mix-blend-mode:multiply"><path d="M107.7,105.6h0Z" opacity="0.06" fill="url(#q)" style="mix-blend-mode:multiply"/><path d="M126.6,48.1h-.1a30.5,30.5,0,0,0-22.6,56.1h-.2a30.6,30.6,0,0,1,20.7-57.1l2.2.7.8.2,2.8,1.2-2.1-.6Z" opacity="0.06" fill="url(#r)" style="mix-blend-mode:multiply"/></g><path d="M103.1,101.9l2.3,1,1,.3a30.6,30.6,0,0,0,40.5-33.9,29.9,29.9,0,0,1-1,17.2,30.6,30.6,0,0,1-39.1,18.6l-1-.4-2.3-1A30.6,30.6,0,0,1,86.8,81.2,30.9,30.9,0,0,0,103.1,101.9Z" opacity="0.09" fill="url(#s)" style="mix-blend-mode:multiply"/><path d="M105,109a35.5,35.5,0,0,0,45.4-45.1,35.5,35.5,0,0,1-44,48.6A35.3,35.3,0,0,1,84.9,90.8,35.4,35.4,0,0,0,105,109Z" fill="#fafafa" opacity="0.27" style="mix-blend-mode:multiply"/><path d="M82,70.5a35.4,35.4,0,0,1,61.6-17A35.4,35.4,0,1,0,87.8,97,35.4,35.4,0,0,1,82,70.5Z" fill="#fafafa" opacity="0.23" style="mix-blend-mode:screen"/><path d="M143.9,86.4a28.5,28.5,0,1,0-36.5,17.3A28.6,28.6,0,0,0,143.9,86.4Zm-.1,0a28,28,0,1,1-17-35.8A28,28,0,0,1,143.8,86.4Z" opacity="0.35" fill="url(#t)" style="mix-blend-mode:screen"/><path d="M161.6,53.1c9.5,19.5,5.8,40.1-5.8,54.4,9.3-14.6,11.1-34.1.9-52.4a46.1,46.1,0,0,0-31.9-23c-20.5-4-38.4,3.8-49.4,17.2,9.9-15.5,28.3-25.4,49.8-22.5A48.1,48.1,0,0,1,161.6,53.1Z" opacity="0.02" fill="url(#u)" style="mix-blend-mode:multiply"/><path d="M101.4,71.2c-3.7,10.4.4,26.2-.1,26C91.5,93.7,88,78.7,91.9,67.5s16.5-21.1,26.3-17.6C118.8,50.1,105.2,60.6,101.4,71.2Z" opacity="0.38" fill="url(#v)" style="mix-blend-mode:screen"/><path d="M150,88.4a35.1,35.1,0,0,0-9.6-38.2,13.1,13.1,0,0,0-2.8,0,35.2,35.2,0,0,1,7.9,36.6,35.7,35.7,0,0,1-26,22.9,20.2,20.2,0,0,0,3.2,1.8A35.2,35.2,0,0,0,150,88.4Z" opacity="0.67" fill="url(#w)" style="mix-blend-mode:screen"/><path d="M136.3,103.8a1,1,0,0,1-.1-1.6,24.4,24.4,0,0,0,5.9-6.1,38.8,38.8,0,0,0,1.9-3.4,1,1,0,0,1,1.4-.4l.5.3a.9.9,0,0,1,.4,1.3c-1.1,2.1-4.3,7.5-8.8,10a1.3,1.3,0,0,1-1.2-.1Z" fill="#fff"/><path d="M147.3,89.5c-.7-.1-1.2-.7-.9-1.3a24.3,24.3,0,0,0,2.1-8.4,15.2,15.2,0,0,0-.1-4,1,1,0,0,1,1.1-1h.6a1.1,1.1,0,0,1,1.1,1c.1,2.4-.1,8.8-2.8,13.3a1,1,0,0,1-1.1.5Z" fill="#fff" opacity="0.95"/><path d="M67.3,89.7A51.6,51.6,0,0,0,168.7,76.5,48.9,48.9,0,0,0,166,60.2,51.5,51.5,0,0,1,67.3,89.7Z" opacity="0.02" fill="url(#x)" style="mix-blend-mode:multiply"/><path d="M189.4,126.6a2.7,2.7,0,0,1-2.2,1.3l-1.5.2a7.1,7.1,0,0,1-2.1-.3h-.2a3.6,3.6,0,0,1-1.4-1.1,6.4,6.4,0,0,1-.5-3.2c0-1.1.1-2.5.2-4.2L183,84.9V82h0a8.8,8.8,0,0,0-.3-2.4,9.2,9.2,0,0,0-2.4-4.7h0l-1-.8a2.8,2.8,0,0,1-1.2-2V66.7c0-.4.1-.8.1-1.1V62.2a4.1,4.1,0,0,0,.1-1.1c0-1.4.1-2.8.2-4.1a11.5,11.5,0,0,1,.1-1.9v-1c0-.1.1-.3.1-.4v-1a4.9,4.9,0,0,0,.1-1.2c.2-1.6.3-3.1.5-4.6v-.5a1.7,1.7,0,0,0,.1-.7c.1-.4.1-.8.2-1.2l.3-2a2.8,2.8,0,0,1,.1-.9h0c0-.3.1-.5.1-.8a49.4,49.4,0,0,1,1.6-6.8h0a11.4,11.4,0,0,1,.7-2.2,6.7,6.7,0,0,1,.7-1.7l.5-1.2c1-1.7,1.7-2.3,2.3-2.4a1.2,1.2,0,0,1,1.2.5h.1V76.4a14.8,14.8,0,0,0,.1,2.1v.9c0,1.3.1,2.6.1,4h0c.1,1.4.1,2.9.2,4.4l.3,5.7c.3,6.4.7,12.7,1,17.1C189.7,119.4,190.5,125,189.4,126.6Z" fill="url(#y)"/><path d="M189.2,126.4l-.3.4a3.3,3.3,0,0,1-1.7.8l-1.5.2a6.4,6.4,0,0,1-2-.3h-.2a2.3,2.3,0,0,1-1.2-1c-.1,0-.1-.1-.1-.2h0c-.4-.7-.4-2.1-.4-3.9s.1-1.9.2-3L183.4,82c0-.7-.1-1.3-.1-1.8l-.3-1.3h0a.4.4,0,0,1-.1-.3h0l-.2-.3a2.5,2.5,0,0,0-.4-.9V77a4.1,4.1,0,0,1-.5-.9l-.6-.8-.4-.4-.5-.5-.8-.6c0-.1-.1-.1-.1-.2a2.3,2.3,0,0,1-.9-1.9V67.6c.1-2.5.1-4.9.2-7.2h0c.1-2.4.2-4.7.4-6.8s.1-1.4.1-2.1h0q.3-2.8.6-5.4c.2-2.4.6-4.4.9-6.3s.3-1.5.5-2.2a8,8,0,0,1,.4-1.8,2.9,2.9,0,0,1,.2-.9,18.9,18.9,0,0,1,1-3.1h0c0-.1.1-.2.1-.4a16.7,16.7,0,0,1,1.1-2.3h0c.7-1.4,1.5-2.2,2.1-2.3h.6l.3.3V77.8h0v.6c.1.1.1.1.1.2v1.8a7.6,7.6,0,0,0,.1,1.5c0,1.4.1,2.8.1,4.3h0c.4,8.9,1,18.5,1.4,24.3.2,1.6.3,3.2.4,4.6C189.6,121.2,190,125.2,189.2,126.4Z" fill="url(#z)"/><path d="M187.1,80.5a13,13,0,0,0-4.4-2.4,7.9,7.9,0,0,0-2.4-3.7l-.8-.6c0-.1-.1-.1-.1-.2a2.3,2.3,0,0,1-.9-1.9c0-23.1,2.2-34.5,4.4-40.3a16.7,16.7,0,0,1,1.1-2.3c.8-1.5,1.6-2.3,2.2-2.3h.5l.3.3V78.5A12.7,12.7,0,0,1,187.1,80.5Z" opacity="0.5" fill="url(#aa)" style="mix-blend-mode:multiply"/><path d="M187.1,80.5s-2.2-4.2-4.8-3.3a13.1,13.1,0,0,0-.9-1.7l-1.1-1.1-.8-.6c0-.1-.1-.1-.1-.2a2.3,2.3,0,0,1-.9-1.9c0-23.1,2.2-34.5,4.4-40.3a16.7,16.7,0,0,1,1.1-2.3,6.3,6.3,0,0,1,1.6-2.1l.5-.2c0,5.5-.1,28.4,0,36.8A167.7,167.7,0,0,0,187.1,80.5Z" opacity="0.17" fill="url(#ab)" style="mix-blend-mode:multiply"/><path d="M185.6,27c-.2,6.8-.7,25.2-.7,36.6,0,8.4-.5,10.5-1.4,11.1s-1.3.3-2.1.8l-1.1-1.1-.8-.6c0-.1-.1-.1-.1-.2a2.3,2.3,0,0,1-.9-1.9c0-23.1,2.2-34.5,4.4-40.3a16.7,16.7,0,0,1,1.1-2.3,3,3,0,0,1,.7-1.1A3,3,0,0,1,185.6,27Z" opacity="0.17" fill="url(#ac)" style="mix-blend-mode:multiply"/><path d="M183.5,74.7c.1,2.3-.4,1.6-2.1.8l-1.1-1.1-.4-.3a.5.5,0,0,0-.4-.3c0-.1-.1-.1-.1-.2a2.3,2.3,0,0,1-.9-1.9c0-23.1,2.2-34.5,4.4-40.3l.3-.6a13.8,13.8,0,0,1,.8-1.7,3,3,0,0,1,.7-1.1c-.3,6.7-1.8,39.6-1.3,45.4A6.6,6.6,0,0,1,183.5,74.7Z" opacity="0.08" fill="url(#ad)" style="mix-blend-mode:multiply"/><path d="M183.2,30.8c-.3,5.9-.9,19.7-1.2,30.3-.1,7.2-1,11.2-2.1,13a.5.5,0,0,0-.4-.3c0-.1-.1-.1-.1-.2a2.3,2.3,0,0,1-.9-1.9c0-23.1,2.2-34.5,4.4-40.3Z" opacity="0.07" fill="url(#ae)" style="mix-blend-mode:multiply"/><path d="M187.1,78.7a4.2,4.2,0,0,0-1.6-.4,4.9,4.9,0,0,0-2.5.5.4.4,0,0,1-.1-.3h0l-.2-.3a2.5,2.5,0,0,0-.4-.9,7.5,7.5,0,0,0-2-2.8l-.8-.6c0-.1-.1-.1-.1-.2a2.3,2.3,0,0,1-.9-1.9c0-19.1,1.5-30.3,3.3-36.8,1.1,4.7,2.9,10.3,5.2,13.8V78.5C187.1,78.6,187.1,78.6,187.1,78.7Z" fill="url(#af)" style="mix-blend-mode:multiply"/><path d="M187,77.8a6.2,6.2,0,0,0-4.7-.8,10.2,10.2,0,0,0-2-2.6l-.8-.6c0-.1-.1-.1-.1-.2a2.3,2.3,0,0,1-.9-1.9c0-15,.9-25.1,2.2-31.9,1.3,3.7,3.4,8.4,6.3,10.7V77.8Z" opacity="0.73" fill="url(#ag)" style="mix-blend-mode:multiply"/><path d="M187,65.3V76.1c-1-.7-2.8-1.4-5.8-.8l-.9-.9-.8-.6c0-.1-.1-.1-.1-.2a2.3,2.3,0,0,1-.9-1.9c0-4.1.1-7.9.2-11.3C180.9,62.4,184,64.8,187,65.3Z" fill="url(#ah)" style="mix-blend-mode:multiply"/><path d="M187,47.3V73.7c-1.4-1.6-5.3-.8-7.9-3.5-.8-.8.8-15.2,0-16.6a117.8,117.8,0,0,1,1.6-13.8,40.4,40.4,0,0,1,1.1-4.9c.4-1.3.7-2.5,1.1-3.5a16.7,16.7,0,0,1,1.1-2.3,56.3,56.3,0,0,0,1.2,12C185.9,43.9,186.5,45.9,187,47.3Z" opacity="0.31" fill="url(#ai)" style="mix-blend-mode:multiply"/><path d="M187.3,27.1V52c-1.3-3.4-2.1-6.9-3.4-6.6s-4.1,5-5.1,8.3v-1a4.9,4.9,0,0,0,.1-1.2,14.9,14.9,0,0,0,.2-2.1l.3-2.5v-.5a1.7,1.7,0,0,0,.1-.7c.1-.4.1-.8.2-1.2l.3-2a2.8,2.8,0,0,1,.1-.9c0-.2.1-.5.1-.8a49.4,49.4,0,0,1,1.6-6.8h0a11.4,11.4,0,0,1,.7-2.2,6.7,6.7,0,0,1,.7-1.7l.5-1.2c1.9-3.5,3.2-2.3,3.5-1.9Z" opacity="0.15" fill="url(#aj)" style="mix-blend-mode:screen"/><path d="M187.3,27.1V49c-.8-2.3-1.9-5.2-3.3-5.5s-3.7,3.4-4.9,5.9l.3-2.5v-.5c0-.1,0-.1.1-.2v-.5c.1-.4.1-.8.2-1.2l.3-2a2.8,2.8,0,0,1,.1-.9c0-.2.1-.5.1-.8a49.4,49.4,0,0,1,1.6-6.8h0a11.4,11.4,0,0,1,.7-2.2,6.7,6.7,0,0,1,.7-1.7l.5-1.2c1.9-3.5,3.2-2.3,3.5-1.9Z" opacity="0.15" fill="url(#ak)" style="mix-blend-mode:screen"/><path d="M187.3,27.1v19c-.8-2-1.9-3.7-3.5-3.8s-3.3,2.3-4.3,3.9v-.5c.1-.4.1-.8.2-1.2l.3-2a2.8,2.8,0,0,1,.1-.9c0-.2.1-.5.1-.8a49.4,49.4,0,0,1,1.6-6.8h0a11.4,11.4,0,0,1,.7-2.2,6.7,6.7,0,0,1,.7-1.7l.5-1.2c1.9-3.5,3.2-2.3,3.5-1.9Z" opacity="0.15" fill="url(#al)" style="mix-blend-mode:screen"/><path d="M187.3,86.3h0a72.3,72.3,0,0,1-.8-12.2c.4-5.1,0-38-1.1-39.8s-2.8-.3-3.8,1.5a2.9,2.9,0,0,1,.2-.9c.4-1.3.7-2.5,1.1-3.5a16.7,16.7,0,0,1,1.1-2.3h0c.7-1.4,1.5-2.2,2.1-2.3h.6l.3.3V77.8h0v.6c.1.1.1.1.1.2v1.8a7.6,7.6,0,0,0,.1,1.5C187.2,83.4,187.3,84.8,187.3,86.3Z" opacity="0.12" fill="url(#am)" style="mix-blend-mode:screen"/><path d="M180.8,42.6s2.4-12.4,4.8-14.6c0,0,.6-.8.5,2.8s-.5,28.4-.5,28.4-.5-19.3-1.1-21.4S180.8,42.6,180.8,42.6Z" opacity="0.03" fill="url(#an)" style="mix-blend-mode:multiply"/><path d="M187.3,27.1v8.3a9.6,9.6,0,0,1-1.5,1.4c-2.7,1.8-1.9,8.6-2,11.6s1.1,10.3-.9,5.3a85.3,85.3,0,0,1-2.8-12.1c0-.3.1-.5.1-.8a49.4,49.4,0,0,1,1.6-6.8h0a11.4,11.4,0,0,1,.7-2.2,6.7,6.7,0,0,1,.7-1.7l.5-1.2c1.9-3.5,3.2-2.3,3.5-1.9Z" opacity="0.63" fill="url(#ao)" style="mix-blend-mode:screen"/><path d="M182.7,38.3c-1.5,8.6-3,23.9-2,36.8l-.3-.3h-.2l-.8-.7a2.8,2.8,0,0,1-1.2-2.3c0-28.3,3.4-38.7,5.5-42.8.9-1.6,1.6-2.2,2.2-2.4h.9A34.5,34.5,0,0,0,182.7,38.3Z" opacity="0.22" fill="url(#ap)" style="mix-blend-mode:screen"/><path d="M182.3,38a169.8,169.8,0,0,0-2.1,36.7l-.6-.5-.2-.2a2.8,2.8,0,0,1-1.2-2.3c0-28.3,3.4-38.7,5.5-42.8a4.8,4.8,0,0,1,1.9-2.2l.3-.2h.4A34.3,34.3,0,0,0,182.3,38Z" opacity="0.22" fill="url(#aq)" style="mix-blend-mode:screen"/><path d="M181.7,38a171,171,0,0,0-2.1,36.2l-.2-.2-.4-.3a3,3,0,0,1-.8-2c0-28.3,3.4-38.7,5.5-42.8a8.6,8.6,0,0,1,.7-1h0a2.7,2.7,0,0,1,1.2-1.2A34.9,34.9,0,0,0,181.7,38Z" opacity="0.22" fill="url(#ar)" style="mix-blend-mode:screen"/><path d="M181.2,38A172,172,0,0,0,179,73.7a3,3,0,0,1-.8-2c0-28.3,3.4-38.7,5.5-42.8a8.6,8.6,0,0,1,.7-1A34.2,34.2,0,0,0,181.2,38Z" opacity="0.22" fill="url(#as)" style="mix-blend-mode:screen"/><path d="M187,67.4v6.9c-.7-.3-1.5.1-2.8.2h-1.5a4.8,4.8,0,0,0-1.6.7l-.3-.4-.5-.5-.8-.6c0-.1-.1-.1-.1-.2a2.4,2.4,0,0,1-.9-1.8h0V68.4a9.5,9.5,0,0,1,2-1.1,8.4,8.4,0,0,1,2.9-.5A7.5,7.5,0,0,1,187,67.4Z" fill="url(#at)" style="mix-blend-mode:multiply"/><path d="M186.8,27.9l-.5,32.3.7,14.1s-4.2-13.2-4.5-22.9S184.8,24.9,186.8,27.9Z" opacity="0.64" fill="url(#au)" style="mix-blend-mode:multiply"/><path d="M187.2,75.5s-3.9-14.4-4.2-24.1,2-24.9,4-23.8l.3.3-.6,32.3.4,11.9Z" opacity="0.64" fill="url(#av)" style="mix-blend-mode:multiply"/><path d="M187.2,71.6c-1.2-4.3-3.4-13.2-3.6-20.4s1.6-21.8,3.4-23.6l.3.3h0l-.6,32.2.5,8.7Z" opacity="0.64" fill="url(#aw)" style="mix-blend-mode:multiply"/><path d="M187.2,30.6l-.5,29.6.3,4.4.2,4.3c-1.2-4.7-2.9-11.8-3-17.7-.3-7.8,1.4-20.2,3.1-23.2Z" opacity="0.64" fill="url(#ax)" style="mix-blend-mode:multiply"/><path d="M186.7,60.2l.3,4.4a73.6,73.6,0,0,1-2-13.3,87.6,87.6,0,0,1,2.2-20.7Z" opacity="0.64" fill="url(#ay)" style="mix-blend-mode:multiply"/><path d="M183,78.9h0a.4.4,0,0,1-.1-.3h0l-.2-.3v-.2a1.6,1.6,0,0,0-.4-.7V77a12.6,12.6,0,0,0-1.1-1.7l-.4-.4-.5-.5-.8-.6c0-.1-.1-.1-.1-.2a2.3,2.3,0,0,1-.9-1.9V67.6c.1-2.5.1-4.9.2-7.2s.1-1.9.1-2.9h0l.3-3.9c0-.7.1-1.4.1-2.1.5,5.7,1.4,14,3,17.8S184,77,183,78.9Z" opacity="0.64" fill="url(#az)" style="mix-blend-mode:multiply"/><path d="M182.7,77.9a1.6,1.6,0,0,0-.4-.7V77l-.4-.7-.7-1h-.1l-.3-.4-.5-.5-.8-.6c0-.1-.1-.1-.1-.2a2.4,2.4,0,0,1-.9-1.8h0V67.6c0-1.5.1-2.9.1-4.3s.1-2,.1-2.9.1-1.9.1-2.9a62,62,0,0,0,1.7,9.8,15.8,15.8,0,0,0,.8,2.8,19,19,0,0,1,1.4,4.5A18,18,0,0,1,182.7,77.9Z" opacity="0.64" fill="url(#ba)" style="mix-blend-mode:multiply"/><path d="M181.9,76.3l-.7-1-.4-.4-.4-.4h-.1l-.8-.6c0-.1-.1-.1-.1-.2a2.3,2.3,0,0,1-.9-1.9V67.6c0-1.5.1-2.9.1-4.3a35.2,35.2,0,0,0,1.9,7.9A16.4,16.4,0,0,1,181.9,76.3Z" opacity="0.64" fill="url(#bb)" style="mix-blend-mode:multiply"/><path d="M180.4,74.5h-.1l-.8-.6c0-.1-.1-.1-.1-.2a2.3,2.3,0,0,1-.9-1.9V68.6a17.3,17.3,0,0,0,1.1,3.6C179.9,73,180.2,73.8,180.4,74.5Z" opacity="0.64" fill="url(#bc)" style="mix-blend-mode:multiply"/><path d="M187,76.8l-.9-.5a8,8,0,0,0-4.3-.2l-.6-.8-.4-.4-.5-.5-.8-.6c0-.1-.1-.1-.1-.2a2.3,2.3,0,0,1-.9-1.9V67.6c0-1.7.1-3.4.1-5a16.2,16.2,0,0,0,.1-2.2c.3,1,.7,2.1,1.1,3.2,1.5,3.7,5.1,9.2,7.2,12.3v.8Z" fill="url(#bd)" style="mix-blend-mode:multiply"/><path d="M188.7,78.3c-.1,0-.1-.1-.2-.2Z" fill="url(#be)"/><path d="M187,76.8l-.9-.5a8,8,0,0,0-4.3-.2l-.6-.8-.4-.4-.5-.5-.8-.6c0-.1-.1-.1-.1-.2a2.3,2.3,0,0,1-.9-1.9V67.6c0-1.7.1-3.4.1-5a53.7,53.7,0,0,0,2.8,6.3c2.7,5,3.6,6.2,4.9,7.2l.7.6Z" opacity="0.64" fill="url(#bf)" style="mix-blend-mode:multiply"/><path d="M187.8,89.4l.2,4.1s-1.3-14.4-1.3-17.2.1-30.6.1-30.6.2-15,.1-17a2.5,2.5,0,0,0-.9-2.2,1.2,1.2,0,0,1,1.2.5h.1V76.4a14.8,14.8,0,0,0,.1,2.1v.9c0,1.3.1,2.6.1,4h0c.1,1.4.1,2.9.2,4.4S187.7,87.5,187.8,89.4Z" opacity="0.88" fill="url(#bg)" style="mix-blend-mode:multiply"/><path d="M185.6,28l.7,41.7s.3-39.2.6-41S185.2,27,185.6,28Z" opacity="0.24" fill="url(#bh)" style="mix-blend-mode:screen"/><path d="M184,56.7c-.1,1.6-2.5-5.6-4.2-10.6.2-2.4.6-4.4.9-6.3s.3-1.5.5-2.2C182.3,44.7,184.2,55.4,184,56.7Z" opacity="0.09" fill="url(#bi)" style="mix-blend-mode:screen"/><path d="M187,27.2V45.4a138.7,138.7,0,0,1-4.2-13.6h0c0-.1.1-.2.1-.4a16.7,16.7,0,0,1,1.1-2.3h0c.7-1.4,1.5-2.2,2.1-2.3h.6Z" opacity="0.06" fill="url(#bj)" style="mix-blend-mode:screen"/><path d="M178.6,68.1c.6-13.1,4.1-35.9,4.1-35.9-4.1,16.9-4.7,31.7-4.2,35.4A4.3,4.3,0,0,0,178.6,68.1Z" opacity="0.24" fill="url(#bk)" style="mix-blend-mode:screen"/><path d="M181.7,121.2v0Z" opacity="0.07" fill="url(#bl)" style="mix-blend-mode:multiply"/><path d="M189.2,126.4l-.3.4a3.4,3.4,0,0,1-1.6.6l-1.5.2a6.6,6.6,0,0,1-2.1-.3h-.2a2.2,2.2,0,0,1-1.3-1h0a4.8,4.8,0,0,1-.5-2.8,4.8,4.8,0,0,0,0-1.7,1.3,1.3,0,0,1,.1.6c1,4.2,6.2,3.6,6.6.6s-1.8-47.5-2.1-52.1a7.3,7.3,0,0,1,.7-4.3V77.8h0v.6c.1.1.1.1.1.2v1.8a7.6,7.6,0,0,0,.1,1.5c0,1.4.1,2.8.1,4.3h0c.4,8.9,1,18.5,1.4,24.3.2,1.6.3,3.2.4,4.6C189.6,121.2,190,125.2,189.2,126.4Z" opacity="0.07" fill="url(#bm)" style="mix-blend-mode:multiply"/><path d="M185.1,70.5s-2.3,49.1-2.6,52.4,1.7,4,2.9,4,1.2-6.4.8-14.9S185.7,69.1,185.1,70.5Z" opacity="0.14" fill="url(#bn)" style="mix-blend-mode:screen"/><path d="M186.2,70.5s2.3,49.1,2.5,52.4-1.6,4-2.9,4-1.1-6.4-.8-14.9S185.5,69.1,186.2,70.5Z" opacity="0.14" fill="url(#bo)" style="mix-blend-mode:screen"/><path d="M189.2,126.4l-.3.4a3.3,3.3,0,0,1-1.7.8l-1.5.2a6.4,6.4,0,0,1-2-.3h-.2a2.3,2.3,0,0,1-1.2-1c-.1,0-.1-.1-.1-.2h0c-.4-.7-.4-2.1-.4-3.9s.1-1.9.2-3l1.4-37.2h0c0-.7-.1-1.3-.1-1.8V80a4.3,4.3,0,0,0-.2-1.1h0a.4.4,0,0,1-.1-.3h0l-.2-.3a6.4,6.4,0,0,0-.2-.7c-.1-.1-.1-.2-.2-.2V77a4.1,4.1,0,0,1-.5-.9l-.4-.5-.2-.3-.4-.4-.5-.5-.8-.6c0-.1-.1-.1-.1-.2a2.3,2.3,0,0,1-.9-1.9V67.6c.1-2.5.1-4.9.2-7.2h0c.1-2.4.2-4.7.4-6.8s.1-1.4.1-2.1h0q.3-2.8.6-5.4c.2-2.4.6-4.4.9-6.3s.3-1.5.5-2.2a8,8,0,0,1,.4-1.8,2.9,2.9,0,0,1,.2-.9,18.9,18.9,0,0,1,1-3.1h0c0-.1.1-.2.1-.4a16.7,16.7,0,0,1,1.1-2.3h0c.7-1.4,1.5-2.2,2.1-2.3h.6l.3.3V76.4h0v1.4h0v2.6a7.6,7.6,0,0,0,.1,1.5v.6c0,1.2.1,2.4.1,3.7h0c.4,8.9,1,18.5,1.4,24.3.2,1.6.3,3.2.4,4.6C189.6,121.2,190,125.2,189.2,126.4Z" opacity="0.72" fill="url(#bp)" style="mix-blend-mode:soft-light"/><path d="M183.3,82.1h0a9.7,9.7,0,0,0-.1-1.8l-.3-1.3h0a.4.4,0,0,1-.1-.3h0l-.2-.3a1.4,1.4,0,0,0-.2-.7,19.8,19.8,0,0,1,4.5-1v1.4h0c0,.2.1.4.1.6v2c0,.5.1,1,.1,1.5v.6A13.7,13.7,0,0,0,183.3,82.1Z" opacity="0.57" fill="url(#bq)" style="mix-blend-mode:multiply"/><path d="M187.1,80.2a13.3,13.3,0,0,0-3.9-.2,4.3,4.3,0,0,0-.2-1.1h0a.4.4,0,0,1-.1-.3h0l-.2-.3a6.4,6.4,0,0,0-.2-.7c-.1-.1-.1-.2-.2-.2V77a4.1,4.1,0,0,1-.5-.9l-.4-.5a23.8,23.8,0,0,1,5.6-.5v1.3h0v1.4h0v2.3Z" fill="url(#br)" style="mix-blend-mode:multiply"/><path d="M59.6,61.9a4.3,4.3,0,0,0-.1.5,2.2,2.2,0,0,1-.5.8h-.1a8.7,8.7,0,0,0-1.4,1.2h0l-.3.3-.5.6v.4h-.1a3.6,3.6,0,0,1-.5.9,1.1,1.1,0,0,1-.1.5,6.5,6.5,0,0,1-.2,1.1c-.1,1.2-.2,3-.2,6,0,.4.1.8.1,1.3v.4h0c0,2.1.1,4.5.2,7,.4,9.3,1,20.5,1.6,27.3s1.4,13.3.7,15.4h0l-.3.5a3.1,3.1,0,0,1-2.3,1.3l-1.5.2a6.7,6.7,0,0,1-2.2-.4h-.2a3.3,3.3,0,0,1-1.5-1.1c-1.1-1.6-.3-7.1.4-15.9.6-6.7,1.2-17.8,1.6-27.1h0v-1c.1-1.9.2-3.8.2-5.5V75.7c0-.2.1-.4.1-.6a50.8,50.8,0,0,0-.3-6.9,3.5,3.5,0,0,0-.2-1.3v-.2h0l-.2-.4-.4-.7h0L50,64.3l-.5-.4-.8-.7a1.3,1.3,0,0,1-.5-1.3v-.8l.2-3.1h0V36.1a4.6,4.6,0,0,1,.5-2A.1.1,0,0,1,49,34h.1v4.2h0c.1,5.8.3,14.8.4,19.4.1,1.5.1,2.5.1,2.7s.9.8,2,1a12.4,12.4,0,0,0,4.3-.1,5,5,0,0,0,1.3-.3l.2-.2a.2.2,0,0,0,.2-.2,3.6,3.6,0,0,0,.4-.9.3.3,0,0,0,.1-.2,2.2,2.2,0,0,0,.1-.8c.1-.3.1-.8.2-1.3V55c-.1-.8,0-3.2,0-6s.2-9.7.3-13.3h0V34.1h0a.1.1,0,0,1,.1.1,4.6,4.6,0,0,1,.5,2V57.2l.2,2.8v1.9Z" fill="url(#bs)"/><path d="M58.7,34c-.1,3-.2,8.5-.3,13.1h0c0,3.6-.1,6.8,0,7.8,0,2.9-.1,4.4-.8,5.5s-7.7,1.3-8-.2V58.7a3.7,3.7,0,0,1-.1-1.1c-.1-3.3-.2-8.8-.3-13.9h0c0-3.9-.1-7.5-.1-9.4V34h.1a6.7,6.7,0,0,1,.5,1.9v2.2h0L50.2,57h0v.2h0v.6c0,.1,0,.1.1.2h.9a.1.1,0,0,0,.1-.1h.1a.1.1,0,0,1,.1-.1h0v-.8h0v-.4h0V54.7h0V53.1h0V51.9h0V51h0a.6.6,0,0,1,.1-.4V49.4h0V44.9h0V43.7h0v-2h0v-.3h0v-.6h0V35.6h0a.1.1,0,0,1,.1-.1v-.2h0v-.2h.1v-.2a.1.1,0,0,0,.1-.1v-.2a.1.1,0,0,0,.1-.1h.5v.2h.1v.2h0a.4.4,0,0,1,.1.3c0,.1,0,.1.1.2v.2h0v.8h0v3.1h0v3.4l.2,9v5h0v.4h0v.7H54a.1.1,0,0,0,.1-.1h.3a.1.1,0,0,0,.1-.1h0V56.7h0v-.4h0l.4-18.3h0v-2a4.5,4.5,0,0,1,.4-2h0a.1.1,0,0,0,.1-.1h.3c0,.1.1.1.1.2a.4.4,0,0,0,.1.3h0v.2h.1v.3h0v.3h0c0,.1.1.2.1.3v.4h0v7.9h0V54.7h0v3.2a.6.6,0,0,0,.1.4c.1,0,.1,0,.1.1h1V58h0v-.2h0V42h0v-.8h0v-.2h0v-.9h0v-.2h0v-.2h0A.1.1,0,0,0,58,39h0V37.1h0v-.4h0v-.3a4.5,4.5,0,0,1,.5-1.9h.2Z" fill="url(#bt)"/><path d="M59.3,61.9h0a.3.3,0,0,1-.1.2h0v.2h0c0,.1-.1.1-.1.2h0c0,.1-.1.1-.1.2h-.3l-.2.2h-.1c-.1,0-.1.1-.2.2h-.1c0,.1-.1.1-.2.2h-.5c0,.1-.1.1-.1.2h-.2l-.3.3h0a5.6,5.6,0,0,0-1,1.5c0,.1-.1.2-.1.3h0a13,13,0,0,0-.3,1.3h0c0,.2-.1.4-.1.6v.5a20.1,20.1,0,0,0-.1,2.6,2,2,0,0,0-.1.7v2.4h0a2.8,2.8,0,0,1,.1.9v.6a25.3,25.3,0,0,0,.1,2.7h0c.3,10.2,1.1,23.9,1.7,31.5.1,1.6.3,3.1.4,4.5.5,6,.9,9.9.1,11.1a2.8,2.8,0,0,1-2.1,1.2h-.1l-1.4.2a6.6,6.6,0,0,1-2.1-.3h-.2a2.4,2.4,0,0,1-1.4-1c-.8-1.2-.4-5.1.1-11.1.1-1.4.3-2.9.4-4.5.6-7.5,1.4-20.8,1.7-30.9h0a17.7,17.7,0,0,0,.1-2.3V75.7c.1-1.2.1-2.3.1-3.2s-.1-3.1-.2-4.2a13,13,0,0,0-.3-1.5,6.7,6.7,0,0,0-1.3-2h0l-.2-.2-.6-.6-.4-.4-.7-.5h-.1a1.2,1.2,0,0,1-.3-1V58.7h0v-.8h0V36.1a3.7,3.7,0,0,1,.3-1.5h0a.1.1,0,0,0,.1.1h0V34h.1a6.7,6.7,0,0,1,.5,1.9v2.2h0L50.2,57h0v.5c0,.1,0,.1.1.2h.9a.1.1,0,0,0,.1-.1h.1c0-.1,0-.1.1-.1h0v-.8h0v-.4h0V56h0v-.5h0v-.3h0v-2h0V51.9h0v-.5c0-.1.1-.2.1-.3h0V49.7h0v-1h0v-.2h0V44.9h0V43.7h0v-2h0v-.2h0v-.4h0V35.6c0-.1,0-.1.1-.1h0v-.2h0v-.2h.1v-.2h.1v-.2a.1.1,0,0,0,.1-.1h.6v.2h0a.4.4,0,0,1,.1.3v.2h0c.1,0,.1.1.1.2h0v.8h0v3.1h0v3.4l.2,7.6v6.8h0v.7H54a.1.1,0,0,0,.1-.1h.4V56.7h0v-.4h0l.4-16.1h0V37.9h0v-2a4.5,4.5,0,0,1,.4-2h0a.1.1,0,0,0,.1-.1h.3c0,.1.1.1.1.2a.4.4,0,0,0,.1.3h0v.2h.1v.3h0v.3h0c0,.1.1.2.1.3v.4h0v7.9h0V54.7h0v3.2a.4.4,0,0,0,.2.4h1V58h.1v-.2h0v-.8h0v-.2a.9.9,0,0,0,.1-.5h0V55h0v-.9h0v-2a.9.9,0,0,1,.1-.5V47.6c0-.1.1-.3.1-.4V44.1h0v-.7a2,2,0,0,0,.1-.7V41.1h0v-.2h0v-.9h0v-.2h0v-.2h0A.1.1,0,0,0,58,39h0V37.1h0v-.4h0v-.2h0a4.1,4.1,0,0,1,.5-1.9h.2a4.3,4.3,0,0,1,.1.5h0a.4.4,0,0,1,.1.3,2.8,2.8,0,0,0,.1.9h0V61.9Z" fill="url(#bu)"/><path d="M50.9,64.6a.1.1,0,0,1-.1.1A10.8,10.8,0,0,0,48.9,63a1.1,1.1,0,0,1-.4-1.1l.2-4.3V35.7a14.6,14.6,0,0,1,.4-1.7h0c0,4.5.2,25.7.2,26.3s-.7,1.3,0,2.5A7.9,7.9,0,0,0,50.9,64.6Z" fill="url(#bv)" style="mix-blend-mode:screen"/><path d="M49.7,38.3h0s-.3-1-.6-.1h0a19.6,19.6,0,0,0-.4,2.9q-.2,2.3-.3,6.6V36.1a4.6,4.6,0,0,1,.5-2c0-.1.1-.1.2-.1h.1a6.7,6.7,0,0,1,.5,1.9Z" fill="url(#bw)" style="mix-blend-mode:screen"/><path d="M50.1,57.6c-.5-3-.7-10.4-.8-17.4,0-.3-.2-3.9-.2-4.7V34h.1a6.7,6.7,0,0,1,.5,1.9v2.2h0S50.1,57.5,50.1,57.6Z" fill="url(#bx)" style="mix-blend-mode:multiply"/><path d="M49.5,35.2s-.2-.9-.4-.9-.7,26.6-.6,26.7,1-3.3,1.2-3.7-.1-15.3-.1-17S49.5,35.2,49.5,35.2Z" fill="url(#by)" style="mix-blend-mode:screen"/><path d="M50.6,58.5a1.3,1.3,0,0,1-1.1-.9c-.1-.5-.2-19.4-.3-21.8a5.1,5.1,0,0,0-.2-1.3c.1.1.1.1.1.2V34h.1a6.7,6.7,0,0,1,.5,1.9v2.2h0L50.2,57v.8c0,.1.1.2.1.3h0A.8.8,0,0,0,50.6,58.5Z" fill="url(#bz)" style="mix-blend-mode:multiply"/><path d="M53.3,58.2h1.1a.5.5,0,0,1-.5.3A.7.7,0,0,1,53.3,58.2Z" opacity="0.1" fill="url(#ca)" style="mix-blend-mode:multiply"/><path d="M56.9,58.5h0Z" opacity="0.1" fill="url(#cb)" style="mix-blend-mode:multiply"/><path d="M59.3,61.9h0a.3.3,0,0,1-.1.2h0v.2h0c0,.1-.1.1-.1.2h0c0,.1-.1.1-.1.2h-.3l-.2.2h-.1c-.1,0-.1.1-.2.2h-.1c0,.1-.1.1-.2.2h-.5c0,.1-.1.1-.1.2l-.2.2-.3.3a10.1,10.1,0,0,0-1,1.6c.1-.6.2-.8.3-.9a8.9,8.9,0,0,0,1-1.6c0-.1-.1-.2-.3-.1a20.8,20.8,0,0,1-5.2.1l-1.5-.3c-.1-.1-.2-.1-.2-.2s-.8-1.3-.8-2V34h.1a6.7,6.7,0,0,1,.5,1.9v2.2L50.2,57h0v.6c0,.1,0,.1.1.2h.9a.1.1,0,0,0,.1-.1h.2v-.8h0v-.3h0V56h0v-.5h0v-.4h0V53.1h0V51.9h0V51h0a.6.6,0,0,1,.1-.4v-.9h0v-.2h0v-.7h0V43.8h0V40.9h0v-.3h0V35.6h0a.1.1,0,0,1,.1-.1v-.2h0v-.2h.1v-.2a.1.1,0,0,0,.1-.1v-.2a.1.1,0,0,0,.1-.1h.5v.3h.1v.2h0a.4.4,0,0,1,.1.3c0,.1,0,.1.1.2v.2h0v3.9h0v3.4l.2,9v5.4h0v.7H54a.1.1,0,0,0,.1-.1h.3a.1.1,0,0,0,.1-.1h0V56.7h0v-.4l.4-18.3v-2a4.5,4.5,0,0,1,.4-2h0a.1.1,0,0,0,.1-.1h.3c0,.1.1.1.1.2a.4.4,0,0,0,.1.3h0v.2h.1v.6h0c0,.1.1.2.1.3v.4h0v7.9h0V54.7h0v3.2a.6.6,0,0,0,.1.4c.1,0,.1,0,.1.1h1V58h0V56.6h0v-.4c0-.2.1-.3.1-.5h0V54.1h0v-2a.9.9,0,0,1,.1-.5h0V44.2h0a1.7,1.7,0,0,1,.1-.7V42h0v-.8h0v-.2h0v-.9h0v-.2h0v-.2h0c0-.1,0-.1.1-.2h0V37.1h0v-.4h0v-.3a4.5,4.5,0,0,1,.5-1.9h.2a4.3,4.3,0,0,1,.1.5h0c0,.1.1.3.1.4s.1.8.1,1.2V61.9Z" opacity="0.12" fill="url(#cc)" style="mix-blend-mode:multiply"/><path d="M59.3,61.9h0a.3.3,0,0,1-.1.2h0v.2h0c0,.1-.1.1-.1.2h0c0,.1-.1.1-.1.2h-.3l-.2.2h-.1c-.1,0-.1.1-.2.2h-.1c0,.1-.1.1-.2.2h-.2c.1-.4,0-.8-.3-.7s-1.6.3-4.4.4-2.8-.4-3.3-1.2a4.7,4.7,0,0,1-.4-1.4V57.5c0-3.5-.1-8.9-.1-13.8h0V34.2h0a6.7,6.7,0,0,1,.5,1.9v2.2h0L50.2,57h0v.5c0,.1,0,.1.1.2h.9a.1.1,0,0,0,.1-.1h.2v-.8h0v-.4h0V56h0v-.5h0v-.4h0V53.1h0V51.9h0V51h0a.6.6,0,0,1,.1-.4v-.9h0v-.2h0V42.4h0v-.7h0v-.7h0v-.2h0V35.6h0a.1.1,0,0,1,.1-.1v-.2h0v-.2h.1v-.2a.1.1,0,0,0,.1-.1v-.2a.1.1,0,0,0,.1-.1h.5v.3h.1v.2h0a.4.4,0,0,1,.1.3v.2h0c.1,0,.1.1.1.2h0v.8h0v3.1h0v3.4l.2,9v5.4h0v.7H54a.1.1,0,0,0,.1-.1h.3a.1.1,0,0,0,.1-.1h0V56.7h0v-.4h0l.4-18.3h0v-2a4.5,4.5,0,0,1,.4-2h0a.1.1,0,0,0,.1-.1h.3c0,.1.1.1.1.2a.4.4,0,0,0,.1.3h0v.2h.1v.3h0v.3h0c0,.1.1.2.1.3v.4h0v7.9h0V54.7h0v3.2a.6.6,0,0,0,.1.4c.1,0,.1,0,.1.1h1V58h0v-.2h0v-.8h0v-.5h0c0-.1.1-.7.1-.9h0V55h0v-.9h0v-2a.9.9,0,0,1,.1-.5h0V44.2h0a1.7,1.7,0,0,1,.1-.7V42h0v-.8h0v-.2h0v-.9h0v-.2h0v-.2h0c0-.1,0-.1.1-.2h0V37.1h0v-.4h0v-.3a4.5,4.5,0,0,1,.5-1.9h.2a4.3,4.3,0,0,1,.1.5h0c0,.1.1.3.1.4s.1.8.1,1.2V61.9Z" opacity="0.08" fill="url(#cd)" style="mix-blend-mode:multiply"/><path d="M59.3,61.9a1.8,1.8,0,0,1-.4,1c-.3-.4-1.6.1-5.4.3a7.7,7.7,0,0,1-3.8-.8,4.7,4.7,0,0,1-.4-1.4V57.5h.4l.5-.4a2.2,2.2,0,0,1-.1.6c0,.1.1.2.1.3h0l.4.3h.3a1.2,1.2,0,0,0,.5-.5h0V56h.1s.4,3.1.9,1.6.2-21.8.2-22.4.1,1.8.2,4.1h0l.4,17.4v1.1c0,.1.1.2.1.3h0a.7.7,0,0,0,.6.3H54l.3-.2h.1c1-1.2,1.7-22.7,1.7-23v1.1h0V57.9a.6.6,0,0,0,.6.6.6.6,0,0,0,.6-.3c.8-.3,1.2-20.6,1.3-23.7h0c0,.1.1.3.1.4s.1.8.1,1.2V58.7Z" opacity="0.08" fill="url(#ce)" style="mix-blend-mode:multiply"/><path d="M56.3,65.7a4.7,4.7,0,0,0-.6.9,14.2,14.2,0,0,0-.4,2c-.1,1-.1,2.3-.2,3.8s0,2.1.1,3.3V79a7.5,7.5,0,0,0-.6-2.9c-.8-1.4-2.1,3.2-2.2,3.5.1-1.4.1-2.7.1-3.9s.1-2.3.1-3.2-.1-3.1-.2-4.2a13,13,0,0,0-.3-1.5,6.7,6.7,0,0,0-1.3-2h0l-.2-.2a18.2,18.2,0,0,0,4,.2c.4,0,1.6-.3,1.8.3A.9.9,0,0,1,56.3,65.7Z" opacity="0.08" fill="url(#cf)" style="mix-blend-mode:multiply"/><path d="M59.3,61.9a1.8,1.8,0,0,1-.4,1h-.1l-1,.8h0l-.5.5v-.6c-.2-1.4-1.7-.1-4.5-.8s-1.7-1.9-.7-3.4.8-4.4.9-6.4a11.6,11.6,0,0,0,.1-1.3v6.1c0,.1.1.2.1.3h0a.7.7,0,0,0,.6.3H54l.3-.2h.1c.1-.1.1-.2.1-.4V55.1h0V53.2l1.2,1.1.5.4h0v3.2a.6.6,0,0,0,.6.6c.1,0,.2,0,.2-.1h.3l.5.6a15.9,15.9,0,0,0,1.3,1.3v1.7Z" opacity="0.13" fill="url(#cg)" style="mix-blend-mode:multiply"/><path d="M59.3,61.9a1.8,1.8,0,0,1-.4,1h-.1l-1,.8a1,1,0,0,0-.5-.9c-.9-.7-2.9.3-4.8-.6s-.7-1.3,0-2.8.5-3.6.5-6.4a11.6,11.6,0,0,0,.1-1.3v6.1c0,.1.1.2.1.3h0a.7.7,0,0,0,.6.3H54l.3-.2h.1c.1-.1.1-.2.1-.4V55.1c.3,1.6.6,2.9.9,1.9s.7-3.2.8-4.3v2h0v3.2a.6.6,0,0,0,.6.6c.1,0,.2,0,.2-.1s1.5,1.8,2.1,2.8Z" opacity="0.13" fill="url(#ch)" style="mix-blend-mode:multiply"/><path d="M59.3,61.9a1.8,1.8,0,0,1-.4,1h-.1l-.7.5a1.6,1.6,0,0,0-.6-.9c-.9-.6-2.2-.3-3.6-.3s-2-1.1-1.2-1.8a5.2,5.2,0,0,0,.7-2.2l.5.2H54l.3-.2h.1c.1-.1.1-.2.1-.4v-.9a5.4,5.4,0,0,1,1.8,0h0v.9a.6.6,0,0,0,.6.6c0,.8.7,1.4,1.3,2Z" opacity="0.13" fill="url(#ci)" style="mix-blend-mode:multiply"/><path d="M57.6,55.2c0,.3-.1.6-.1.9S57.6,55.4,57.6,55.2Z" opacity="0.47" fill="url(#cj)" style="mix-blend-mode:multiply"/><path d="M59.6,61.9a1.6,1.6,0,0,1-.6,1.3h-.1a.4.4,0,0,1-.1-.3,3.8,3.8,0,0,0-1.6-2.1h-.3a2.4,2.4,0,0,1-1.1-2.6c.2-.5.4-5.3.4-5.3h0v1.7h0v3.2a.6.6,0,0,0,.6.6h0l.5-.2h.1c0-.1.1-.2,0-.4h0v-.2h0v-.8c.5-.6.7-3.9.9-7.8.3-6.7.3-15,.3-15a.1.1,0,0,1,.1.1,4.6,4.6,0,0,1,.5,2V57.2Z" fill="url(#ck)" style="mix-blend-mode:multiply"/><path d="M59.5,62.4c0,.1,0,.1-.1.2a.9.9,0,0,1-.4.6h-.1a9.8,9.8,0,0,0-2.5,2.6H56a11.2,11.2,0,0,1-4.4-.2h-.1l-.4-.2h0a10.7,10.7,0,0,0-2.4-2.4,1.4,1.4,0,0,1-.5-1.1c-.1-.1-.1-.2,0-.2v-.2h.3a5,5,0,0,0,1.6-.2l1.5-.3a10.4,10.4,0,0,1,4.3-.1l.5.2a9.9,9.9,0,0,0,2.8.9Z" opacity="0.08" fill="url(#cl)" style="mix-blend-mode:multiply"/><path d="M59.4,62.6a.9.9,0,0,1-.4.6h-.1a9.8,9.8,0,0,0-2.5,2.6H56a11.2,11.2,0,0,1-4.4-.2h-.1l-.4-.2h0a10.7,10.7,0,0,0-2.4-2.4,1.4,1.4,0,0,1-.5-1.1,6,6,0,0,0,2.9-.2c1.7-.8,4.9-.5,5.7.1A3.3,3.3,0,0,0,59.4,62.6Z" opacity="0.08" fill="url(#cm)" style="mix-blend-mode:multiply"/><path d="M50.2,57.3Z" opacity="0.3" fill="url(#cn)" style="mix-blend-mode:multiply"/><path d="M59.3,61.9h0a.3.3,0,0,1-.1.2h0v.2h0c0,.1-.1.1-.1.2h0c0,.1-.1.1-.1.2h-.3l-.2.2h-.1c-.1,0-.1.1-.2.2h-.1c0,.1-.1.1-.2.2h-.2c-.1,0-.1,0-.1.1h-.2l-.3-.2c-.5-.1-1,.5-1.7.7s-2.1,1.3-3.8-.7a2.5,2.5,0,0,0-1.7-.5h-.3l-.7-.5h-.1a2.1,2.1,0,0,1-.6-1.8V58.6h1.3a.9.9,0,0,0,.6-.6h.9a.1.1,0,0,0,.1-.1h.1c0-.1,0-.1.1-.1h0v-.8h0v-.3h0c0,.1,0,.1.1.1l.2.3.2.3h.3c.1-.1.1-.3.1-.7s-.1-15.5-.2-20.9v-2h.3v.3h.1v.2h0a.4.4,0,0,1,.1.3v.2h0c.1,0,.1.1.1.2h0v.8h0v3.1h0v3.4l.2,7.6v6.8h0v.7H54a.1.1,0,0,0,.1-.1h.3a.1.1,0,0,0,.1-.1h0V56.7h0v-.4l.3.8c.3.7.5.6.4-.1a18.8,18.8,0,0,1-.1-3.1c.1-5.7.3-17.5.3-19.9h0a.1.1,0,0,0,.1-.1h.3c0,.1.1.1.1.2a.4.4,0,0,0,.1.3h0v.2h.1v.3h0v.3h0c0,.1.1.2.1.3v.4h0v7.9h0V54.7h0v3.2a.6.6,0,0,0,.1.4c.1,0,.1,0,.1.1h1V58h0v-.2h0v-.8h0v-.4h0v-.2c0-.2.1-.3.1-.5h0V55h0v-.9h0v-2a.9.9,0,0,1,.1-.5V44.1h0a1.7,1.7,0,0,1,.1-.7V41.1h0v-.2h0v-.9h0v-.2h0v-.2h0A.1.1,0,0,0,58,39h0V37.1h0v-.4h0v-.3a4.5,4.5,0,0,1,.5-1.9h.2a4.3,4.3,0,0,1,.1.5h0c0,.1.1.3.1.4s.1.8.1,1.2V61.9Z" opacity="0.04" fill="url(#co)" style="mix-blend-mode:multiply"/><path d="M52.3,76.5a.4.4,0,0,1-.1.3v-1h0c0-.2.1-.4.1-.6v-.7c0-4.8-.3-6.8-.5-7.5s-.1-.1-.1-.2h0l-.2-.4-.4-.7h0a10.7,10.7,0,0,0-2.4-2.4,1.3,1.3,0,0,1-.5-1.3v-.2h0v-.5c.3.6.8,1.4,1.5,1.5s2.6.3,2.6.7-.9.5-1.2.6,1.1,1.5,1.4,2.9A46.6,46.6,0,0,1,52.3,76.5Z" opacity="0.33" fill="url(#cp)" style="mix-blend-mode:multiply"/><path d="M59.6,61.9a4.3,4.3,0,0,0-.1.5,2.2,2.2,0,0,1-.5.8h-.1a9.8,9.8,0,0,0-2.5,2.6,3.6,3.6,0,0,1-.5.9,21.7,21.7,0,0,0-.4,3.4c-.1,1.1-.1,2.4-.1,4.2s.1.8.1,1.3v.4a9.3,9.3,0,0,1-.4-1.3c0-.1,0-.5.1-3.1V69.6c0-5.2,1.4-5,1.2-5.5s0-.2-.1-.2h-.2c-.5-.3-1.6-.3-.9-.4s1.6.4,2.5-.5.2-1.4-.3-2.2-.1-.2-.2-.3a3.6,3.6,0,0,1-1.3-2.2h0V57.1a12.3,12.3,0,0,1,.4-2.4v3.2a.6.6,0,0,0,.6.6h0l1.2.9,1.1,1,.3.4v1Z" opacity="0.41" fill="url(#cq)" style="mix-blend-mode:multiply"/><path d="M52.4,71.7a20.2,20.2,0,0,0-.1,2.7c0-1.7,0-3.1-.1-4.2h0a19.8,19.8,0,0,0-.4-3.3c0-.1-.1-.1-.1-.2h0l-.2-.4-.4-.7h0a10.7,10.7,0,0,0-2.4-2.4,1.4,1.4,0,0,1-.5-1.1c-.1-.1-.1-.2,0-.2v-.2h0a2.5,2.5,0,0,0,1.3,1.2c1,.3,2,.2,2.3.4s.5.2,0,.4-1,.2-1,.4.8,1.1,1.3,2.1A21.1,21.1,0,0,1,52.4,71.7Z" opacity="0.37" fill="url(#cr)" style="mix-blend-mode:multiply"/><path d="M52.2,70.2a19.8,19.8,0,0,0-.4-3.3c0-.1-.1-.1-.1-.2h0l-.2-.4-.4-.7h0a10.7,10.7,0,0,0-2.4-2.4,1.4,1.4,0,0,1-.5-1.1,1.9,1.9,0,0,0,.8.7,8.1,8.1,0,0,0,2.5.5c.3,0,.3.2-.4.3s-.7.3-.4.7a11.1,11.1,0,0,1,1.4,2.5A20.8,20.8,0,0,1,52.2,70.2Z" opacity="0.37" fill="url(#cs)" style="mix-blend-mode:multiply"/><path d="M59.6,61.9a4.3,4.3,0,0,0-.1.5,2.2,2.2,0,0,1-.5.8h-.1a9.8,9.8,0,0,0-2.5,2.6,3.6,3.6,0,0,1-.5.9,21.7,21.7,0,0,0-.4,3.4h0a26.5,26.5,0,0,1,0-2.9,6.1,6.1,0,0,1,.8-2.6c.3-.4.5-.5,0-.8h-.2c-.4-.2-.7-.2-.6-.3a5.4,5.4,0,0,0,1.3,0,1.2,1.2,0,0,0,1.4-1.1,2.4,2.4,0,0,0-.9-2.1,7.4,7.4,0,0,1-1.4-2.1h0c0-.1,0-1.2.1-.4s1.9,1.6,3,2.8a1.7,1.7,0,0,1,.5,1.2Z" opacity="0.41" fill="url(#ct)" style="mix-blend-mode:multiply"/><path d="M51.8,58.2c-.1.8-1.5,2.3-1.2,3.2s.4,1.2-.2,1.2-1.5-.7-1.4-2.1,1-10.1,1-10.4l.2,6.9v.2h0a2,2,0,0,1-.1.5c0,.1.1.2.1.3h0l.4.3h.3a1.2,1.2,0,0,0,.5-.5h0v-4h0A33.2,33.2,0,0,1,51.8,58.2Z" opacity="0" fill="url(#cu)" style="mix-blend-mode:multiply"/><path d="M51.3,59.3s-.9,2-.7,2.6-.4.9-1,.3-.3-2,.2-2.4S51.6,58.6,51.3,59.3Z" opacity="0.23" fill="url(#cv)" style="mix-blend-mode:screen"/><path d="M59.6,61.9a4.3,4.3,0,0,0-.1.5,2.2,2.2,0,0,1-.5.8h-.1a8.7,8.7,0,0,0-1.4,1.2h0l-.3.3-.5.6v.4h-.1l.4-1,.3-.6h0a2.7,2.7,0,0,1,.7-.8c.9-.5.9-1.1.9-1.9a3.7,3.7,0,0,0-.7-2,1.4,1.4,0,0,0-.3-.5c0-.2.1-.6.5-.5l.5.3a1.1,1.1,0,0,1,.4.5,2.1,2.1,0,0,0,.4.6v1.9Z" opacity="0.23" fill="url(#cw)" style="mix-blend-mode:screen"/><path d="M56.2,60.2s-2.3-.5-3.3.1a1.3,1.3,0,0,0,.2,2.3c.9.3-1.4.5-2.5,0s-.9-2.6.5-3.1,3.7-.3,3.9-.9.6-.6.8.1.9,1.2,1.1,1.5S56.4,60.3,56.2,60.2Z" opacity="0.04" fill="url(#cx)" style="mix-blend-mode:screen"/><path d="M52.2,36.5c0,.9.2,10.2.3,15.9h0V57c0,.1-.1.2-.1.3v.2l-.3.5a.1.1,0,0,0-.1.1c-.2.1-.4,0-.6-.4v-.6h0v-.4h0V56h0v-.5h0v-.4h0v-.2h0V53.1h0V51.9h0V51h0a.6.6,0,0,1,.1-.4v-.9h0v-1h0v-.2h0V44.9h0V43.7h0v-2h0v-.2h0v-.4h0v-.2h0V35.6h0a.1.1,0,0,1,.1-.1v-.2h0v-.2h.1v-.2a.1.1,0,0,0,.1-.1v-.2a.1.1,0,0,0,.1-.1h.5v.3h.1v.2h0a.4.4,0,0,1,.1.3v.2s-.1-.1-.3.4h0C52.3,35.9,52.2,36.1,52.2,36.5Z" fill="url(#cy)" style="mix-blend-mode:screen"/><path d="M58.8,34.7a105.9,105.9,0,0,1-.5,22.1c-.2,1.2-.6.7-.7.3a.8.8,0,0,0-.1-.4v-.6c0-.3.1-.7.1-1.1h0c.1-5.1.4-18.9.4-18.9a4.5,4.5,0,0,1,.5-1.9h.2a4.3,4.3,0,0,1,.1.5h0Z" opacity="0.12" fill="url(#cz)" style="mix-blend-mode:screen"/><path d="M58.5,34.1c0,3-.2,17-.3,19.7-.3,4.4-.6,1.6-.6,1.2h0c.1-5.1.4-18.9.4-18.9a4.5,4.5,0,0,1,.5-1.9Z" opacity="0.12" fill="url(#da)" style="mix-blend-mode:screen"/><path d="M53.4,58.3h0a1.4,1.4,0,0,1-.2.6c0,.1-.1.3-.1.4s-1.4,1.2-2,.4a2.1,2.1,0,0,1-.4-1.2h.4a.1.1,0,0,0,.1-.1h.1c0-.1,0-.1.1-.1h0c.5.9,1.1.7,1.2.1h0c.1-.4,0-1.8,0-3.6a12.7,12.7,0,0,1-.1-2h0c-.1-2-.2-4.2-.2-5.5v-.5a8.2,8.2,0,0,0-.1-1.4V37.1h0V35.8a9.2,9.2,0,0,1-.1-1.5h0v-.5h.3v.2h.1v.2h0a.4.4,0,0,1,.1.3v.2h0c.1,0,.1.1.1.2h0v.8h0v3.1h0v3.4l.2,7.6v6.8h0v.7h.2Z" fill="url(#db)" style="mix-blend-mode:multiply"/><path d="M53.8,58.5h0a.7.7,0,0,1-.5.4h-.1c-.3,0-.4-.4-.5-.9V56.7c0-.4,0-3.5-.1-7.2V45.1h0c-.1-4-.2-7.8-.3-9.3h0v-.5h0v-.6c-.1-.1-.1-.2-.2-.2h-.3v-.2a.1.1,0,0,0,.1-.1h.5v.2h.1v.2h0a.4.4,0,0,1,.1.3v.2h0c.1,0,.1.1.1.2h0v.8h0v3.1h0v3.4l.2,7.6v6.8h0v.7h.6Z" fill="url(#dc)" style="mix-blend-mode:multiply"/><path d="M52.7,35.9h-.1c0-.2-.1-.3-.3-.2h-.2v.3a15.7,15.7,0,0,0-.3,1.6c-.2,1.5-.3,3.5-.3,3.9h0v-.7h0v-.3h0V37.1h0V35.6h0a.1.1,0,0,1,.1-.1v-.2h0v-.2h.1v-.2a.1.1,0,0,0,.1-.1v-.2a.1.1,0,0,0,.1-.1h.5v.3h.1v.2h0a.4.4,0,0,1,.1.3h0c0,.1,0,.1.1.2v.2h0v.5Z" opacity="0.71" fill="url(#dd)" style="mix-blend-mode:screen"/><path d="M52.6,35c-.1-.2-.3-.2-.5-.1s-.5,1.5-.6,2.2V35.6h0a.1.1,0,0,1,.1-.1v-.2h0v-.2h.1v-.2a.1.1,0,0,0,.1-.1v-.2a.1.1,0,0,0,.1-.1h.5v.3h.1v.2h0A.4.4,0,0,1,52.6,35Z" opacity="0.71" fill="url(#de)" style="mix-blend-mode:screen"/><g style="mix-blend-mode:multiply"><g clip-path="url(#df)"><rect x="48.1" y="33.8" width="11.4" height="30.65" fill="#e6e6e6"/><path d="M61.5,60.5c0,2.3-2.9,4.2-6.4,4.2s-6.5-1.8-6.5-4,2.8-4.2,6.4-4.2S61.4,58.3,61.5,60.5Z" fill="#e6e6e6"/><path d="M61.4,60.5c0,2.3-2.8,4.1-6.3,4.2s-6.4-1.8-6.5-4,2.8-4.1,6.4-4.2S61.4,58.3,61.4,60.5Z" fill="#e5e5e5"/><path d="M61.4,60.5c0,2.2-2.8,4.1-6.3,4.1s-6.4-1.7-6.4-3.9,2.8-4.1,6.3-4.1S61.3,58.3,61.4,60.5Z" fill="#e4e4e4"/><ellipse cx="55" cy="60.6" rx="6.3" ry="4" transform="translate(-0.8 0.7) rotate(-0.7)" fill="#e3e3e3"/><path d="M61.3,60.5c0,2.2-2.8,4-6.2,4.1s-6.3-1.7-6.3-3.9,2.7-4,6.2-4.1S61.2,58.3,61.3,60.5Z" fill="#e2e2e2"/><path d="M61.2,60.5c.1,2.2-2.7,4-6.1,4.1s-6.3-1.7-6.3-3.9,2.7-4,6.2-4.1S61.2,58.3,61.2,60.5Z" fill="#e1e1e1"/><path d="M61.2,60.5c0,2.2-2.7,4-6.1,4s-6.2-1.7-6.2-3.8,2.7-4,6.1-4S61.2,58.4,61.2,60.5Z" fill="#e0e0e0"/><path d="M61.1,60.5c.1,2.2-2.7,4-6,4s-6.2-1.7-6.2-3.8,2.7-4,6.1-4S61.1,58.4,61.1,60.5Z" fill="#dfdfdf"/><path d="M61.1,60.5c0,2.2-2.7,3.9-6,4S49,62.8,49,60.7s2.6-3.9,6-4S61.1,58.4,61.1,60.5Z" fill="#dedede"/><path d="M61,60.5c.1,2.1-2.6,3.9-5.9,3.9S49,62.8,49,60.7s2.6-3.9,6-3.9S61,58.4,61,60.5Z" fill="#ddd"/><path d="M61,60.5c0,2.1-2.6,3.9-5.9,3.9s-6-1.6-6.1-3.7,2.7-3.9,6-3.9S61,58.4,61,60.5Z" fill="#dcdcdc"/><path d="M61,60.5c0,2.1-2.7,3.8-5.9,3.9s-6-1.6-6-3.7,2.6-3.8,5.9-3.9S60.9,58.4,61,60.5Z" fill="#dbdbdb"/><path d="M60.9,60.5c0,2.1-2.6,3.8-5.8,3.8s-5.9-1.6-6-3.6,2.6-3.8,5.9-3.8S60.9,58.5,60.9,60.5Z" fill="#dadada"/><path d="M60.9,60.5c0,2.1-2.6,3.8-5.8,3.8s-5.9-1.6-5.9-3.6,2.6-3.8,5.8-3.8S60.8,58.5,60.9,60.5Z" fill="#d9d9d9"/><path d="M60.8,60.5c0,2.1-2.5,3.7-5.7,3.8s-5.8-1.6-5.9-3.6S51.8,57,55,56.9,60.8,58.5,60.8,60.5Z" fill="#d8d8d8"/><path d="M60.8,60.5c0,2-2.6,3.7-5.7,3.8s-5.8-1.6-5.8-3.6S51.8,57,55,56.9,60.7,58.5,60.8,60.5Z" fill="#d7d7d7"/><path d="M60.7,60.5c0,2-2.5,3.7-5.6,3.7s-5.7-1.5-5.8-3.5S51.8,57,55,57,60.7,58.5,60.7,60.5Z" fill="#d6d6d6"/><path d="M60.7,60.5c0,2-2.5,3.7-5.6,3.7s-5.7-1.5-5.7-3.5S51.9,57,55,57,60.6,58.5,60.7,60.5Z" fill="#d5d5d5"/><path d="M60.6,60.5c.1,2-2.4,3.6-5.5,3.7s-5.7-1.6-5.7-3.5S51.9,57.1,55,57,60.6,58.6,60.6,60.5Z" fill="#d4d4d4"/><path d="M60.6,60.5c0,2-2.5,3.6-5.5,3.6s-5.6-1.5-5.6-3.4,2.4-3.6,5.5-3.6S60.6,58.6,60.6,60.5Z" fill="#d3d3d3"/><path d="M60.5,60.5c.1,2-2.4,3.6-5.4,3.6s-5.6-1.5-5.6-3.4,2.4-3.6,5.5-3.6S60.5,58.6,60.5,60.5Z" fill="#d2d2d2"/><path d="M60.5,60.5c0,2-2.4,3.5-5.4,3.6s-5.5-1.5-5.5-3.4S52,57.2,55,57.1,60.5,58.6,60.5,60.5Z" fill="#d1d1d1"/><path d="M60.4,60.5c.1,1.9-2.3,3.5-5.3,3.6s-5.5-1.5-5.5-3.4S52,57.2,55,57.1,60.4,58.6,60.4,60.5Z" fill="#d0d0d0"/><path d="M60.4,60.5c0,1.9-2.4,3.5-5.3,3.5s-5.4-1.4-5.5-3.3S52,57.2,55,57.2,60.4,58.6,60.4,60.5Z" fill="#cfcfcf"/><ellipse cx="55" cy="60.6" rx="5.3" ry="3.4" transform="translate(-0.8 0.7) rotate(-0.7)" fill="#cecece"/><path d="M60.3,60.5c0,1.9-2.3,3.4-5.2,3.5s-5.3-1.5-5.4-3.3,2.4-3.4,5.3-3.5S60.3,58.7,60.3,60.5Z" fill="#cdcdcd"/><path d="M60.3,60.5c0,1.9-2.3,3.4-5.2,3.4s-5.3-1.4-5.3-3.2,2.3-3.4,5.2-3.4S60.2,58.7,60.3,60.5Z" fill="#ccc"/><path d="M60.2,60.5c0,1.9-2.3,3.4-5.1,3.4s-5.2-1.4-5.3-3.2,2.3-3.4,5.2-3.4S60.2,58.7,60.2,60.5Z" fill="#cbcbcb"/><path d="M60.2,60.5c0,1.8-2.3,3.3-5.1,3.4s-5.2-1.4-5.2-3.2,2.2-3.3,5.1-3.4S60.1,58.7,60.2,60.5Z" fill="#cacaca"/><ellipse cx="55" cy="60.6" rx="5.1" ry="3.2" transform="translate(-0.8 0.7) rotate(-0.7)" fill="#c9c9c9"/><path d="M60.1,60.5c0,1.8-2.2,3.3-5,3.3S50,62.4,50,60.7s2.2-3.3,5-3.3S60.1,58.8,60.1,60.5Z" fill="#c8c8c8"/><path d="M60,60.5c.1,1.8-2.2,3.3-4.9,3.3S50,62.4,50,60.7s2.2-3.3,5-3.3S60,58.8,60,60.5Z" fill="#c7c7c7"/><path d="M60,60.5c0,1.8-2.2,3.2-4.9,3.3s-5-1.4-5-3.1,2.1-3.2,4.9-3.3S60,58.8,60,60.5Z" fill="#c6c6c6"/><path d="M59.9,60.5c.1,1.8-2.1,3.2-4.8,3.2s-5-1.3-5-3,2.2-3.2,4.9-3.2S59.9,58.8,59.9,60.5Z" fill="#c5c5c5"/><path d="M59.9,60.5c0,1.7-2.1,3.2-4.8,3.2s-4.9-1.3-4.9-3,2.1-3.2,4.8-3.2S59.9,58.8,59.9,60.5Z" fill="#c4c4c4"/><path d="M59.8,60.5c.1,1.7-2.1,3.1-4.7,3.2s-4.9-1.3-4.9-3,2.1-3.1,4.8-3.2S59.8,58.8,59.8,60.5Z" fill="#c3c3c3"/><path d="M59.8,60.5c0,1.7-2.1,3.1-4.7,3.1s-4.8-1.3-4.9-2.9,2.1-3.1,4.8-3.1S59.8,58.9,59.8,60.5Z" fill="#c2c2c2"/><path d="M59.8,60.5c0,1.7-2.1,3.1-4.7,3.1s-4.8-1.3-4.8-2.9,2.1-3.1,4.7-3.1S59.7,58.9,59.8,60.5Z" fill="#c1c1c1"/><path d="M59.7,60.5c0,1.7-2.1,3.1-4.6,3.1s-4.7-1.3-4.8-2.9,2.1-3.1,4.7-3.1S59.7,58.9,59.7,60.5Z" fill="silver"/><path d="M59.7,60.5c0,1.7-2.1,3-4.6,3.1s-4.7-1.3-4.7-2.9,2-3,4.6-3.1S59.6,58.9,59.7,60.5Z" fill="#bfbfbf"/><path d="M59.6,60.5c0,1.7-2,3-4.5,3s-4.6-1.2-4.7-2.8,2-3,4.6-3S59.6,58.9,59.6,60.5Z" fill="#bebebe"/><path d="M59.6,60.5c0,1.6-2,3-4.5,3s-4.6-1.2-4.6-2.8,2-3,4.5-3S59.5,58.9,59.6,60.5Z" fill="#bdbdbd"/><path d="M59.5,60.5c0,1.6-2,2.9-4.4,3s-4.6-1.3-4.6-2.8,2-2.9,4.5-3S59.5,59,59.5,60.5Z" fill="#bcbcbc"/><path d="M59.5,60.5c0,1.6-2,2.9-4.4,2.9s-4.5-1.2-4.5-2.7,1.9-2.9,4.4-2.9S59.5,59,59.5,60.5Z" fill="#bbb"/><path d="M59.4,60.5c0,1.6-1.9,2.9-4.3,2.9s-4.5-1.2-4.5-2.7,2-2.9,4.4-2.9S59.4,59,59.4,60.5Z" fill="#bababa"/><path d="M59.4,60.5c0,1.6-1.9,2.8-4.3,2.9s-4.4-1.2-4.4-2.7,1.9-2.8,4.3-2.9S59.4,59,59.4,60.5Z" fill="#b9b9b9"/><path d="M59.3,60.5c.1,1.6-1.9,2.8-4.2,2.8s-4.4-1.1-4.4-2.6,1.9-2.8,4.3-2.8S59.3,59,59.3,60.5Z" fill="#b8b8b8"/><path d="M59.3,60.5c0,1.5-1.9,2.8-4.2,2.8s-4.3-1.1-4.3-2.6,1.8-2.8,4.2-2.8S59.3,59,59.3,60.5Z" fill="#b7b7b7"/><path d="M59.2,60.5c.1,1.5-1.8,2.8-4.1,2.8s-4.3-1.2-4.3-2.6,1.9-2.8,4.2-2.8S59.2,59.1,59.2,60.5Z" fill="#b6b6b6"/><path d="M59.2,60.5c0,1.5-1.8,2.7-4.1,2.8s-4.2-1.2-4.3-2.6S52.7,58,55,57.9,59.2,59.1,59.2,60.5Z" fill="#b5b5b5"/><path d="M59.2,60.5c0,1.5-1.9,2.7-4.1,2.7s-4.2-1.1-4.2-2.5S52.7,58,55,58,59.1,59.1,59.2,60.5Z" fill="#b4b4b4"/><path d="M59.1,60.5c0,1.5-1.8,2.7-4,2.7s-4.1-1.1-4.2-2.5S52.7,58,55,58,59.1,59.1,59.1,60.5Z" fill="#b2b2b2"/><path d="M59.1,60.5c0,1.5-1.8,2.6-4,2.7S51,62.1,51,60.7s1.8-2.6,4-2.7S59,59.1,59.1,60.5Z" fill="#b1b1b1"/><path d="M59,60.5c0,1.5-1.7,2.6-3.9,2.6s-4.1-1-4.1-2.4,1.8-2.6,4-2.6S59,59.1,59,60.5Z" fill="#b0b0b0"/><path d="M59,60.5c0,1.4-1.8,2.6-3.9,2.6s-4-1.1-4-2.4,1.7-2.6,3.9-2.6S59,59.2,59,60.5Z" fill="#afafaf"/><path d="M58.9,60.5c0,1.4-1.7,2.6-3.8,2.6s-4-1.1-4-2.4,1.7-2.6,3.9-2.6S58.9,59.2,58.9,60.5Z" fill="#aeaeae"/><path d="M58.9,60.6c0,1.3-1.7,2.4-3.8,2.5s-3.9-1.1-3.9-2.5,1.7-2.4,3.8-2.5S58.9,59.2,58.9,60.6Z" fill="#adadad"/><path d="M58.8,60.6c0,1.3-1.6,2.4-3.7,2.4s-3.9-1-3.9-2.4,1.7-2.4,3.8-2.4S58.8,59.2,58.8,60.6Z" fill="#acacac"/><path d="M58.8,60.6c0,1.3-1.7,2.4-3.7,2.4s-3.8-1-3.8-2.4,1.6-2.4,3.7-2.4S58.8,59.2,58.8,60.6Z" fill="#ababab"/><path d="M58.7,60.6c.1,1.3-1.6,2.3-3.6,2.4s-3.8-1-3.8-2.4,1.6-2.3,3.7-2.4S58.7,59.2,58.7,60.6Z" fill="#aaa"/><path d="M58.7,60.6c0,1.2-1.6,2.3-3.6,2.3s-3.7-1-3.7-2.3S53,58.3,55,58.3,58.7,59.3,58.7,60.6Z" fill="#a9a9a9"/><path d="M58.6,60.6c.1,1.2-1.5,2.3-3.5,2.3s-3.7-1-3.7-2.3S53,58.3,55,58.3,58.6,59.3,58.6,60.6Z" fill="#a8a8a8"/><path d="M58.6,60.6c0,1.2-1.6,2.3-3.5,2.3s-3.6-1-3.7-2.3S53,58.3,55,58.3,58.6,59.3,58.6,60.6Z" fill="#a7a7a7"/><path d="M58.6,60.6c0,1.2-1.6,2.2-3.5,2.3s-3.6-1-3.6-2.3S53,58.4,55,58.4,58.5,59.3,58.6,60.6Z" fill="#a6a6a6"/><path d="M58.5,60.6c0,1.2-1.5,2.2-3.4,2.2s-3.5-.9-3.6-2.2,1.6-2.2,3.5-2.2S58.5,59.3,58.5,60.6Z" fill="#a5a5a5"/><path d="M58.5,60.6c0,1.2-1.5,2.2-3.4,2.2s-3.5-.9-3.5-2.2,1.5-2.2,3.4-2.2S58.4,59.3,58.5,60.6Z" fill="#a4a4a4"/><path d="M58.4,60.6c0,1.2-1.5,2.1-3.3,2.2s-3.5-1-3.5-2.2,1.5-2.1,3.4-2.2S58.4,59.4,58.4,60.6Z" fill="#a3a3a3"/><path d="M58.4,60.6c0,1.1-1.5,2.1-3.3,2.1s-3.4-.9-3.4-2.1,1.4-2.1,3.3-2.1S58.4,59.4,58.4,60.6Z" fill="#a2a2a2"/><path d="M58.3,60.6c0,1.1-1.4,2.1-3.2,2.1s-3.4-.9-3.4-2.1,1.5-2.1,3.3-2.1S58.3,59.4,58.3,60.6Z" fill="#a1a1a1"/><ellipse cx="55" cy="60.6" rx="3.3" ry="2.1" transform="translate(-0.8 0.7) rotate(-0.7)" fill="#a0a0a0"/><path d="M58.2,60.6c0,1.1-1.4,2-3.2,2s-3.2-.8-3.2-2,1.4-2,3.2-2S58.2,59.4,58.2,60.6Z" fill="#9f9f9f"/><path d="M58.2,60.6c0,1.1-1.4,2-3.2,2s-3.1-.8-3.1-2,1.4-2,3.1-2S58.2,59.4,58.2,60.6Z" fill="#9e9e9e"/><path d="M58.1,60.6c.1,1.1-1.3,2-3.1,2s-3.1-.9-3.1-2,1.4-2,3.1-2S58.1,59.5,58.1,60.6Z" fill="#9d9d9d"/><path d="M58.1,60.6c0,1-1.4,1.9-3.1,2s-3-.9-3-2,1.3-1.9,3-2S58.1,59.5,58.1,60.6Z" fill="#9c9c9c"/><path d="M58,60.6c.1,1-1.3,1.9-3,1.9s-3-.8-3-1.9,1.3-1.9,3-1.9S58,59.5,58,60.6Z" fill="#9b9b9b"/><path d="M58,60.6c0,1-1.3,1.9-3,1.9s-2.9-.8-3-1.9,1.4-1.9,3-1.9S58,59.5,58,60.6Z" fill="#9a9a9a"/><path d="M58,60.6c0,1-1.3,1.8-3,1.9s-2.9-.8-2.9-1.9,1.3-1.8,2.9-1.9S57.9,59.5,58,60.6Z" fill="#999"/><path d="M57.9,60.6c0,1-1.3,1.8-2.9,1.8s-2.8-.7-2.9-1.8,1.3-1.8,2.9-1.8S57.9,59.5,57.9,60.6Z" fill="#989898"/><path d="M57.9,60.6c0,1-1.3,1.8-2.9,1.8s-2.8-.8-2.8-1.8,1.2-1.8,2.8-1.8S57.8,59.6,57.9,60.6Z" fill="#979797"/><path d="M57.8,60.6c0,.9-1.2,1.8-2.8,1.8s-2.8-.8-2.8-1.8,1.3-1.8,2.8-1.8S57.8,59.6,57.8,60.6Z" fill="#969696"/><path d="M57.8,60.6c0,.9-1.2,1.7-2.8,1.8s-2.7-.8-2.7-1.8,1.2-1.7,2.7-1.8S57.8,59.6,57.8,60.6Z" fill="#959595"/><path d="M57.7,60.6c0,.9-1.2,1.7-2.7,1.7s-2.7-.7-2.7-1.7,1.2-1.7,2.7-1.7S57.7,59.6,57.7,60.6Z" fill="#949494"/><path d="M57.7,60.6c0,.9-1.2,1.7-2.7,1.7s-2.6-.7-2.6-1.7,1.1-1.7,2.6-1.7S57.7,59.6,57.7,60.6Z" fill="#939393"/><path d="M57.6,60.6c0,.9-1.1,1.6-2.6,1.7s-2.6-.7-2.6-1.7S53.6,59,55,58.9,57.6,59.6,57.6,60.6Z" fill="#929292"/><path d="M57.6,60.6c0,.9-1.1,1.6-2.6,1.6s-2.5-.7-2.5-1.6S53.6,59,55,59,57.6,59.7,57.6,60.6Z" fill="#919191"/><path d="M57.5,60.6c.1.9-1.1,1.6-2.5,1.6s-2.5-.7-2.5-1.6S53.6,59,55,59,57.5,59.7,57.5,60.6Z" fill="#909090"/><path d="M57.5,60.6c0,.8-1.1,1.6-2.5,1.6s-2.4-.7-2.4-1.6S53.6,59,55,59,57.5,59.7,57.5,60.6Z" fill="#8f8f8f"/><path d="M57.4,60.6c.1.8-1,1.5-2.4,1.5s-2.4-.6-2.4-1.5,1.1-1.5,2.4-1.5S57.4,59.7,57.4,60.6Z" fill="#8e8e8e"/><path d="M57.4,60.6c0,.8-1,1.5-2.4,1.5s-2.3-.6-2.4-1.5,1.1-1.5,2.4-1.5S57.4,59.7,57.4,60.6Z" fill="#8d8d8d"/><path d="M57.4,60.6c0,.8-1.1,1.5-2.4,1.5s-2.3-.6-2.3-1.5,1-1.5,2.3-1.5S57.3,59.7,57.4,60.6Z" fill="#8c8c8c"/><path d="M57.3,60.6c0,.8-1,1.4-2.3,1.5s-2.3-.7-2.3-1.5,1-1.4,2.3-1.5S57.3,59.8,57.3,60.6Z" fill="#8b8b8b"/><path d="M57.3,60.6c0,.8-1,1.4-2.3,1.4s-2.2-.6-2.2-1.4,1-1.4,2.2-1.4S57.3,59.8,57.3,60.6Z" fill="#8a8a8a"/><path d="M57.2,60.6c0,.7-.9,1.4-2.2,1.4s-2.2-.6-2.2-1.4,1-1.4,2.2-1.4S57.2,59.8,57.2,60.6Z" fill="#898989"/><path d="M57.2,60.6c0,.7-1,1.4-2.2,1.4s-2.1-.6-2.1-1.4.9-1.4,2.1-1.4S57.2,59.8,57.2,60.6Z" fill="#888"/><path d="M57.1,60.6c0,.7-.9,1.3-2.1,1.3s-2.1-.5-2.1-1.3.9-1.3,2.1-1.3S57.1,59.8,57.1,60.6Z" fill="#878787"/><path d="M57.1,60.6c0,.7-.9,1.3-2.1,1.3s-2-.5-2-1.3.9-1.3,2-1.3S57.1,59.8,57.1,60.6Z" fill="#868686"/><path d="M57,60.6c0,.7-.9,1.3-2,1.3s-2-.6-2-1.3.9-1.3,2-1.3S57,59.9,57,60.6Z" fill="#858585"/><path d="M57,60.6c0,.7-.9,1.2-2,1.3s-1.9-.6-1.9-1.3.8-1.2,1.9-1.3S57,59.9,57,60.6Z" fill="#848484"/><path d="M56.9,60.6c0,.7-.8,1.2-1.9,1.2s-1.9-.5-1.9-1.2.8-1.2,1.9-1.2S56.9,59.9,56.9,60.6Z" fill="#838383"/><path d="M56.9,60.6c0,.6-.8,1.2-1.9,1.2s-1.8-.5-1.8-1.2.8-1.2,1.8-1.2S56.9,59.9,56.9,60.6Z" fill="#828282"/><path d="M56.8,60.6c.1.6-.8,1.2-1.8,1.2s-1.8-.5-1.8-1.2.8-1.2,1.8-1.2S56.8,59.9,56.8,60.6Z" fill="#818181"/><path d="M56.8,60.6c0,.6-.8,1.1-1.8,1.1a1.7,1.7,0,0,1-1.8-1.1c0-.6.8-1.1,1.8-1.1S56.8,60,56.8,60.6Z" fill="gray"/></g></g><path d="M56,65.2a2.7,2.7,0,0,0-.4,1V66s-.1-1.2-.5-.9a2.7,2.7,0,0,1-2.5.1c-.6-.2-.6.3-.1,1.1a5.4,5.4,0,0,1,.4,2.5,4.6,4.6,0,0,0,1.7,0c.4-.2.5-.2.5-.6s.2.4.1,1-1.5.9-1.8.8-.4.5,0,.8-.6,11.6-1.1,12.6-.2,0-.2-.1h0c.1-2.3.2-4.5.2-6.5V75.7c0-.2.1-.4.1-.6,0-5.3-.3-7.4-.5-8.2s-.1-.1-.1-.2h0l-.2-.4-.4-.7h0L50,64.3l-.2-.4a2.1,2.1,0,0,1,1.7,0c.9.4.9-.2,2-.3a2.2,2.2,0,0,1,1.3.3c.6.7.7.3,1.2.1S56.2,64.8,56,65.2Z" opacity="0.05" fill="url(#dg)" style="mix-blend-mode:screen"/><path d="M52.2,57.6l-.2.2h-.2a.3.3,0,0,1-.1-.2,1.9,1.9,0,0,1-.2-.8c-.1-.1-.1-.2-.1-.4v-.5c0-6.3.1-12.5.1-18.7,0-.9-.1-2.8.6-3.3v.4c-.1,7.4,0,14.8.2,22.1A5.3,5.3,0,0,1,52.2,57.6Z" opacity="0.21" fill="url(#dh)" style="mix-blend-mode:screen"/><path d="M52.1,34.2c-.1.4-.4.2-.3,2.3s.2,20.4.1,21a.3.3,0,0,1-.1.2c-.1.4-.4.2-.4-1.2v-.7c0-6.3.1-12.5.1-18.7,0-.9-.1-2.8.6-3.3Z" opacity="0.55" fill="url(#di)" style="mix-blend-mode:screen"/><path d="M52.8,37.7c-.1-.2-.2-1.2-.6-1.2s-.7,4-.7,4V35.6h0a.1.1,0,0,1,.1-.1v-.2h0v-.2h.1v-.2a.1.1,0,0,0,.1-.1v-.2a.1.1,0,0,0,.1-.1h.5v.2h.1v.2h0a.4.4,0,0,1,.1.3v.2h0c.1,0,.1.1.1.2h0v.8h0Z" fill="url(#dj)" style="mix-blend-mode:screen"/><path d="M51.9,33.9s.7,23.1.3,23.7-.8.3-.7-.9S51.2,34,51.9,33.9Z" fill="url(#dk)" style="mix-blend-mode:screen"/><path d="M57.4,58.3h.1c0,.8,1,2.2-.9,1-.4-.3-1.2-.6-1.6,0s-1.4.3-1.8-.3a4.7,4.7,0,0,1,0-2.1v.4h0v.7H54a.1.1,0,0,0,.1-.1h.3a.1.1,0,0,0,.1-.1h0v-.9s.4,1,.7.6.5-18.8.5-20.4a27.7,27.7,0,0,0-.2-3.3h.3c0,.1.1.1.1.2a.4.4,0,0,0,.1.3h0v.2h.1v.3h0v.3h0c0,.1.1.2.1.3v.4h0v7.9h0V54.7h0v3.2a.6.6,0,0,0,.1.4c.1,0,.1,0,.1.1h.9Z" opacity="0.47" fill="url(#dl)" style="mix-blend-mode:multiply"/><path d="M56.1,35.2s-.5-.2-.7,1.3.1,17.8-.3,20.1-.4,1.7-.6,1.1h0v-1h0v-.4h0l.4-18.3h0v-2a4.5,4.5,0,0,1,.4-2h0c.1,0,.1,0,.1-.1h.3c0,.1.1.1.1.2a.4.4,0,0,0,.1.3h0v.2h.1Z" fill="url(#dm)" style="mix-blend-mode:screen"/><path d="M55.8,36.9v.6c0,6.2.2,12.4.1,18.5a5.3,5.3,0,0,1-.4,1.8c-.1.1-.2.3-.4.2H55a2.4,2.4,0,0,1-.4-2c0-6.3.3-12.5.4-18.7a9.7,9.7,0,0,1,.1-1.7,3.7,3.7,0,0,1,.3-1.5h.1c.2-.1.4,0,.4.2a.3.3,0,0,1,0,.4A19.3,19.3,0,0,0,55.8,36.9Z" opacity="0.27" fill="url(#dn)" style="mix-blend-mode:screen"/><path d="M55.3,34.7s-.7,21.9-.6,22.6.5.4.6-1.7.3-13.7.3-16.3S55.4,33.9,55.3,34.7Z" opacity="0.33" fill="url(#do)" style="mix-blend-mode:screen"/><path d="M56.2,39.1v.2s-.1-4-.5-4-.7,1.9-.7,1.9h0V35.9a4.5,4.5,0,0,1,.4-2h0c.1,0,.1,0,.1-.1h.3c0,.1.1.1.1.2h0c0,.1,0,.1.1.2h0v.2h.1v.3h0v.3h0c0,.1.1.2.1.3v.4h0Z" fill="url(#dp)" style="mix-blend-mode:screen"/><path d="M56.9,58.5a.9.9,0,0,1-1.3-.9c0-.8.4-20.8.3-22a3.4,3.4,0,0,0-.5-1.7h0c.1,0,.1,0,.1-.1h.3c0,.1.1.1.1.2h0c0,.1,0,.1.1.2h0v.2h.1v.3h0v.3h0c0,.1.1.2.1.3v.4h0v7.9h0V54.7h0v3.2a.6.6,0,0,0,.1.4c.1,0,.1,0,.1.1h.4Z" fill="url(#dq)" style="mix-blend-mode:multiply"/><path d="M53.9,58.5c-.8.2-1.2-.4-1.3-1.2s-.4-20.7-.5-21.7a10.7,10.7,0,0,0,0-1.8h.3v.2h.1v.2h0a.4.4,0,0,1,.1.3v.2h0c.1,0,.1.1.1.2h0v.8h0v1.5h0v1.6h0v3.4l.2,7.6v6.8h0v.7h.7Z" fill="url(#dr)" style="mix-blend-mode:multiply"/><path d="M59,34.7a4.1,4.1,0,0,0-.2,1.4c-.1,3.6-.2,21.1-.3,21.8s-.5.6-.8,0h0v-.2h0v-.7h0v-.5h0v-.7h0v-.7a.6.6,0,0,1,.1-.4V54h0v-.8h0V50.7c0-.4.1-.8.1-1.1V47.2a7.6,7.6,0,0,1,.1-1.5V44.1h0V41.9h0a.4.4,0,0,0,.1-.3v-.3h0v-.2h0v-.8h0v-.4h0v-.4c0-.6.1-1.1.1-1.5h0v-.6h0v-.2a7.1,7.1,0,0,1,.4-2h.1c0-.1.1-.1.2,0a.6.6,0,0,0,.1.4h0Z" fill="url(#ds)" style="mix-blend-mode:screen"/><path d="M59.3,36.1v.2l-.3-.5h-.2c-.2-.3-.5.1-.8.4a4.1,4.1,0,0,1,.5-1.9h.2a.1.1,0,0,1,.1.1A4.6,4.6,0,0,1,59.3,36.1Z" fill="url(#dt)" style="mix-blend-mode:screen"/><path d="M58.7,34a17.9,17.9,0,0,0-.3,3.1C58.3,38.6,58,51,58,52.5a13.1,13.1,0,0,1-.5,4.2h.1v-.7h0V55h0v-.9h0V48.3c.1-.1.1-.1.1-.2v-3a3.1,3.1,0,0,1,.1-1h0V41.1h0v-.2h0v-.5a.6.6,0,0,1,.1-.4h0v-.2h0v-.2h0V37.1h0v-.4h0v-.3a6.7,6.7,0,0,1,.5-1.9h.1C58.6,34,58.6,34,58.7,34Z" fill="url(#du)" style="mix-blend-mode:screen"/><path d="M55.8,34.4c0-.3-.3-.3-.4-.1a1.5,1.5,0,0,0-.3.7c-.1.8-.5,19.4-.4,21s.6,1.7.6,1S56.2,37.9,55.8,34.4Z" fill="url(#dv)" style="mix-blend-mode:screen"/><path d="M59,35c0-.3-.4-.3-.4-.1a6.4,6.4,0,0,0-.2.7c-.1.8-.6,19.4-.5,21.1s.6,1.6.7.9S59.4,38.5,59,35Z" fill="url(#dw)" style="mix-blend-mode:screen"/><path d="M52.1,34.8c0-.2-.3-.3-.4,0s-.1.4-.1.6,0,19.4.1,21.1.7,1.6.7.9S52.7,38.3,52.1,34.8Z" fill="url(#dx)" style="mix-blend-mode:screen"/><path d="M59.6,61.9a4.3,4.3,0,0,0-.1.5,2.2,2.2,0,0,1-.5.8h-.1c.6-.5.4-1.9.3-3.1S59,38,59,36.1a8.5,8.5,0,0,0-.3-2h0a.1.1,0,0,1,.1.1,4.6,4.6,0,0,1,.5,2V57.2l.2,2.8v1.9Z" opacity="0.67" fill="url(#dy)" style="mix-blend-mode:multiply"/><path d="M49.1,34.6H49A.1.1,0,0,0,49.1,34.6Z" fill="url(#dz)"/><path d="M50.2,57h0v.5c0,.1,0,.1.1.2s-.8-9.6-.8-11.3-.1-11.7-.3-12V34h.1a6.7,6.7,0,0,1,.5,1.9v2.2h0Z" fill="url(#ea)" style="mix-blend-mode:multiply"/><path d="M56.7,58.5a1.1,1.1,0,0,1-1.3-.7c-.3-.9.3-17.9.3-20.7a20.6,20.6,0,0,0-.2-3.3h.3c0,.1.1.1.1.2a.4.4,0,0,0,.1.3h0v.2h.1v.3h0v.3h0c0,.1.1.2.1.3v.4h0v7.9h0V54.7h0v3.2a.6.6,0,0,0,.1.4c.1,0,.1,0,.1.1h.2Z" fill="url(#eb)" style="mix-blend-mode:multiply"/><path d="M59.6,61.9a4.3,4.3,0,0,0-.1.5,2.2,2.2,0,0,1-.5.8h-.1a8.7,8.7,0,0,0-1.4,1.2h0a6.1,6.1,0,0,1,.7-1c.2-.4.5-.7.6-1a2,2,0,0,0,.4-1.3v-.5a7.5,7.5,0,0,0-.4-1.6c-.3-1.2-.3-18.5-.1-21.2V35.7h0c-.1-.7-.2-1.2-.2-1.5h.2a.1.1,0,0,1,.1.1,4.6,4.6,0,0,1,.5,2V57.2l.2,2.8v1.9Z" fill="url(#ec)" style="mix-blend-mode:multiply"/><path d="M58.2,36.1a4.3,4.3,0,0,1,.4-1.9V34h0c0-.1-.1,0-.2,0v.2a6.5,6.5,0,0,0-.4,1.9l-.5,21.7h.2Z" fill="url(#ed)" style="mix-blend-mode:screen"/><path d="M48.6,57.6h-.1V36.1a6.5,6.5,0,0,1,.4-2h.1c-.1,0-.2,0-.2.1a4.5,4.5,0,0,0-.4,2V57.6Z" fill="url(#ee)" style="mix-blend-mode:screen"/><path d="M52.1,34h0c0-.1,0-.1.1-.1s-.2,0-.3.1h0a5.8,5.8,0,0,0-.4,1.8V57.9h.2V35.8A3.9,3.9,0,0,1,52.1,34Z" fill="url(#ef)" style="mix-blend-mode:screen"/><path d="M55.6,33.9h.1c-.1,0-.3,0-.3.1a6.7,6.7,0,0,0-.5,1.9l-.4,22.1h.1l.5-22.1A6.7,6.7,0,0,1,55.6,33.9Z" fill="url(#eg)" style="mix-blend-mode:screen"/><path d="M48.9,63.2a1.8,1.8,0,0,1-.6-1.4V59.1l-.3,2.7a1.8,1.8,0,0,0,.6,1.4c3.1,2.2,3.3,4.7,3.3,4.7S52,65.4,48.9,63.2Z" fill="url(#eh)" style="mix-blend-mode:screen"/><polygon points="48.4 56.8 48.4 59.1 48.6 57 48.4 56.8" fill="url(#ei)" style="mix-blend-mode:screen"/><path d="M53.3,71.8s-2.3,47.7-2.5,51,1.6,3.8,2.8,3.8,1.1-6.2.8-14.4S53.9,70.4,53.3,71.8Z" opacity="0.14" fill="url(#ej)" style="mix-blend-mode:screen"/><path d="M57.8,126.1a3.1,3.1,0,0,1-2.1,1.2H54.3a6.6,6.6,0,0,1-2.1-.3h-.1a2.8,2.8,0,0,1-1.4-.9,6.1,6.1,0,0,1-.4-2.8,15.2,15.2,0,0,0,0-2.2c.2,5.4,6.1,4.9,6.5,1.7s-1.7-46.2-2-50.7,1.9-5.7,1.9-5.7.1,0,.1.2v.2h0a7.3,7.3,0,0,0-.9,2.2h0a67.4,67.4,0,0,0-.3,7.7c.3,10,1.1,25.7,1.8,33.9.2,1.6.3,3.1.4,4.4C58.3,121.1,58.6,124.9,57.8,126.1Z" opacity="0.07" fill="url(#ek)" style="mix-blend-mode:multiply"/><path d="M55.7,83.1a6.2,6.2,0,0,0-3.7-.8c.1-1.9.2-3.8.2-5.5V75.7c0-.2.1-.4.1-.6a50.8,50.8,0,0,0-.3-6.9,13.7,13.7,0,0,0,3.6.2c-.1,1.2-.2,3-.2,6,0,.4.1.8.1,1.3v.4h0C55.5,78.2,55.6,80.6,55.7,83.1Z" fill="url(#el)" style="mix-blend-mode:multiply"/><path d="M56.2,36.8c-.3-.7-.7-1.2-.9-.8a40.7,40.7,0,0,0-.4,4.1V37.9h0v-2a4.5,4.5,0,0,1,.4-2h0a.1.1,0,0,0,.1-.1h.3c0,.1.1.1.1.2a.4.4,0,0,0,.1.3h0v.2h.1v.3h0v.3h0c0,.1.1.2.1.3v.4h0Z" fill="url(#em)" style="mix-blend-mode:screen"/><path d="M59.3,38.2h0L59,35.8c-.1-.4-.2-.7-.3-.7h0c-.4.1-.7,1.1-.7,1.1h0a4.1,4.1,0,0,1,.5-1.9h.2a.1.1,0,0,1,.1.1,4.6,4.6,0,0,1,.5,2Z" fill="url(#en)" style="mix-blend-mode:screen"/><path d="M59.6,61.7a1.7,1.7,0,0,1-.6,1.4,9,9,0,0,0-3.1,3.6c0,.2-.1.4-.1.6a31,31,0,0,0-.4,5.9,20.9,20.9,0,0,0,.1,2.4c.2,10.1,1.1,26.2,1.8,35,.1,1.4.2,2.6.3,3.8.6,6.6,1.1,10.8.1,12.2a3.1,3.1,0,0,1-2.3,1.3l-1.6.2a7.8,7.8,0,0,1-2.2-.3h-.2a3,3,0,0,1-1.4-1.1c-.9-1.2-.6-4.8-.1-10.3.1-1.7.3-3.6.5-5.7.7-8.8,1.6-24.9,1.8-35V72.9a27.1,27.1,0,0,0-.4-5.9c0-.1,0-.2-.1-.2a7.9,7.9,0,0,0-3-3.7,1.7,1.7,0,0,1-.6-1.4l.2-4.3V35.8a5.2,5.2,0,0,1,.4-2.1c.1,0,.1-.1.2,0h.1v.2a6.5,6.5,0,0,1,.4,1.9V38h0l.4,18.8v.9a.4.4,0,0,0,.1.3h0c.1.2.2.3.4.3h.1a.8.8,0,0,0,.7-.5h0V35.5a4.3,4.3,0,0,1,.4-1.9h0a.3.3,0,0,1,.4,0,8.3,8.3,0,0,1,.4,1.5h0v.4l.5,21.1v1.1a.6.6,0,0,0,.6.6.7.7,0,0,0,.7-.6V56.6l.4-19h0v-2a4.5,4.5,0,0,1,.4-2h.4a6.5,6.5,0,0,1,.4,1.9v.4h0V57.7a.6.6,0,0,0,.6.6.7.7,0,0,0,.7-.6h0v-.2h0v-.8L58,35.8a6.7,6.7,0,0,1,.5-1.9v-.2h.3a5.4,5.4,0,0,1,.5,2.1V57Z" opacity="0.72" fill="url(#eo)" style="mix-blend-mode:soft-light"/><path d="M55.8,67.3a42.8,42.8,0,0,0-.4,6.7,8.1,8.1,0,0,0-3.1,0,38.5,38.5,0,0,0-.5-7A8,8,0,0,1,55.8,67.3Z" fill="url(#ep)" style="mix-blend-mode:multiply"/><path d="M57.7,126.6a3.1,3.1,0,0,1-2.3,1.3l-1.6.2a7.8,7.8,0,0,1-2.2-.3h-.2a3,3,0,0,1-1.4-1.1c-.8-1.1-.7-4.3-.2-9.2a4.5,4.5,0,0,1,.1-1.1c2.6.6,5.8-.8,7.7-1.9.1.6.1,1.2.2,1.8C58.3,121.8,58.6,125.4,57.7,126.6Z" opacity="0.55" fill="url(#eq)" style="mix-blend-mode:multiply"/><path d="M57.7,126.6a3.1,3.1,0,0,1-2.3,1.3l-1.6.2a7.8,7.8,0,0,1-2.2-.3h-.2a3,3,0,0,1-1.4-1.1c-.7-1-.7-3.5-.4-7.3.1-.6.1-1.2.2-1.9,2.4,1.2,5.8-.1,8-1.2.1.6.1,1.2.2,1.8C58.4,122.6,58.5,125.5,57.7,126.6Z" opacity="0.22" fill="url(#er)" style="mix-blend-mode:multiply"/><path d="M57.7,126.6a3.1,3.1,0,0,1-2.3,1.3l-1.6.2a7.8,7.8,0,0,1-2.2-.3h-.2a3,3,0,0,1-1.4-1.1c-.6-.8-.7-2.7-.5-5.6,0-.5.1-1.1.1-1.7,2.6,1.3,6.2-.1,8.4-1.3,0,.6.1,1.1.1,1.6C58.4,123.3,58.4,125.6,57.7,126.6Z" opacity="0.22" fill="url(#es)" style="mix-blend-mode:multiply"/><path d="M57.7,126.6a3.1,3.1,0,0,1-2.3,1.3l-1.6.2a7.8,7.8,0,0,1-2.2-.3h-.2a3,3,0,0,1-1.4-1.1c-.5-.7-.6-2.1-.6-4.2,0-.4.1-.9.1-1.4,2.6,1.4,6.4-.2,8.6-1.4,0,.5.1,1,.1,1.4C58.4,123.9,58.3,125.8,57.7,126.6Z" opacity="0.22" fill="url(#et)" style="mix-blend-mode:multiply"/><path d="M57.7,126.6a3.1,3.1,0,0,1-2.3,1.3l-1.6.2a7.8,7.8,0,0,1-2.2-.3h-.2a3,3,0,0,1-1.4-1.1,4.5,4.5,0,0,1-.6-2.7v-1.5c2.7,1.5,6.6-.2,8.8-1.4a7.6,7.6,0,0,0,.1,1.5C58.3,124.5,58.2,125.9,57.7,126.6Z" opacity="0.22" fill="url(#eu)" style="mix-blend-mode:multiply"/><path d="M58.2,124.7a3,3,0,0,1-2.8,3.2l-1.6.2a7.8,7.8,0,0,1-2.2-.3h-.2a3,3,0,0,1-1.4-1.1,2.3,2.3,0,0,1-.4-1,7.2,7.2,0,0,1-.2-1.7c2.7,1.5,6.7-.2,8.9-1.4A14.8,14.8,0,0,1,58.2,124.7Z" opacity="0.22" fill="url(#ev)" style="mix-blend-mode:multiply"/><path d="M58.2,124.7a3,3,0,0,1-2.8,3.2l-1.6.2a7.8,7.8,0,0,1-2.2-.3h-.2a3,3,0,0,1-1.4-1.1,2.3,2.3,0,0,1-.4-1C52.1,127.3,55.9,125.9,58.2,124.7Z" opacity="0.22" fill="url(#ew)" style="mix-blend-mode:multiply"/><path d="M54.5,70.7s2.3,49.1,2.5,52.4-1.6,4-2.9,4-1.2-6.4-.8-14.9S53.8,69.3,54.5,70.7Z" opacity="0.14" fill="url(#ex)" style="mix-blend-mode:screen"/></g></svg>