<svg xmlns="http://www.w3.org/2000/svg" xmlns:xlink="http://www.w3.org/1999/xlink" viewBox="0 0 170.1 170.1"><defs><linearGradient id="a" x1="1.48" y1="-8.71" x2="97.84" y2="99.41" gradientUnits="userSpaceOnUse"><stop offset="0" stop-color="#e6e6e6"/><stop offset="1" stop-color="#666"/></linearGradient><linearGradient id="b" x1="504.59" y1="127.02" x2="600.4" y2="181.54" gradientTransform="matrix(0.94, 0.34, 0.34, -0.94, -475.65, 42.45)" gradientUnits="userSpaceOnUse"><stop offset="0" stop-color="#fafafa"/><stop offset="1" stop-color="#ececec"/></linearGradient><radialGradient id="c" cx="494.28" cy="125.06" r="58.21" gradientTransform="matrix(0.94, 0.34, 0.34, -0.94, -475.65, 42.45)" gradientUnits="userSpaceOnUse"><stop offset="0" stop-color="#f7f7f6"/><stop offset="1" stop-color="#fff"/></radialGradient><linearGradient id="d" x1="453" y1="137.93" x2="492.14" y2="144.15" gradientTransform="matrix(0.94, 0.34, 0.34, -0.94, -475.65, 42.45)" gradientUnits="userSpaceOnUse"><stop offset="0" stop-color="#fcfcfc"/><stop offset="1" stop-color="#fff"/></linearGradient><linearGradient id="e" x1="540.36" y1="147.97" x2="606.65" y2="148.46" gradientTransform="matrix(0.94, 0.34, 0.34, -0.94, -475.65, 42.45)" gradientUnits="userSpaceOnUse"><stop offset="0" stop-color="#f8f8f8"/><stop offset="1" stop-color="#fff"/></linearGradient><linearGradient id="f" x1="508.03" y1="139.32" x2="533.8" y2="145.98" gradientTransform="matrix(0.94, 0.34, 0.34, -0.94, -475.65, 42.45)" gradientUnits="userSpaceOnUse"><stop offset="0"/><stop offset="0.91" stop-color="#fff"/></linearGradient><linearGradient id="g" x1="537.87" y1="134.68" x2="565.94" y2="226.14" gradientTransform="matrix(0.94, 0.34, 0.34, -0.94, -475.65, 42.45)" gradientUnits="userSpaceOnUse"><stop offset="0" stop-color="#fff"/><stop offset="1" stop-color="#f5f5f5"/></linearGradient><linearGradient id="h" x1="538.02" y1="112.9" x2="536.99" y2="113.1" gradientTransform="matrix(0.94, 0.34, 0.34, -0.94, -475.65, 42.45)" gradientUnits="userSpaceOnUse"><stop offset="0" stop-color="#fff"/><stop offset="1"/></linearGradient><linearGradient id="i" x1="566.9" y1="149.43" x2="528.03" y2="147.17" xlink:href="#h"/><linearGradient id="j" x1="497.37" y1="130.52" x2="505.59" y2="134.23" xlink:href="#h"/><linearGradient id="k" x1="574.69" y1="142.4" x2="552.18" y2="146.27" gradientTransform="matrix(0.94, 0.34, 0.34, -0.94, -475.65, 42.45)" gradientUnits="userSpaceOnUse"><stop offset="0" stop-color="#fff"/><stop offset="0.15" stop-color="#ccc"/><stop offset="0.39" stop-color="#848484"/><stop offset="0.6" stop-color="#4c4c4c"/><stop offset="0.77" stop-color="#222"/><stop offset="0.92" stop-color="#090909"/><stop offset="1"/></linearGradient><linearGradient id="l" x1="574.92" y1="141.85" x2="572.13" y2="142.34" gradientTransform="matrix(0.94, 0.34, 0.34, -0.94, -475.65, 42.45)" gradientUnits="userSpaceOnUse"><stop offset="0" stop-color="#fff"/><stop offset="0.32" stop-color="#e0e0e0"/><stop offset="1"/></linearGradient><linearGradient id="m" x1="524.04" y1="124.63" x2="560.58" y2="172.5" gradientTransform="matrix(0.94, 0.34, 0.34, -0.94, -475.65, 42.45)" gradientUnits="userSpaceOnUse"><stop offset="0" stop-color="#fff"/><stop offset="0.17" stop-color="#bebebe"/><stop offset="0.33" stop-color="#848484"/><stop offset="0.49" stop-color="#555"/><stop offset="0.64" stop-color="#303030"/><stop offset="0.78" stop-color="#161616"/><stop offset="0.9" stop-color="#060606"/><stop offset="1"/></linearGradient><linearGradient id="n" x1="536.97" y1="148.83" x2="493.18" y2="152.95" xlink:href="#m"/><linearGradient id="o" x1="534.61" y1="148.62" x2="494.85" y2="152.35" xlink:href="#m"/><linearGradient id="p" x1="525.68" y1="125.82" x2="560.55" y2="171.51" xlink:href="#m"/><linearGradient id="q" x1="535.36" y1="102.81" x2="544.55" y2="120.96" xlink:href="#m"/><linearGradient id="r" x1="513.66" y1="113.81" x2="522.85" y2="131.95" xlink:href="#m"/><linearGradient id="s" x1="551.9" y1="130.97" x2="563.03" y2="111.62" xlink:href="#m"/><linearGradient id="t" x1="536.65" y1="127.19" x2="544.2" y2="156.23" xlink:href="#h"/><linearGradient id="u" x1="545.48" y1="173.6" x2="548.87" y2="199.25" xlink:href="#m"/><linearGradient id="v" x1="517.77" y1="147.81" x2="529.82" y2="148.3" xlink:href="#m"/><linearGradient id="w" x1="578.1" y1="145.6" x2="564.25" y2="147.78" xlink:href="#m"/><linearGradient id="x" x1="87.67" y1="108.99" x2="81.21" y2="130.08" gradientTransform="matrix(-1, 0, 0, 1, 179.75, 0)" xlink:href="#m"/><linearGradient id="y" x1="145.36" y1="84.6" x2="150.48" y2="85.2" gradientUnits="userSpaceOnUse"><stop offset="0" stop-color="#fff"/><stop offset="1" stop-color="#666"/></linearGradient><linearGradient id="z" x1="151.14" y1="46.23" x2="151.74" y2="117.63" gradientUnits="userSpaceOnUse"><stop offset="0" stop-color="#ccc"/><stop offset="0.35" stop-color="#999"/><stop offset="0.62" stop-color="#a2a2a2"/><stop offset="0.64" stop-color="#b2b2b2"/><stop offset="0.67" stop-color="#c1c1c1"/><stop offset="0.7" stop-color="#c9c9c9"/><stop offset="0.74" stop-color="#ccc"/><stop offset="1" stop-color="gray"/></linearGradient><linearGradient id="aa" x1="159.2" y1="63.51" x2="149.31" y2="60.24" gradientUnits="userSpaceOnUse"><stop offset="0" stop-color="#fff"/><stop offset="1" stop-color="#999"/></linearGradient><linearGradient id="ab" x1="159.19" y1="63.55" x2="149.3" y2="60.28" xlink:href="#aa"/><linearGradient id="ac" x1="155.81" y1="61.12" x2="148.4" y2="58.67" xlink:href="#aa"/><linearGradient id="ad" x1="152.19" y1="60.51" x2="150.38" y2="60.21" xlink:href="#aa"/><linearGradient id="ae" x1="149.06" y1="60.7" x2="146.95" y2="60.8" xlink:href="#aa"/><linearGradient id="af" x1="154.84" y1="58.32" x2="146.09" y2="79.09" gradientUnits="userSpaceOnUse"><stop offset="0.01" stop-color="#fff"/><stop offset="0.66" stop-color="#f2f2f2"/><stop offset="0.99" stop-color="#f3f3f3"/></linearGradient><linearGradient id="ag" x1="154.09" y1="57.55" x2="147.76" y2="80.15" xlink:href="#af"/><linearGradient id="ah" x1="150.73" y1="73.35" x2="149.75" y2="82.92" gradientUnits="userSpaceOnUse"><stop offset="0" stop-color="#fff"/><stop offset="0.4" stop-color="#e6e6e6"/><stop offset="1" stop-color="#fff"/></linearGradient><linearGradient id="ai" x1="151.6" y1="60.79" x2="143.61" y2="66.9" gradientUnits="userSpaceOnUse"><stop offset="0" stop-color="#fff"/><stop offset="0.4" stop-color="#999"/><stop offset="1" stop-color="#ebebeb"/></linearGradient><linearGradient id="aj" x1="154.72" y1="47.03" x2="148.39" y2="51.87" gradientTransform="matrix(1, 0, 0, 1, 0, 0)" xlink:href="#h"/><linearGradient id="ak" x1="154.73" y1="45.54" x2="149.19" y2="49.78" gradientTransform="matrix(1, 0, 0, 1, 0, 0)" xlink:href="#h"/><linearGradient id="al" x1="154.56" y1="44.2" x2="149.63" y2="47.97" gradientTransform="matrix(1, 0, 0, 1, 0, 0)" xlink:href="#h"/><linearGradient id="am" x1="159.69" y1="60.59" x2="149.83" y2="68.13" gradientTransform="matrix(1, 0, 0, 1, 0, 0)" xlink:href="#h"/><linearGradient id="an" x1="149.89" y1="64.61" x2="152.1" y2="50.85" xlink:href="#aa"/><linearGradient id="ao" x1="145.91" y1="43.14" x2="149.22" y2="46.05" gradientTransform="matrix(1, 0, 0, 1, 0, 0)" xlink:href="#h"/><linearGradient id="ap" x1="138.06" y1="54.09" x2="157.15" y2="61.37" gradientTransform="matrix(1, 0, 0, 1, 0, 0)" xlink:href="#h"/><linearGradient id="aq" x1="138.35" y1="54.1" x2="156.59" y2="61.06" gradientTransform="matrix(1, 0, 0, 1, 0, 0)" xlink:href="#h"/><linearGradient id="ar" x1="138.61" y1="54.3" x2="155.88" y2="60.89" gradientTransform="matrix(1, 0, 0, 1, 0, 0)" xlink:href="#h"/><linearGradient id="as" x1="138.68" y1="55.02" x2="154.95" y2="61.23" gradientTransform="matrix(1, 0, 0, 1, 0, 0)" xlink:href="#h"/><linearGradient id="at" x1="151.49" y1="83.14" x2="150.06" y2="76.89" xlink:href="#ah"/><linearGradient id="au" x1="148.96" y1="58.64" x2="151.22" y2="58.87" gradientUnits="userSpaceOnUse"><stop offset="0" stop-color="#fff"/><stop offset="1" stop-color="#f2f2f2"/></linearGradient><linearGradient id="av" x1="149.39" y1="59.26" x2="151.61" y2="59.49" xlink:href="#au"/><linearGradient id="aw" x1="150.23" y1="57.39" x2="152.15" y2="57.58" xlink:href="#au"/><linearGradient id="ax" x1="151.03" y1="56.36" x2="152.67" y2="56.53" xlink:href="#au"/><linearGradient id="ay" x1="152.1" y1="55.62" x2="153.27" y2="55.74" xlink:href="#au"/><linearGradient id="az" x1="146.06" y1="73.49" x2="151.24" y2="73.49" xlink:href="#au"/><linearGradient id="ba" x1="146.06" y1="75.99" x2="150.35" y2="75.99" xlink:href="#au"/><linearGradient id="bb" x1="146.06" y1="78.08" x2="149.47" y2="78.08" xlink:href="#au"/><linearGradient id="bc" x1="146.06" y1="79.83" x2="147.99" y2="79.83" xlink:href="#au"/><linearGradient id="bd" x1="149.82" y1="77.21" x2="147.78" y2="78.26" gradientUnits="userSpaceOnUse"><stop offset="0" stop-color="#fff"/><stop offset="1" stop-color="#e6e6e6"/></linearGradient><linearGradient id="be" x1="156.07" y1="86.46" x2="156.22" y2="86.46" xlink:href="#au"/><linearGradient id="bf" x1="149.99" y1="78.17" x2="148.08" y2="79.16" xlink:href="#au"/><linearGradient id="bg" x1="152.81" y1="68.21" x2="155.11" y2="68.28" gradientUnits="userSpaceOnUse"><stop offset="0" stop-color="#fff"/><stop offset="1" stop-color="#b3b3b3"/></linearGradient><linearGradient id="bh" x1="154.09" y1="56.77" x2="153.49" y2="56.77" gradientTransform="matrix(1, 0, 0, 1, 0, 0)" xlink:href="#h"/><linearGradient id="bi" x1="147.28" y1="56.38" x2="150.43" y2="55.44" gradientTransform="matrix(1, 0, 0, 1, 0, 0)" xlink:href="#h"/><linearGradient id="bj" x1="150.89" y1="45.32" x2="155.43" y2="43.96" gradientTransform="matrix(1, 0, 0, 1, 0, 0)" xlink:href="#h"/><linearGradient id="bk" x1="146.04" y1="58.43" x2="146.98" y2="58.43" gradientTransform="matrix(1, 0, 0, 1, 0, 0)" xlink:href="#h"/><linearGradient id="bl" x1="149.34" y1="129.54" x2="149.31" y2="129.64" xlink:href="#aa"/><linearGradient id="bm" x1="164.16" y1="80.26" x2="159.98" y2="92.26" xlink:href="#aa"/><linearGradient id="bn" x1="150.69" y1="106.94" x2="152.63" y2="106.94" gradientTransform="matrix(1, 0, 0, 1, 0, 0)" xlink:href="#h"/><linearGradient id="bo" x1="1570.55" y1="106.94" x2="1572.49" y2="106.94" gradientTransform="matrix(-1, 0, 0, 1, 1726.23, 0)" xlink:href="#h"/><linearGradient id="bp" x1="152.16" y1="64.21" x2="151.55" y2="111.68" gradientUnits="userSpaceOnUse"><stop offset="0" stop-color="#fff"/><stop offset="0.92"/></linearGradient><linearGradient id="bq" x1="152.21" y1="85.09" x2="152.36" y2="90.89" gradientUnits="userSpaceOnUse"><stop offset="0" stop-color="#fff"/><stop offset="0.4" stop-color="#999"/><stop offset="1" stop-color="#fff"/></linearGradient><linearGradient id="br" x1="151.75" y1="83.52" x2="152.02" y2="87.49" xlink:href="#bq"/><linearGradient id="bs" x1="18.55" y1="88.23" x2="21.19" y2="88.72" xlink:href="#y"/><linearGradient id="bt" x1="15.96" y1="55.95" x2="22.54" y2="55.86" xlink:href="#y"/><radialGradient id="bu" cx="21.9" cy="-2493.86" r="24.53" gradientTransform="translate(0 3735.6) scale(1 1.46)" gradientUnits="userSpaceOnUse"><stop offset="0.09" stop-color="#f2f2f2"/><stop offset="0.26" stop-color="#ccc"/><stop offset="0.65" stop-color="gray"/><stop offset="1" stop-color="gray"/></radialGradient><linearGradient id="bv" x1="16.03" y1="57.61" x2="16.68" y2="57.61" gradientTransform="matrix(1, 0, 0, 1, 0, 0)" xlink:href="#h"/><linearGradient id="bw" x1="13.72" y1="48.56" x2="14.44" y2="48.93" gradientUnits="userSpaceOnUse"><stop offset="0" stop-color="#fff"/><stop offset="0.17" stop-color="#c6c6c6"/><stop offset="0.4" stop-color="gray"/><stop offset="0.6" stop-color="#494949"/><stop offset="0.78" stop-color="#212121"/><stop offset="0.92" stop-color="#090909"/><stop offset="1"/></linearGradient><linearGradient id="bx" x1="16.76" y1="54.09" x2="18.26" y2="54.04" xlink:href="#aa"/><linearGradient id="by" x1="14.84" y1="55.89" x2="17.44" y2="55.95" xlink:href="#bw"/><linearGradient id="bz" x1="16.95" y1="54.5" x2="17.43" y2="54.5" xlink:href="#aa"/><linearGradient id="ca" x1="21.38" y1="66.78" x2="21.39" y2="66.69" xlink:href="#aa"/><linearGradient id="cb" x1="24.31" y1="66.74" x2="24.31" y2="66.73" xlink:href="#aa"/><linearGradient id="cc" x1="21.42" y1="52.29" x2="21.64" y2="59.65" gradientUnits="userSpaceOnUse"><stop offset="0.66" stop-color="#fff"/><stop offset="1" stop-color="#999"/></linearGradient><linearGradient id="cd" x1="21.67" y1="56.02" x2="22.8" y2="73.95" xlink:href="#cc"/><linearGradient id="ce" x1="21.83" y1="52.82" x2="21.83" y2="58.69" xlink:href="#cc"/><linearGradient id="cf" x1="21.15" y1="83.3" x2="21.12" y2="78.37" xlink:href="#cc"/><linearGradient id="cg" x1="22.71" y1="63.72" x2="22.71" y2="68.31" xlink:href="#cc"/><linearGradient id="ch" x1="22.99" y1="63.56" x2="22.99" y2="67.95" xlink:href="#cc"/><linearGradient id="ci" x1="23.34" y1="64.32" x2="23.34" y2="69.47" xlink:href="#cc"/><linearGradient id="cj" x1="25.01" y1="64.3" x2="25.04" y2="64.16" gradientUnits="userSpaceOnUse"><stop offset="0.39" stop-color="#fff"/><stop offset="1" stop-color="#999"/></linearGradient><linearGradient id="ck" x1="25.45" y1="56.92" x2="27" y2="56.92" xlink:href="#aa"/><linearGradient id="cl" x1="20.45" y1="75.44" x2="21.56" y2="69.43" xlink:href="#aa"/><linearGradient id="cm" x1="20.48" y1="75.36" x2="21.49" y2="69.84" xlink:href="#aa"/><linearGradient id="cn" x1="17.71" y1="65.61" x2="17.71" y2="65.61" xlink:href="#aa"/><linearGradient id="co" x1="21.39" y1="72.24" x2="21.35" y2="70.11" xlink:href="#aa"/><linearGradient id="cp" x1="21.97" y1="73.33" x2="20.62" y2="74.58" xlink:href="#aa"/><linearGradient id="cq" x1="21.06" y1="71.85" x2="23.88" y2="74.03" xlink:href="#aa"/><linearGradient id="cr" x1="20.01" y1="72.15" x2="19.56" y2="72.98" xlink:href="#aa"/><linearGradient id="cs" x1="19.15" y1="71.82" x2="18.88" y2="72.31" xlink:href="#aa"/><linearGradient id="ct" x1="21.88" y1="71.05" x2="23.56" y2="72.35" xlink:href="#aa"/><linearGradient id="cu" x1="19.13" y1="64.89" x2="17.59" y2="64.63" xlink:href="#aa"/><linearGradient id="cv" x1="14.63" y1="67.6" x2="18.27" y2="69.06" gradientTransform="matrix(1, 0, 0, 1, 0, 0)" xlink:href="#h"/><linearGradient id="cw" x1="26.29" y1="70.86" x2="25.76" y2="70.74" gradientTransform="matrix(1, 0, 0, 1, 0, 0)" xlink:href="#h"/><linearGradient id="cx" x1="20.61" y1="67.5" x2="21.36" y2="70.62" gradientTransform="matrix(1, 0, 0, 1, 0, 0)" xlink:href="#h"/><linearGradient id="cy" x1="18.11" y1="54.24" x2="19.99" y2="54.24" xlink:href="#bw"/><linearGradient id="cz" x1="25.4" y1="54.02" x2="28.8" y2="54.13" gradientUnits="userSpaceOnUse"><stop offset="0" stop-color="#fff"/><stop offset="0.02" stop-color="#f6f6f6"/><stop offset="0.13" stop-color="#bdbdbd"/><stop offset="0.25" stop-color="#8b8b8b"/><stop offset="0.37" stop-color="#606060"/><stop offset="0.49" stop-color="#3d3d3d"/><stop offset="0.62" stop-color="#222"/><stop offset="0.74" stop-color="#0f0f0f"/><stop offset="0.87" stop-color="#040404"/><stop offset="1"/></linearGradient><linearGradient id="da" x1="25.46" y1="53.45" x2="25.9" y2="53.45" gradientTransform="matrix(1, 0, 0, 1, 0, 0)" xlink:href="#h"/><linearGradient id="db" x1="19.76" y1="55.3" x2="21.08" y2="55.22" xlink:href="#aa"/><linearGradient id="dc" x1="15.74" y1="58.73" x2="19.09" y2="55.7" xlink:href="#aa"/><linearGradient id="dd" x1="17.72" y1="43.85" x2="18.5" y2="44.83" gradientTransform="matrix(1, 0, 0, 1, 0, 0)" xlink:href="#h"/><linearGradient id="de" x1="18.75" y1="42.87" x2="19.05" y2="43.24" gradientTransform="matrix(1, 0, 0, 1, 0, 0)" xlink:href="#h"/><clipPath id="df"><path d="M27.1,70.1v.5a1.5,1.5,0,0,1-.6.9h-.1l-1.3,1.1h-.5l-.9-.2c-.9-.5-2,.2-4.5-.2a8.5,8.5,0,0,0-1.6,0h-.5l-.8-.6a1.7,1.7,0,0,1-.6-1.4h0V66.2h.3c.3-.1.5-.2.5-.6s-.2-18.9-.1-22.8v-.6h.2a4.1,4.1,0,0,1,.4,1.9v2.1l.4,18.7h0v.8H19v-.6h0v-.8h0v-.5h0v-.2h0v-2h0V60.2h0v-.8h0V58h0v-1h0v-.3h0V52c.1-.1.1-.1.1-.2V49.7h0V49h0V43.8h0a.1.1,0,0,0,.1-.1h0c0-.1,0-.1.1-.1v-.2c0-.1,0-.1.1-.2h0c0-.1,0-.1.1-.2h.4a.3.3,0,0,1,.1.2h.1c0,.2.1.3.1.4h0v.2h0a.6.6,0,0,1,.1.4v3.5h0v3.5l.2,7.6v1.4l.2,4.9v.4h0v.6H22V65h0v-.5l.4-18.3v-2a4.1,4.1,0,0,1,.5-1.9h0c0-.1,0-.1.1-.1h.1c.1,0,.1,0,.1.1h0a.4.4,0,0,1,.1.3.3.3,0,0,1,.1.2h0a.1.1,0,0,0,.1.1h0v.2c0,.1.1.1.1.2v.3h0v.7h0v7.9h0V63h0v3.1a.8.8,0,0,0,.2.5h.1c0,.1,0,.1.1.1h.6c0-.1,0-.1.1-.1h0v-.2a.1.1,0,0,0,.1-.1h0V63.4c0-1.5.1-2.8.1-4.3v-.2c0-.4.1-.7.1-1.1s.1-2.6.1-3.9v-.5c0-1.2,0-2.4.1-3.6V47.3h0v-.4a6.6,6.6,0,0,1,.1-1.5v-1h0a5.8,5.8,0,0,1,.4-1.9v-.2h.3a5.2,5.2,0,0,1,.4,2.1V70.1Z" fill="none"/></clipPath><linearGradient id="dg" x1="22.82" y1="67.11" x2="17.09" y2="87.05" gradientTransform="matrix(1, 0, 0, 1, 0, 0)" xlink:href="#h"/><linearGradient id="dh" x1="19.43" y1="59.21" x2="19.43" y2="65.4" gradientTransform="matrix(1, 0, 0, 1, 0, 0)" xlink:href="#h"/><linearGradient id="di" x1="19.01" y1="54.04" x2="21.53" y2="54.61" xlink:href="#bw"/><linearGradient id="dj" x1="18.69" y1="42.68" x2="19.33" y2="44.93" xlink:href="#bw"/><linearGradient id="dk" x1="18.79" y1="54.16" x2="19.62" y2="54.16" gradientTransform="matrix(1, 0, 0, 1, 0, 0)" xlink:href="#h"/><linearGradient id="dl" x1="23.32" y1="55.01" x2="23.55" y2="55.01" xlink:href="#aa"/><linearGradient id="dm" x1="21.93" y1="54.18" x2="22.8" y2="54.22" gradientTransform="matrix(1, 0, 0, 1, 0, 0)" xlink:href="#h"/><linearGradient id="dn" x1="22.16" y1="54.21" x2="23.12" y2="54.21" gradientTransform="matrix(1, 0, 0, 1, 0, 0)" xlink:href="#h"/><linearGradient id="do" x1="21.58" y1="54.26" x2="24.18" y2="54.53" xlink:href="#bw"/><linearGradient id="dp" x1="23.12" y1="42.13" x2="23.12" y2="43.35" gradientTransform="matrix(1, 0, 0, 1, 0, 0)" xlink:href="#h"/><linearGradient id="dq" x1="23.22" y1="54.48" x2="23.7" y2="54.48" xlink:href="#y"/><linearGradient id="dr" x1="19.99" y1="54.45" x2="20.52" y2="54.45" xlink:href="#y"/><linearGradient id="ds" x1="25.2" y1="54.41" x2="25.95" y2="54.44" xlink:href="#bw"/><linearGradient id="dt" x1="26.2" y1="42.2" x2="26.2" y2="44.41" xlink:href="#bw"/><linearGradient id="du" x1="26.35" y1="53.75" x2="26.64" y2="53.8" gradientTransform="matrix(1, 0, 0, 1, 0, 0)" xlink:href="#h"/><linearGradient id="dv" x1="22.42" y1="54.5" x2="23.15" y2="54.54" gradientTransform="translate(-0.1 -0.5) rotate(0.2)" xlink:href="#h"/><linearGradient id="dw" x1="25.66" y1="54.7" x2="26.32" y2="54.74" gradientTransform="translate(-0.1 -0.1) rotate(0.1)" xlink:href="#h"/><linearGradient id="dx" x1="17.8" y1="49.25" x2="18.46" y2="49.29" gradientTransform="translate(-0.3 5.8) rotate(-1.7)" xlink:href="#h"/><linearGradient id="dy" x1="21.04" y1="65.81" x2="25.13" y2="59.04" gradientUnits="userSpaceOnUse"><stop offset="0" stop-color="#fff"/><stop offset="1" stop-color="#ccc"/></linearGradient><linearGradient id="dz" x1="16.58" y1="42.88" x2="16.6" y2="42.85" xlink:href="#aa"/><linearGradient id="ea" x1="16.9" y1="54.27" x2="17.62" y2="54.23" gradientUnits="userSpaceOnUse"><stop offset="0" stop-color="#fff"/><stop offset="1" stop-color="gray"/></linearGradient><linearGradient id="eb" x1="23.15" y1="54.43" x2="23.58" y2="54.43" xlink:href="#aa"/><linearGradient id="ec" x1="26.24" y1="57.49" x2="26.88" y2="57.45" xlink:href="#dy"/><linearGradient id="ed" x1="25.7" y1="63.81" x2="25.7" y2="65.35" gradientUnits="userSpaceOnUse"><stop offset="0" stop-color="#fff"/><stop offset="0.93" stop-color="#111"/><stop offset="1"/></linearGradient><linearGradient id="ee" x1="15.96" y1="54.09" x2="16.67" y2="54.09" gradientTransform="matrix(1, 0, 0, 1, 0, 0)" xlink:href="#h"/><linearGradient id="ef" x1="24.29" y1="59.28" x2="25.27" y2="60.3" gradientTransform="matrix(1, 0, 0, 1, 0, 0)" xlink:href="#h"/><linearGradient id="eg" x1="20.93" y1="64.99" x2="20.78" y2="66.05" gradientTransform="matrix(1, 0, 0, 1, 0, 0)" xlink:href="#h"/><linearGradient id="eh" x1="16.13" y1="72.22" x2="18.2" y2="71.65" gradientTransform="matrix(1, 0, 0, 1, 0, 0)" xlink:href="#h"/><linearGradient id="ei" x1="14.57" y1="66.62" x2="16.65" y2="66.05" gradientTransform="matrix(1, 0, 0, 1, 0, 0)" xlink:href="#h"/><linearGradient id="ej" x1="18.94" y1="107.43" x2="20.83" y2="107.43" gradientTransform="matrix(1, 0, 0, 1, 0, 0)" xlink:href="#h"/><linearGradient id="ek" x1="33.02" y1="79.85" x2="28.82" y2="91.93" xlink:href="#aa"/><linearGradient id="el" x1="21.88" y1="77.06" x2="21.02" y2="90.14" gradientUnits="userSpaceOnUse"><stop offset="0" stop-color="#fcfcfc"/><stop offset="0.4" stop-color="#aeaeae"/><stop offset="1" stop-color="#fff"/></linearGradient><linearGradient id="em" x1="22.9" y1="42.6" x2="23" y2="44.7" gradientTransform="matrix(1, 0, 0, 1, 0, 0)" xlink:href="#h"/><linearGradient id="en" x1="26.05" y1="42.58" x2="26.2" y2="44.3" gradientTransform="matrix(1, 0, 0, 1, 0, 0)" xlink:href="#h"/><linearGradient id="eo" x1="21.06" y1="65.74" x2="23.99" y2="143.4" gradientUnits="userSpaceOnUse"><stop offset="0" stop-color="#fff"/><stop offset="0.92" stop-color="#4d4d4d"/></linearGradient><linearGradient id="ep" x1="21.36" y1="75.59" x2="21.53" y2="80.8" xlink:href="#bq"/><linearGradient id="eq" x1="21.15" y1="123.69" x2="21.46" y2="133.55" xlink:href="#aa"/><linearGradient id="er" x1="21.2" y1="125.33" x2="21.47" y2="133.92" xlink:href="#aa"/><linearGradient id="es" x1="21.25" y1="127.03" x2="21.48" y2="134.29" xlink:href="#aa"/><linearGradient id="et" x1="21.3" y1="128.54" x2="21.49" y2="134.62" xlink:href="#aa"/><linearGradient id="eu" x1="21.34" y1="129.86" x2="21.5" y2="134.92" xlink:href="#aa"/><linearGradient id="ev" x1="21.39" y1="131.25" x2="21.51" y2="135.22" xlink:href="#aa"/><linearGradient id="ew" x1="21.46" y1="133.28" x2="21.53" y2="135.67" xlink:href="#aa"/><linearGradient id="ex" x1="8.54" y1="107.14" x2="10.48" y2="107.14" gradientTransform="matrix(-1, 0, 0, 1, 32.51, 0)" xlink:href="#h"/></defs><g style="isolation:isolate"><rect width="170.1" height="170.08" fill="url(#a)"/><rect width="170.1" height="170.08" fill="#fff" opacity="0.43" style="mix-blend-mode:screen"/><rect width="170.1" height="170.08" fill="#c69c6d" opacity="0.43" style="mix-blend-mode:screen"/><g opacity="0.83" style="mix-blend-mode:multiply"><ellipse cx="93.7" cy="83.2" rx="42.2" ry="40.6" fill="#ccc" opacity="0.92"/></g><path d="M64,37.3a49.4,49.4,0,0,0-6.8,3.6,51.7,51.7,0,0,0-22,58.7,54.6,54.6,0,0,0,2.6,6.7c0-13.4,2.2-35.6,13.6-53.1A111.7,111.7,0,0,1,64,37.3Z" fill="#fefefe" opacity="0.28" style="mix-blend-mode:multiply"/><path d="M57.2,40.9a51.3,51.3,0,0,0-9.3,7.4A50.3,50.3,0,0,0,36,67.3a51.5,51.5,0,0,0-2.8,21.5,55.6,55.6,0,0,0,2,10.8c.7-13.4,3.6-32.2,13.5-47.4A104.1,104.1,0,0,1,57.2,40.9Z" fill="#fefefe" opacity="0.28" style="mix-blend-mode:multiply"/><path d="M47.9,48.3A50.3,50.3,0,0,0,36,67.3a51.5,51.5,0,0,0-2.8,21.5c1.5-11.9,5-25.7,12.6-37.3Z" fill="#fcfcfc" opacity="0.28" style="mix-blend-mode:multiply"/><path d="M133.4,102a51.6,51.6,0,0,0-8.3-49.6,52.3,52.3,0,0,0-23-16.5,51.7,51.7,0,1,0-34.7,97.4l3,1a51.8,51.8,0,0,0,63-32.3Z" fill="url(#b)"/><path d="M101.6,37.2a50.4,50.4,0,1,0-33.8,94.9l3,1a50.4,50.4,0,0,0,62-63.6,51.2,51.2,0,0,0-18.4-25.6A50.4,50.4,0,0,0,101.6,37.2Z" opacity="0.44" fill="url(#c)" style="mix-blend-mode:multiply"/><path d="M101.2,38.4a49.1,49.1,0,0,0-33,92.5l2.9.9A49.2,49.2,0,0,0,131,101.1,49.1,49.1,0,0,0,113.6,45,47.6,47.6,0,0,0,101.2,38.4Z" fill="#fefefe" opacity="0.96" style="mix-blend-mode:multiply"/><path d="M100.7,39.6a47.8,47.8,0,0,0-32,90.1l2.8.9a47.9,47.9,0,0,0,58.8-60.4,47.5,47.5,0,0,0-29.6-30.6Z" fill="#fefefe" opacity="0.28" style="mix-blend-mode:multiply"/><path d="M100.3,40.8a46.5,46.5,0,0,0-31.2,87.6l2.7.9A46.5,46.5,0,0,0,129,70.6a46.1,46.1,0,0,0-16.9-23.5A47.8,47.8,0,0,0,100.3,40.8Z" fill="#fefefe" opacity="0.28" style="mix-blend-mode:multiply"/><path d="M99.9,42.1a45.2,45.2,0,1,0-30.4,85.1l2.7.9A45.2,45.2,0,0,0,127.8,71a45.8,45.8,0,0,0-16.5-22.9A44.4,44.4,0,0,0,99.9,42.1Z" fill="#fefefe" opacity="0.28" style="mix-blend-mode:multiply"/><path d="M99.4,43.3A43.9,43.9,0,0,0,70,126l2.6.8A43.8,43.8,0,0,0,126,99.4a43.3,43.3,0,0,0,.6-28,44.3,44.3,0,0,0-16-22.2A42.9,42.9,0,0,0,99.4,43.3Z" fill="#fefefe" opacity="0.28" style="mix-blend-mode:multiply"/><path d="M99,44.5a42.6,42.6,0,0,0-28.6,80.2l2.5.9a42.6,42.6,0,0,0,51.9-26.7,41.9,41.9,0,0,0,.5-27.1A42.5,42.5,0,0,0,99,44.5Z" fill="#fefefe" opacity="0.28" style="mix-blend-mode:multiply"/><path d="M98.6,45.8a41.2,41.2,0,1,0-27.7,77.7l2.4.8A41.3,41.3,0,0,0,98.6,45.8Z" fill="#fefefe" opacity="0.28" style="mix-blend-mode:multiply"/><path d="M98.1,47a40,40,0,0,0-26.8,75.3l2.4.7a39.9,39.9,0,0,0,48.7-25,39.4,39.4,0,0,0,.4-25.4,40.1,40.1,0,0,0-14.5-20.3A41.2,41.2,0,0,0,98.1,47Z" fill="#fefefe" opacity="0.28" style="mix-blend-mode:multiply"/><path d="M97.7,48.2a38.7,38.7,0,0,0-26,72.9l2.3.7A38.7,38.7,0,0,0,121.6,73a39.2,39.2,0,0,0-14.1-19.6A40,40,0,0,0,97.7,48.2Z" fill="#fefefe" opacity="0.28" style="mix-blend-mode:multiply"/><path d="M97.2,49.4a37.4,37.4,0,1,0-25,70.4l2.2.7a37.4,37.4,0,0,0,45.5-23.3,36.6,36.6,0,0,0,.4-23.8,37.8,37.8,0,0,0-13.6-19A39.1,39.1,0,0,0,97.2,49.4Z" fill="#fefefe" opacity="0.28" style="mix-blend-mode:multiply"/><path d="M115.2,42.9,112.4,41a58.1,58.1,0,0,0-10.3-5.1,51.7,51.7,0,0,0-34.8,97.4h.1l3,1c-.6-11.3-.1-38.8,13.5-59.6A109.1,109.1,0,0,1,115.2,42.9Z" fill="#fefefe" opacity="0.28" style="mix-blend-mode:multiply"/><path d="M112.4,41l-2.7-1.6A51.3,51.3,0,0,0,36,67.3a51.6,51.6,0,0,0,28.8,65l2.5,1C66.7,122.5,67,94.2,80.8,73A111.8,111.8,0,0,1,112.4,41Z" fill="#fefefe" opacity="0.28" style="mix-blend-mode:multiply"/><path d="M109.7,39.4a35.9,35.9,0,0,0-3.4-1.7c-1.4-.7-2.8-1.2-4.2-1.8a51.7,51.7,0,0,0-40,95.2l2.7,1.2C64,122.1,64,93,78.2,71.3A111.1,111.1,0,0,1,109.7,39.4Z" fill="#fefefe" opacity="0.28" style="mix-blend-mode:multiply"/><path d="M106.3,37.7a23.9,23.9,0,0,0-3.7-1.5l-.5-.3a51.7,51.7,0,0,0-43.6,93.3,31.3,31.3,0,0,0,3.6,1.9c-.8-9.3-1.2-39.5,13.3-61.9A112.2,112.2,0,0,1,106.3,37.7Z" fill="#fefefe" opacity="0.28" style="mix-blend-mode:multiply"/><path d="M102.6,36.2l-.5-.3-3.8-1.2h0a51.7,51.7,0,0,0-43.5,92.1,29.2,29.2,0,0,0,3.7,2.4c-.8-9.7-1-39.5,13.4-61.6A111.4,111.4,0,0,1,102.6,36.2Z" fill="#fefefe" opacity="0.28" style="mix-blend-mode:multiply"/><path d="M98.3,34.7l-5.1-1.1a51.7,51.7,0,0,0-41.7,90.6,26.9,26.9,0,0,0,3.3,2.6c-.7-10.1-.8-39.3,13.4-61.1A114.1,114.1,0,0,1,98.3,34.7Z" fill="#fefefe" opacity="0.28" style="mix-blend-mode:multiply"/><path d="M93.2,33.6,89,33.1a51.7,51.7,0,0,0-40.6,88.4,40,40,0,0,0,3.1,2.7c-.7-10.4-.7-39.2,13.4-60.8A113.7,113.7,0,0,1,93.2,33.6Z" fill="#fefefe" opacity="0.28" style="mix-blend-mode:multiply"/><path d="M89,33.1l-4.3-.2a51.8,51.8,0,0,0-38.4,86.4l2.1,2.2c-.6-11.4,0-38.8,13.5-59.5A112.8,112.8,0,0,1,89,33.1Z" fill="#fefefe" opacity="0.28" style="mix-blend-mode:multiply"/><path d="M84.7,32.9a51.2,51.2,0,0,0-5.6.3,51.8,51.8,0,0,0-35.2,83.2l2.4,2.9c-.6-11.6.2-38.7,13.5-59.2A114.1,114.1,0,0,1,84.7,32.9Z" fill="#fefefe" opacity="0.28" style="mix-blend-mode:multiply"/><path d="M79.1,33.2c-2.3.3-4.6.7-6.8,1.2a51.8,51.8,0,0,0-31.4,77.7c1,1.5,1.9,2.9,3,4.3-.5-11.9.4-38.4,13.5-58.7A114.4,114.4,0,0,1,79.1,33.2Z" fill="#fefefe" opacity="0.28" style="mix-blend-mode:multiply"/><path d="M72.3,34.4a51.7,51.7,0,0,0-34.5,71.9,53.3,53.3,0,0,0,3.1,5.8c-.3-12.6,1.2-37.4,13.6-56.6A118,118,0,0,1,72.3,34.4Z" fill="#fefefe" opacity="0.28" style="mix-blend-mode:multiply"/><path d="M116.3,44.2a53,53,0,0,0-13.1-7,51.7,51.7,0,0,0-66,31.4A51,51,0,0,0,50.1,123,51.2,51.2,0,0,1,35.9,67.5,51.8,51.8,0,0,1,102,36.1,52.7,52.7,0,0,1,115.1,43a57.2,57.2,0,0,1,5.3,4.5A42.3,42.3,0,0,0,116.3,44.2Z" fill="url(#d)" style="mix-blend-mode:screen"/><path d="M118,96.8a35.4,35.4,0,0,0-12.8-40.6A31.1,31.1,0,0,0,99.9,53l-3.4-1.4a35.4,35.4,0,1,0-23.8,66.7,33.1,33.1,0,0,0,10.6,2,30.8,30.8,0,0,0,6.1-.3A35.3,35.3,0,0,0,118,96.8ZM113.3,95a30.2,30.2,0,0,1-38.9,18.5,35.1,35.1,0,0,1-4.8-2.2A30.5,30.5,0,0,1,94.9,56.1h.3A30.6,30.6,0,0,1,113.3,95Z" fill="url(#e)"/><path d="M96.5,51.5a35.4,35.4,0,0,0-29.4,64.1,36.8,36.8,0,0,0,5.7,2.6A35.4,35.4,0,0,0,96.9,51.7Z" opacity="0.06" fill="url(#f)" style="mix-blend-mode:multiply"/><path d="M96.3,52a34.9,34.9,0,0,0-28.9,63.2,34.3,34.3,0,0,0,5.5,2.5A34.9,34.9,0,0,0,96.7,52.1Z" fill="#fbfbfb" opacity="0.11" style="mix-blend-mode:multiply"/><path d="M96.2,52.4a34.5,34.5,0,0,0-28.6,62.4,46,46,0,0,0,5.5,2.5A34.4,34.4,0,0,0,96.6,52.6Z" fill="#f5f5f5" opacity="0.41" style="mix-blend-mode:multiply"/><path d="M96,52.9a33.9,33.9,0,0,0-28.1,61.4,36.5,36.5,0,0,0,5.3,2.5A33.9,33.9,0,0,0,96.4,53Z" fill="#fbfbfb" opacity="0.41" style="mix-blend-mode:multiply"/><path d="M95.9,53.3a33.5,33.5,0,0,0-27.8,60.6,36.5,36.5,0,0,0,5.3,2.5A33.5,33.5,0,0,0,96.2,53.5C96.2,53.4,96,53.4,95.9,53.3Z" fill="#fbfbfb" opacity="0.41" style="mix-blend-mode:multiply"/><path d="M95.7,53.8a33,33,0,0,0-27.4,59.7,42.7,42.7,0,0,0,5.3,2.4,33,33,0,0,0,22.5-62Z" fill="#fbfbfb" opacity="0.41" style="mix-blend-mode:multiply"/><path d="M95.5,54.2a32.5,32.5,0,0,0-26.9,58.9,29.4,29.4,0,0,0,5.1,2.3,32.5,32.5,0,0,0,22.2-61Z" fill="#fbfbfb" opacity="0.59" style="mix-blend-mode:multiply"/><path d="M95.4,54.7a32,32,0,0,0-26.6,57.9,23.8,23.8,0,0,0,5.1,2.4A32,32,0,0,0,95.7,54.8Z" fill="#fbfbfb" opacity="0.59" style="mix-blend-mode:multiply"/><path d="M95.2,55.2a31.5,31.5,0,0,0-26.2,57,29.4,29.4,0,0,0,5.1,2.3A31.5,31.5,0,0,0,95.6,55.3Z" fill="#fbfbfb" opacity="0.3" style="mix-blend-mode:multiply"/><path d="M113.9,95.3A31,31,0,0,0,98,56.9a20.6,20.6,0,0,0-2.6-1.2H95a31,31,0,0,0-25.7,56.2,27.5,27.5,0,0,0,4.9,2.3,31.1,31.1,0,0,0,39.7-18.8Z" fill="#fbfbfb" opacity="0.3" style="mix-blend-mode:multiply"/><path d="M113.4,95A30.6,30.6,0,0,0,99,57.9l-3.8-1.7h-.3A30.5,30.5,0,0,0,56,74.5,30.5,30.5,0,0,0,69.2,111l.4.2a26.5,26.5,0,0,0,4.8,2.3,29.7,29.7,0,0,0,19.3.3A30.2,30.2,0,0,0,113.4,95Z" opacity="0.48" fill="url(#g)"/><g style="mix-blend-mode:screen"><path d="M68.6,116.4l-.9-.3-1.1-.6,2.9,1.2Z" opacity="0.32" fill="url(#h)" style="mix-blend-mode:screen"/></g><path d="M105.2,56.2a22.6,22.6,0,0,0-4.2-2.6L99.9,53l-3.4-1.4a35.4,35.4,0,1,0-23.8,66.7,34,34,0,0,0,8.1,1.9h2.5a6.4,6.4,0,0,1,.4-5A24.8,24.8,0,0,1,81,115a26.2,26.2,0,0,1-6.6-1.5,35.1,35.1,0,0,1-4.8-2.2A30.5,30.5,0,0,1,94.9,56.1h.3l3.2,1.4a41.1,41.1,0,0,1,3.9,2.4A5,5,0,0,1,105.2,56.2Z" fill="#fbfbfb" opacity="0.28" style="mix-blend-mode:multiply"/><path d="M80.8,120.2a11.8,11.8,0,0,1,0-4.2,4.4,4.4,0,0,1,.2-1,20.4,20.4,0,0,1-4.3-.8l-2.3-.7a35.1,35.1,0,0,1-4.8-2.2A30.5,30.5,0,0,1,93.7,55.7l1.2.4h.3l3.2,1.4a4.7,4.7,0,0,1,2.6-4L99.9,53l-3.4-1.4-.7-.2a35.4,35.4,0,0,0-23.1,66.9l3.3,1A40.5,40.5,0,0,0,80.8,120.2Z" fill="url(#i)" style="mix-blend-mode:soft-light"/><path d="M76.7,114.2l-2.3-.7-.4-.2a21.9,21.9,0,0,1-4.4-2A30.5,30.5,0,0,1,91.3,55.1l2.4.6c-.5-1-1.1-3.3,2.1-4.3a28.5,28.5,0,0,0-3.9-1.1,35.4,35.4,0,0,0-19.2,68h.4a16.1,16.1,0,0,0,2.9.9C75.5,117.8,75.2,115.8,76.7,114.2Z" fill="#fbfbfb" opacity="0.1" style="mix-blend-mode:multiply"/><path d="M74,113.3l-2.3-.9-2.1-1.1A30.5,30.5,0,0,1,87.8,54.5a19.7,19.7,0,0,1,3.5.6,3.3,3.3,0,0,1,.6-4.8l-3.2-.5A35.4,35.4,0,0,0,70,117.2l2.7,1.1h.4a10.3,10.3,0,0,1,.2-3.4A6.1,6.1,0,0,1,74,113.3Z" fill="#fbfbfb" opacity="0.12" style="mix-blend-mode:multiply"/><path d="M71.7,112.4l-2.1-1.1-.6-.4A30.5,30.5,0,0,1,84,54.3l3.8.2a4.1,4.1,0,0,1,.9-4.7,34,34,0,0,0-4.5-.3,35.5,35.5,0,0,0-17.4,66.1,31.8,31.8,0,0,0,3.2,1.6A4.8,4.8,0,0,1,71.7,112.4Z" fill="#fbfbfb" opacity="0.12" style="mix-blend-mode:multiply"/><path d="M56,74.6a30.5,30.5,0,0,1,24.6-20l3.4-.3c-.9-.8-2.5-2.9.2-4.8l-4.2.3a35.4,35.4,0,0,0-15.2,64.5l2,1.3a6.3,6.3,0,0,1,2.2-4.7l-2.2-1.4A30.4,30.4,0,0,1,56,74.6Z" fill="#fbfbfb" opacity="0.12" style="mix-blend-mode:multiply"/><path d="M56,74.6A30.6,30.6,0,0,1,77.7,55.1l2.9-.5c-.9-.6-2.8-2.5-.6-4.8l-3.9.8a35.3,35.3,0,0,0-13.8,61.8l2.5,1.9a7.6,7.6,0,0,1,2-4.8L64.9,108A30.4,30.4,0,0,1,56,74.6Z" fill="#fbfbfb" opacity="0.12" style="mix-blend-mode:multiply"/><path d="M62.5,114l-.4-.2v.2Z" fill="#fefefe"/><path d="M56,74.6A30.2,30.2,0,0,1,74,56.3a26.5,26.5,0,0,1,3.7-1.2s-3.3-1-1.6-4.5a20.7,20.7,0,0,0-3.3,1h0a35.3,35.3,0,0,0-13.1,58.5l2.6,2.3a7.7,7.7,0,0,1,2.6-4.4l-2.3-2.2A30.3,30.3,0,0,1,56,74.6Z" fill="#fbfbfb" opacity="0.12" style="mix-blend-mode:multiply"/><path d="M56,74.6A30.2,30.2,0,0,1,70.5,57.8,21.7,21.7,0,0,1,74,56.3s-4.5-2-1.2-4.7a27.3,27.3,0,0,0-5.5,2.5,35.3,35.3,0,0,0-16.1,19,35.7,35.7,0,0,0,5.3,33.4,27.4,27.4,0,0,0,3.2,3.6,4.7,4.7,0,0,1,2.9-4.3,27.5,27.5,0,0,1-2.2-2.6A30.3,30.3,0,0,1,56,74.6Z" fill="#fefefe" opacity="0.28" style="mix-blend-mode:multiply"/><path d="M56,74.5A30.9,30.9,0,0,1,70.5,57.7c-1-.6-3.1-2-3.2-3.7a35.4,35.4,0,0,0-10.7,52.4,4.3,4.3,0,0,1,3.8-3.3A30.3,30.3,0,0,1,56,74.5Z" fill="#fefefe" opacity="0.28" style="mix-blend-mode:multiply"/><path d="M59.1,76.1c2.3-9.3,8.2-17.9,13.5-24.1a33.8,33.8,0,0,0-15.1,54,16.5,16.5,0,0,0-.2-2.1A83.7,83.7,0,0,1,59.1,76.1Z" fill="#fefefe" style="mix-blend-mode:multiply"/><path d="M57.6,124c1.3.8,2.5-1.2,1.3-2.3-6.1-5.1-15.2-17.2-16.8-29.3-2.5-18.4,9.1-37,21.2-44.3S51.5,44.3,41.9,61,34,93.2,40.2,104.6,50.7,119.6,57.6,124Z" opacity="0.49" fill="url(#j)" style="mix-blend-mode:screen"/><path d="M58.9,75c-5.6,15.7,3.4,33.3,20.1,39.3a48.4,48.4,0,0,1-5.1-1.4c-16.7-6-25.7-23.5-20.1-39.3,4.5-12.6,17-20.2,30.4-19.7.3,5.7-.1-4.1.1,1.6C72.9,56.8,62.8,64,58.9,75Z" fill="#fefefe" style="mix-blend-mode:multiply"/><path d="M73.1,117.9a35.7,35.7,0,0,1-10.3-5.8,39.6,39.6,0,0,0,4.7,2.1c18.2,6.5,39.8-2,46.3-20.1,5.1-14.3-1.4-30.8-12.5-39.8a34.9,34.9,0,0,1-28.2,63.6Z" opacity="0.47" fill="url(#k)" style="mix-blend-mode:screen"/><path d="M98.9,112.4a49.1,49.1,0,0,0,11.7-11.8c5-7.3,4-15.5,5.7-16.1s3.2,6.1.3,12.9-5.1,9.3-9.5,12.7S98.5,113.2,98.9,112.4Z" fill="url(#l)" style="mix-blend-mode:screen"/><path d="M113.4,95A30.6,30.6,0,0,0,95.2,56.2h-.3A30.4,30.4,0,0,0,71,57.5c-.8.5-1.7.9-2.5,1.5A51.2,51.2,0,0,1,81.9,71.4c9,12.1,11.3,33.5,11.8,42.4l2-.6A30.6,30.6,0,0,0,113.4,95Z" fill="#fefefe" opacity="0.49" style="mix-blend-mode:multiply"/><path d="M113.4,95A30.6,30.6,0,0,0,95.2,56.2h-.3a30,30,0,0,0-21.9.5l-2,.9c5.6,3.9,13.3,10.3,17.5,18.4,7.7,14.8,7.4,32.9,7.2,37.3l2.6-1.2A30.6,30.6,0,0,0,113.4,95Z" fill="#fefefe" opacity="0.49" style="mix-blend-mode:multiply"/><path d="M113.4,95A30.6,30.6,0,0,0,95.2,56.2h-.3a29.7,29.7,0,0,0-19.5-.3l-2.4.8C78.6,60.4,86.7,67,91.1,75.4c7.3,14.1,7.4,31.3,7.2,36.6l2.7-1.5A30.5,30.5,0,0,0,113.4,95Z" fill="#fefefe" opacity="0.49" style="mix-blend-mode:multiply"/><path d="M113.4,95A30.6,30.6,0,0,0,95.2,56.2h-.3A30.3,30.3,0,0,0,78.1,55l-2.7.8c5.5,3.7,13.9,10.4,18.3,18.9,7.1,13.5,7.4,29.7,7.3,35.8l2.8-2A30.9,30.9,0,0,0,113.4,95Z" fill="#fefefe" opacity="0.49" style="mix-blend-mode:multiply"/><path d="M113.4,95A30.6,30.6,0,0,0,95.2,56.2h-.3a28.7,28.7,0,0,0-12.2-1.7,36.2,36.2,0,0,0-4.6.6c5.6,3.8,14,10.5,18.5,19,6.5,12.6,7.3,27.6,7.2,34.5l2.3-2.1A30.2,30.2,0,0,0,113.4,95Z" fill="#fefefe" opacity="0.49" style="mix-blend-mode:multiply"/><path d="M113.4,95A30.6,30.6,0,0,0,95.2,56.2h-.3A31.3,31.3,0,0,0,86,54.3H82.7c5.4,3.9,12.3,9.9,16.2,17.3,6.6,12.7,7.3,27.9,7.2,34.7l2-2.1A32.6,32.6,0,0,0,113.4,95Z" fill="#fefefe" opacity="0.49" style="mix-blend-mode:multiply"/><path d="M113.4,95A30.6,30.6,0,0,0,95.2,56.2h-.3l-2.4-.8a36.5,36.5,0,0,0-6.5-1c5.2,3.9,11.3,9.6,14.8,16.4,6.3,12.1,7.2,26.3,7.3,33.6a44.3,44.3,0,0,0,2.9-4.2A39.8,39.8,0,0,0,113.4,95Z" fill="#fefefe" opacity="0.49" style="mix-blend-mode:multiply"/><path d="M113.4,95a30.5,30.5,0,0,0-16-37.9h0l-2.2-.9h-.3l-2.4-.8a47.2,47.2,0,0,1,11.3,13.6c5.6,10.9,6.9,23.6,7.2,31.2a29.8,29.8,0,0,0,2.1-4.4Z" fill="#fefefe" opacity="0.49" style="mix-blend-mode:multiply"/><path d="M113.4,95a30.5,30.5,0,0,0-16-37.9,43.7,43.7,0,0,1,8.7,11.2c4.8,9.2,6.4,19.8,7,27.4Z" fill="#fefefe" opacity="0.49" style="mix-blend-mode:multiply"/><path d="M132.8,101.8a51.8,51.8,0,0,0-28.7-65l-2.6-1-1.4-.4c-.4,1.7-.7,3.5-1,5.5C92.6,84.9,73,120,65.3,132.5l1.6.6,2.3.8A51.8,51.8,0,0,0,132.8,101.8Z" fill="#fefefe" opacity="0.49" style="mix-blend-mode:multiply"/><path d="M132.8,101.8a51.7,51.7,0,0,0-25.5-63.5l-3.2-1.5c-.4,1.7-.8,3.5-1.1,5.5-6.5,44-26,79-33.8,91.6l3.7.9A51.6,51.6,0,0,0,132.8,101.8Z" fill="#fefefe" opacity="0.49" style="mix-blend-mode:multiply"/><path d="M132.8,101.8a51.6,51.6,0,0,0-22.2-61.7l-3.3-1.8c-.4,1.8-.8,3.7-1.1,5.8C99.9,87.2,81,121.7,72.9,134.8l3.8.7A51.5,51.5,0,0,0,132.8,101.8Z" fill="#fefefe" opacity="0.49" style="mix-blend-mode:multiply"/><path d="M132.8,101.8a51.7,51.7,0,0,0-18.2-59,35.1,35.1,0,0,0-4-2.7c-.4,1.7-.8,3.5-1.1,5.5-6.2,42.2-24.5,76.2-32.8,89.9a39.1,39.1,0,0,0,4.8.5A51.5,51.5,0,0,0,132.8,101.8Z" fill="#fefefe" opacity="0.49" style="mix-blend-mode:multiply"/><path d="M132.8,101.8a51.6,51.6,0,0,0-14.6-56.1,35.1,35.1,0,0,0-3.6-2.9c-.2,1.3-.5,2.6-.7,4-6.1,41.5-23.8,75-32.4,89.2h5.3A51.6,51.6,0,0,0,132.8,101.8Z" fill="#fefefe" opacity="0.49" style="mix-blend-mode:multiply"/><path d="M132.8,101.8a51.6,51.6,0,0,0-14.6-56.1l-.6,3.8c-5.8,39.1-21.9,71.1-30.8,86.5A51.6,51.6,0,0,0,132.8,101.8Z" fill="#fefefe" opacity="0.49" style="mix-blend-mode:multiply"/><path d="M113,94.9a30.2,30.2,0,0,0-8.8-33,29.5,29.5,0,0,0-9.4-5.5l-.8-.3-2.1-.6a30.1,30.1,0,0,0-20.5,56.3l2.2,1,1,.3a29.8,29.8,0,0,0,15,1.4A30.3,30.3,0,0,0,113,94.9Z" opacity="0.21" fill="url(#m)" style="mix-blend-mode:screen"/><path d="M95.7,56.4A30.5,30.5,0,0,0,75,113.5l.3.2-.8-.3-.9-.4-2.3-1A30.5,30.5,0,0,1,92.1,55a8.3,8.3,0,0,1,2.1.6l.8.2L97.9,57Z" opacity="0.06" fill="url(#n)" style="mix-blend-mode:multiply"/><path d="M92.7,55.5a30.6,30.6,0,0,0-20.8,57.1l.4.2-.8-.3-.7-.3.7.3-.3-.2A30.6,30.6,0,0,1,92,55.2l2.1.6-2.3-.9H92l2.8,1.2Z" opacity="0.3" fill="url(#o)" style="mix-blend-mode:multiply"/><path d="M112.5,94.6A28.6,28.6,0,0,0,95.1,57.9l-.7-.3L92.3,57a28.7,28.7,0,0,0-19.5,53.7l2.1,1,.9.3A28.7,28.7,0,0,0,112.5,94.6Z" opacity="0.21" fill="url(#p)" style="mix-blend-mode:screen"/><g style="mix-blend-mode:multiply"><path d="M75.2,113.9h-.1A.1.1,0,0,0,75.2,113.9Z" opacity="0.06" fill="url(#q)" style="mix-blend-mode:multiply"/><path d="M94.2,56.3h-.1a30.6,30.6,0,0,0-22.7,56.1h-.2A30.6,30.6,0,0,1,92,55.2l2.1.6.8.3a14.8,14.8,0,0,1,2.9,1.2,7.9,7.9,0,0,0-2.2-.6Z" opacity="0.06" fill="url(#r)" style="mix-blend-mode:multiply"/></g><path d="M70.7,110.1l2.3,1,.9.4a30.7,30.7,0,0,0,40.6-33.9,30.7,30.7,0,0,1-40.2,35.8l-.9-.4-2.3-1A30.7,30.7,0,0,1,54.3,89.5,30.8,30.8,0,0,0,70.7,110.1Z" opacity="0.09" fill="url(#s)" style="mix-blend-mode:multiply"/><path d="M72.6,117.3a35.4,35.4,0,0,0,45.3-45.1A35.4,35.4,0,1,1,52.5,99.1,35.1,35.1,0,0,0,72.6,117.3Z" fill="#fafafa" opacity="0.27" style="mix-blend-mode:multiply"/><path d="M49.5,78.8a35.5,35.5,0,0,1,61.7-17.1,35.5,35.5,0,1,0-55.8,43.6A35.5,35.5,0,0,1,49.5,78.8Z" fill="#fafafa" opacity="0.23" style="mix-blend-mode:screen"/><path d="M111.4,94.7A28.5,28.5,0,1,0,75,112,28.5,28.5,0,0,0,111.4,94.7Zm0,0a28,28,0,1,1-17-35.8A28,28,0,0,1,111.4,94.7Z" opacity="0.35" fill="url(#t)" style="mix-blend-mode:screen"/><path d="M129.1,61.4c9.6,19.5,5.9,40.1-5.7,54.3,9.3-14.6,11.1-34.1.9-52.3A46.7,46.7,0,0,0,92.4,40.3C71.9,36.4,53.9,44.2,43,57.6c9.9-15.5,28.2-25.4,49.8-22.5A47.8,47.8,0,0,1,129.1,61.4Z" opacity="0.02" fill="url(#u)" style="mix-blend-mode:multiply"/><path d="M68.9,79.5c-3.7,10.4.5,26.2,0,26C59.1,102,55.5,87,59.5,75.8S76,54.7,85.8,58.2C86.4,58.4,72.7,68.9,68.9,79.5Z" opacity="0.38" fill="url(#v)" style="mix-blend-mode:screen"/><path d="M117.6,96.7A35.3,35.3,0,0,0,108,58.5h-2.9A35.6,35.6,0,0,1,87,117.9a17.7,17.7,0,0,0,3.3,1.9A35.6,35.6,0,0,0,117.6,96.7Z" opacity="0.67" fill="url(#w)" style="mix-blend-mode:screen"/><path d="M103.9,112a1,1,0,0,1-.1-1.6,25.3,25.3,0,0,0,5.9-6,19.4,19.4,0,0,0,1.8-3.4,1,1,0,0,1,1.4-.4l.5.2a1.1,1.1,0,0,1,.5,1.4c-1.1,2.1-4.3,7.4-8.8,9.9a1,1,0,0,1-1.2-.1Z" fill="#fff"/><path d="M114.8,97.8a1,1,0,0,1-.8-1.4,23.7,23.7,0,0,0,2.1-8.4,20.5,20.5,0,0,0-.1-3.9,1.1,1.1,0,0,1,1.1-1.1h.5a1.2,1.2,0,0,1,1.2,1c0,2.4-.1,8.8-2.8,13.3a1.7,1.7,0,0,1-1.2.5Z" fill="#fff" opacity="0.95"/><path d="M34.8,98a51.6,51.6,0,1,0,98.8-29.5,50.4,50.4,0,0,1,1.7,13A51.6,51.6,0,0,1,34.8,98Z" opacity="0.02" fill="url(#x)" style="mix-blend-mode:multiply"/><path d="M157,134.9a3.4,3.4,0,0,1-2.2,1.3h-1.5a6.6,6.6,0,0,1-2.1-.3H151a3.8,3.8,0,0,1-1.4-1.1,6.4,6.4,0,0,1-.5-3.2,32.5,32.5,0,0,1,.2-4.2l1.2-34.4.2-2.9h0q-.1-1.4-.3-2.4a9.2,9.2,0,0,0-2.5-4.7h0a2.8,2.8,0,0,0-1-.8,3.1,3.1,0,0,1-1.1-2V73.8c0-.8.1-1.6.1-2.4v-2c.1-1.5.2-2.8.2-4.1a13.4,13.4,0,0,0,.1-2,2.8,2.8,0,0,0,.1-.9v-.5c0-.3.1-.6.1-.9s.1-.8.1-1.2.3-3.2.4-4.6.1-.3.1-.5a1.5,1.5,0,0,1,.1-.7c0-.5.1-.9.1-1.3l.3-2a1.9,1.9,0,0,0,.1-.8.1.1,0,0,0,.1-.1,1.7,1.7,0,0,1,.1-.7c.5-2.8,1-5,1.5-6.9h0l.7-2.1.7-1.8.6-1.1c.9-1.7,1.7-2.3,2.3-2.4s1,.3,1.2.5a.1.1,0,0,0,.1.1h0V87.6c.1,1.3.1,2.7.2,4.1h0c0,1.4.1,2.9.2,4.4s.1,3.8.2,5.7c.4,6.4.7,12.6,1.1,17C157.3,127.7,158.1,133.3,157,134.9Z" fill="url(#y)"/><path d="M156.7,134.7a.5.5,0,0,1-.3.4,3,3,0,0,1-1.7.8h-1.4a6.4,6.4,0,0,1-2-.3h-.2a2.7,2.7,0,0,1-1.3-1v-.2h0a10.6,10.6,0,0,1-.3-4c0-.9.1-1.9.2-3L151,90.2c-.1-.6-.1-1.2-.2-1.7a5,5,0,0,0-.3-1.3h0a.6.6,0,0,0-.1-.4h0c0-.1-.1-.2-.1-.3a10.4,10.4,0,0,0-.4-1v-.2a3.5,3.5,0,0,0-.5-.8,2.2,2.2,0,0,0-.5-.8l-.4-.5-.5-.4-.8-.7H147a2.5,2.5,0,0,1-.9-2v-4c0-2.5.1-4.9.2-7.2h0c.1-2.5.2-4.7.3-6.8s.1-1.4.2-2.1h0c.1-2,.3-3.8.5-5.4s.6-4.5,1-6.3.3-1.6.4-2.3a13.6,13.6,0,0,0,.4-1.7l.3-.9c.3-1.2.6-2.2.9-3.1h0c.1-.1.1-.3.2-.4a17.4,17.4,0,0,1,1-2.3h.1c.7-1.4,1.5-2.2,2.1-2.3h.1l.5.2.3.3V86.1h0V87a9.7,9.7,0,0,0,.1,1.7v1.5c.1,1.4.1,2.9.2,4.4h0c.4,8.8.9,18.5,1.4,24.3.1,1.6.3,3.1.4,4.5C157.2,129.5,157.5,133.5,156.7,134.7Z" fill="url(#z)"/><path d="M154.7,88.7a11.4,11.4,0,0,0-4.4-2.3,9,9,0,0,0-2.4-3.7l-.8-.7H147a2.5,2.5,0,0,1-.9-2c0-23,2.2-34.5,4.4-40.2a13.3,13.3,0,0,1,1.1-2.4c.7-1.4,1.5-2.3,2.2-2.3l.5.2.3.3V86.8A12.1,12.1,0,0,0,154.7,88.7Z" opacity="0.5" fill="url(#aa)" style="mix-blend-mode:multiply"/><path d="M154.7,88.7s-2.2-4.2-4.8-3.3a6.2,6.2,0,0,0-1-1.6,3.6,3.6,0,0,0-1-1.1l-.8-.7H147a2.5,2.5,0,0,1-.9-2c0-23,2.2-34.5,4.4-40.2a13.3,13.3,0,0,1,1.1-2.4,4.9,4.9,0,0,1,1.5-2l.6-.3c0,5.6-.1,28.5,0,36.9A167,167,0,0,0,154.7,88.7Z" opacity="0.17" fill="url(#ab)" style="mix-blend-mode:multiply"/><path d="M153.1,35.3c-.2,6.7-.6,25.1-.6,36.6,0,8.4-.5,10.4-1.4,11.1s-1.3.3-2.2.8a3.6,3.6,0,0,0-1-1.1l-.8-.7H147a2.5,2.5,0,0,1-.9-2c0-23,2.2-34.5,4.4-40.2a13.3,13.3,0,0,1,1.1-2.4l.6-1.1Z" opacity="0.17" fill="url(#ac)" style="mix-blend-mode:multiply"/><path d="M151.1,83c.1,2.2-.4,1.6-2.2.8a3.6,3.6,0,0,0-1-1.1c-.1-.2-.3-.3-.4-.4l-.4-.3H147a2.5,2.5,0,0,1-.9-2c0-23,2.2-34.5,4.4-40.2a1.4,1.4,0,0,0,.2-.7l.9-1.7.6-1.1c-.3,6.7-1.8,39.7-1.2,45.4C151,82.2,151.1,82.6,151.1,83Z" opacity="0.08" fill="url(#ad)" style="mix-blend-mode:multiply"/><path d="M150.7,39c-.2,5.9-.9,19.8-1.1,30.3-.2,7.3-1.1,11.3-2.1,13l-.4-.3H147a2.5,2.5,0,0,1-.9-2c0-23,2.2-34.5,4.4-40.2A1.4,1.4,0,0,0,150.7,39Z" opacity="0.07" fill="url(#ae)" style="mix-blend-mode:multiply"/><path d="M154.6,87a3.3,3.3,0,0,0-1.5-.4,4.4,4.4,0,0,0-2.6.5.6.6,0,0,0-.1-.4h0c0-.1-.1-.2-.1-.3a10.4,10.4,0,0,0-.4-1,7.8,7.8,0,0,0-2-2.7l-.8-.7H147a2.5,2.5,0,0,1-.9-2c0-19.1,1.5-30.2,3.3-36.7,1.1,4.6,2.8,10.3,5.2,13.8V87Z" fill="url(#af)" style="mix-blend-mode:multiply"/><path d="M154.6,86a7,7,0,0,0-4.8-.8,7.7,7.7,0,0,0-1.9-2.5l-.8-.7H147a2.5,2.5,0,0,1-.9-2c0-14.9.9-25,2.2-31.8,1.3,3.7,3.4,8.4,6.3,10.7V86Z" opacity="0.73" fill="url(#ag)" style="mix-blend-mode:multiply"/><path d="M154.6,73.5V84.3c-1.1-.7-2.8-1.3-5.8-.7l-.9-.9-.8-.7H147a2.5,2.5,0,0,1-.9-2c0-4.1,0-7.8.2-11.2C148.4,70.7,151.6,73.1,154.6,73.5Z" fill="url(#ah)" style="mix-blend-mode:multiply"/><path d="M154.6,55.6V82c-1.5-1.6-5.3-.8-8-3.5-.8-.8.9-15.2,0-16.6a114.9,114.9,0,0,1,1.7-13.8,40.4,40.4,0,0,1,1.1-4.9,20.8,20.8,0,0,1,1.1-3.5,17.4,17.4,0,0,1,1-2.3,51.2,51.2,0,0,0,1.3,12A37.6,37.6,0,0,0,154.6,55.6Z" opacity="0.31" fill="url(#ai)" style="mix-blend-mode:multiply"/><path d="M154.9,35.4V60.3c-1.3-3.5-2.1-6.9-3.4-6.7s-4.1,5-5.2,8.3c0-.3.1-.6.1-.9s.1-.8.1-1.2a16.4,16.4,0,0,1,.2-2.2c.1-.8.1-1.6.2-2.4s.1-.3.1-.5a1.5,1.5,0,0,1,.1-.7c0-.5.1-.9.1-1.3l.3-2a1.9,1.9,0,0,0,.1-.8c.1-.3.1-.5.2-.8.5-2.8,1-5,1.5-6.9h0l.7-2.1.7-1.8.6-1.1c1.9-3.6,3.2-2.3,3.5-1.9a.1.1,0,0,0,.1.1Z" opacity="0.15" fill="url(#aj)" style="mix-blend-mode:screen"/><path d="M154.9,35.4V57.3c-.8-2.3-2-5.2-3.3-5.6s-3.7,3.5-4.9,5.9c.1-.8.1-1.6.2-2.4s.1-.3.1-.5v-.2a4.3,4.3,0,0,1,.1-.5c0-.5.1-.9.1-1.3l.3-2a1.9,1.9,0,0,0,.1-.8c.1-.3.1-.5.2-.8.5-2.8,1-5,1.5-6.9h0l.7-2.1.7-1.8.6-1.1c1.9-3.6,3.2-2.3,3.5-1.9a.1.1,0,0,0,.1.1Z" opacity="0.15" fill="url(#ak)" style="mix-blend-mode:screen"/><path d="M154.9,35.4v19c-.8-2-2-3.7-3.5-3.8s-3.3,2.2-4.4,3.9a4.3,4.3,0,0,1,.1-.5c0-.5.1-.9.1-1.3l.3-2a1.9,1.9,0,0,0,.1-.8c.1-.3.1-.5.2-.8.5-2.8,1-5,1.5-6.9h0l.7-2.1.7-1.8.6-1.1c1.9-3.6,3.2-2.3,3.5-1.9a.1.1,0,0,0,.1.1Z" opacity="0.15" fill="url(#al)" style="mix-blend-mode:screen"/><path d="M154.9,94.6h0a72.8,72.8,0,0,1-.8-12.3c.4-5-.1-38-1.2-39.7s-2.7-.4-3.8,1.5l.3-.9a20.8,20.8,0,0,1,1.1-3.5,17.4,17.4,0,0,1,1-2.3h.1c.7-1.4,1.5-2.2,2.1-2.3h.1l.5.2.3.3V86h0V87a9.7,9.7,0,0,0,.1,1.7v1.5C154.8,91.6,154.8,93.1,154.9,94.6Z" opacity="0.12" fill="url(#am)" style="mix-blend-mode:screen"/><path d="M148.4,50.9s2.3-12.5,4.7-14.7c0,0,.7-.8.6,2.8s-.6,28.5-.6,28.5-.5-19.4-1.1-21.4S148.4,50.9,148.4,50.9Z" opacity="0.03" fill="url(#an)" style="mix-blend-mode:multiply"/><path d="M154.9,35.4v8.3a8.7,8.7,0,0,1-1.5,1.3c-2.8,1.8-1.9,8.6-2,11.7s1.1,10.3-.9,5.2c-1-2.4-2-7.4-2.8-12.1a1.7,1.7,0,0,1,.1-.7c.5-2.8,1-5,1.5-6.9h0l.7-2.1.7-1.8.6-1.1c1.9-3.6,3.2-2.3,3.5-1.9a.1.1,0,0,0,.1.1Z" opacity="0.63" fill="url(#ao)" style="mix-blend-mode:screen"/><path d="M150.3,46.6a170.3,170.3,0,0,0-2.1,36.8l-.3-.3-.2-.2-.8-.6a3,3,0,0,1-1.1-2.4c0-28.2,3.3-38.7,5.5-42.7a4.6,4.6,0,0,1,2.1-2.4h.4l.5.2A34.9,34.9,0,0,0,150.3,46.6Z" opacity="0.22" fill="url(#ap)" style="mix-blend-mode:screen"/><path d="M149.8,46.3a168.8,168.8,0,0,0-2.1,36.6l-.5-.4-.3-.2a3,3,0,0,1-1.1-2.4c0-28.2,3.3-38.7,5.5-42.7a6,6,0,0,1,1.8-2.3h.7A35,35,0,0,0,149.8,46.3Z" opacity="0.22" fill="url(#aq)" style="mix-blend-mode:screen"/><path d="M149.3,46.2a165.9,165.9,0,0,0-2.1,36.3l-.3-.2-.3-.3a3.2,3.2,0,0,1-.8-2.1c0-28.2,3.3-38.7,5.5-42.7l.6-1.1h0l1.2-1.2A36.3,36.3,0,0,0,149.3,46.2Z" opacity="0.22" fill="url(#ar)" style="mix-blend-mode:screen"/><path d="M148.7,46.2c-1.4,8.4-2.9,23.1-2.1,35.8a3.2,3.2,0,0,1-.8-2.1c0-28.2,3.3-38.7,5.5-42.7l.6-1.1A38.8,38.8,0,0,0,148.7,46.2Z" opacity="0.22" fill="url(#as)" style="mix-blend-mode:screen"/><path d="M154.6,75.7v6.8c-.7-.2-1.6.2-2.8.2l-1.6.2a3.4,3.4,0,0,0-1.5.6l-.3-.4-.5-.4-.8-.7H147a2.1,2.1,0,0,1-.9-1.8h0V76.6l1.9-1a9.3,9.3,0,0,1,2.9-.5A8.2,8.2,0,0,1,154.6,75.7Z" fill="url(#at)" style="mix-blend-mode:multiply"/><path d="M154.3,36.2l-.5,32.3.8,14s-4.3-13.1-4.6-22.8S152.4,33.1,154.3,36.2Z" opacity="0.64" fill="url(#au)" style="mix-blend-mode:multiply"/><path d="M154.8,83.8s-4-14.4-4.3-24.1,2.1-25,4-23.9l.3.3-.5,32.4.4,11.9Z" opacity="0.64" fill="url(#av)" style="mix-blend-mode:multiply"/><path d="M154.8,79.8c-1.2-4.2-3.5-13.1-3.7-20.3s1.6-21.9,3.4-23.7l.3.3v.2l-.5,32.2.5,8.7Z" opacity="0.64" fill="url(#aw)" style="mix-blend-mode:multiply"/><path d="M154.8,38.9l-.5,29.6.2,4.4.3,4.3a83.5,83.5,0,0,1-3.1-17.7c-.2-7.8,1.4-20.2,3.1-23.2Z" opacity="0.64" fill="url(#ax)" style="mix-blend-mode:multiply"/><path d="M154.3,68.5l.2,4.4a76.1,76.1,0,0,1-1.9-13.3,87.6,87.6,0,0,1,2.2-20.7Z" opacity="0.64" fill="url(#ay)" style="mix-blend-mode:multiply"/><path d="M150.5,87.2h0a.6.6,0,0,0-.1-.4h0c0-.1-.1-.2-.1-.3s0-.2-.1-.2l-.3-.8v-.2a11.2,11.2,0,0,0-1-1.6l-.4-.5-.5-.4-.8-.7H147a2.5,2.5,0,0,1-.9-2v-4c0-2.6.1-5,.2-7.2a27.1,27.1,0,0,1,.1-2.9h0c.1-1.4.1-2.7.2-3.9s.1-1.4.2-2.1c.4,5.7,1.4,14,3,17.7S151.5,85.2,150.5,87.2Z" opacity="0.64" fill="url(#az)" style="mix-blend-mode:multiply"/><path d="M150.2,86.2l-.3-.8v-.2l-.3-.6-.7-1h-.1l-.3-.4-.5-.4-.8-.7H147a2.1,2.1,0,0,1-.9-1.8h0v-4c0-1.5,0-2.9.1-4.3a27.1,27.1,0,0,1,.1-2.9,27.1,27.1,0,0,1,.1-2.9,80.3,80.3,0,0,0,1.6,9.8c.3,1.1.6,2,.9,2.8a17.2,17.2,0,0,1,1.3,4.5A9.1,9.1,0,0,1,150.2,86.2Z" opacity="0.64" fill="url(#ba)" style="mix-blend-mode:multiply"/><path d="M149.5,84.6l-.7-1-.4-.5-.4-.3h-.1l-.8-.7H147a2.5,2.5,0,0,1-.9-2v-4c0-1.5,0-2.9.1-4.3a36.6,36.6,0,0,0,1.9,7.9A19.7,19.7,0,0,1,149.5,84.6Z" opacity="0.64" fill="url(#bb)" style="mix-blend-mode:multiply"/><path d="M148,82.8h-.1l-.8-.7H147a2.5,2.5,0,0,1-.9-2v-3a19.4,19.4,0,0,0,1.1,3.6A20.9,20.9,0,0,1,148,82.8Z" opacity="0.64" fill="url(#bc)" style="mix-blend-mode:multiply"/><path d="M154.6,85.1l-.9-.5a8.3,8.3,0,0,0-4.4-.2,2.2,2.2,0,0,0-.5-.8l-.4-.5-.5-.4-.8-.7H147a2.5,2.5,0,0,1-.9-2v-4c0-1.8,0-3.4.1-5a15.5,15.5,0,0,1,.1-2.2,24.4,24.4,0,0,0,1.1,3.2,74.8,74.8,0,0,0,7.2,12.3v.9Z" fill="url(#bd)" style="mix-blend-mode:multiply"/><path d="M156.2,86.6v0Z" fill="url(#be)"/><path d="M154.6,85.1l-.9-.5a8.3,8.3,0,0,0-4.4-.2,2.2,2.2,0,0,0-.5-.8l-.4-.5-.5-.4-.8-.7H147a2.5,2.5,0,0,1-.9-2v-4c0-1.8,0-3.4.1-5a62.1,62.1,0,0,0,2.8,6.3c2.7,5,3.5,6.1,4.8,7.1l.8.6Z" opacity="0.64" fill="url(#bf)" style="mix-blend-mode:multiply"/><path d="M155.3,97.6l.2,4.2s-1.2-14.4-1.2-17.3,0-30.5,0-30.5.2-15,.2-17a2.6,2.6,0,0,0-.9-2.2c.6-.2,1,.3,1.2.5a.1.1,0,0,0,.1.1h0V87.6c.1,1.3.1,2.7.2,4.1h0c0,1.4.1,2.9.2,4.4A7.5,7.5,0,0,0,155.3,97.6Z" opacity="0.88" fill="url(#bg)" style="mix-blend-mode:multiply"/><path d="M153.1,36.2l.7,41.8s.4-39.3.7-41S152.8,35.2,153.1,36.2Z" opacity="0.24" fill="url(#bh)" style="mix-blend-mode:screen"/><path d="M151.6,65c-.1,1.5-2.6-5.6-4.3-10.6.3-2.4.6-4.5,1-6.3s.3-1.6.4-2.3C149.9,52.9,151.7,63.6,151.6,65Z" opacity="0.09" fill="url(#bi)" style="mix-blend-mode:screen"/><path d="M154.6,35.5V53.7c-1.2-2.9-3.2-9.8-4.3-13.6h0c.1-.1.1-.3.2-.4a17.4,17.4,0,0,1,1-2.3h.1c.7-1.4,1.5-2.2,2.1-2.3h.1l.5.2Z" opacity="0.06" fill="url(#bj)" style="mix-blend-mode:screen"/><path d="M146.1,76.4c.6-13.1,4.2-35.9,4.2-35.9-4.2,16.9-4.7,31.7-4.2,35.4Z" opacity="0.24" fill="url(#bk)" style="mix-blend-mode:screen"/><path d="M149.2,129.5a.7.7,0,0,1,.1.5A.9.9,0,0,0,149.2,129.5Z" opacity="0.07" fill="url(#bl)" style="mix-blend-mode:multiply"/><path d="M156.7,134.7a.5.5,0,0,1-.3.4,3.4,3.4,0,0,1-1.5.6l-1.5.2a6.5,6.5,0,0,1-2.1-.4h-.2a3,3,0,0,1-1.4-1h0a6,6,0,0,1-.5-2.8,4.9,4.9,0,0,0,.1-1.7.7.7,0,0,0,.1.5c.9,4.3,6.1,3.7,6.6.6s-1.8-47.4-2.2-52a8,8,0,0,1,.8-4.3V86.1h0V87a9.7,9.7,0,0,0,.1,1.7v1.5c.1,1.4.1,2.9.2,4.4h0c.4,8.8.9,18.5,1.4,24.3.1,1.6.3,3.1.4,4.5C157.2,129.5,157.5,133.5,156.7,134.7Z" opacity="0.07" fill="url(#bm)" style="mix-blend-mode:multiply"/><path d="M152.6,78.8s-2.3,49-2.5,52.4,1.6,3.9,2.9,3.9,1.2-6.4.8-14.8S153.3,77.4,152.6,78.8Z" opacity="0.14" fill="url(#bn)" style="mix-blend-mode:screen"/><path d="M153.7,78.8s2.3,49,2.6,52.4-1.7,3.9-2.9,3.9-1.2-6.4-.8-14.8S153.1,77.4,153.7,78.8Z" opacity="0.14" fill="url(#bo)" style="mix-blend-mode:screen"/><path d="M156.7,134.7a.5.5,0,0,1-.3.4,3,3,0,0,1-1.7.8h-1.4a6.4,6.4,0,0,1-2-.3h-.2a2.7,2.7,0,0,1-1.3-1v-.2h0a10.6,10.6,0,0,1-.3-4c0-.9.1-1.9.2-3L151,90.4v-.2c-.1-.6-.1-1.2-.2-1.7v-.2l-.3-1.1h0a.6.6,0,0,0-.1-.4h0c0-.1-.1-.2-.1-.3l-.3-.7c0-.1-.1-.2-.1-.3v-.2a3.5,3.5,0,0,0-.5-.8l-.3-.5c-.1-.1-.2-.2-.2-.3l-.4-.5-.5-.4-.8-.7H147a2.5,2.5,0,0,1-.9-2v-4c0-2.5.1-4.9.2-7.2h0c.1-2.5.2-4.7.3-6.8s.1-1.4.2-2.1h0c.1-2,.3-3.8.5-5.4s.6-4.5,1-6.3.3-1.6.4-2.3a13.6,13.6,0,0,0,.4-1.7l.3-.9c.3-1.2.6-2.2.9-3.1h0c.1-.1.1-.3.2-.4a17.4,17.4,0,0,1,1-2.3h0c.8-1.4,1.6-2.2,2.2-2.3h.1l.5.2.3.3V84.7h0v1.4h0V87a7.6,7.6,0,0,0,.1,1.5v2.4c.1,1.2.1,2.4.2,3.7h0c.4,8.8.9,18.5,1.4,24.3.1,1.6.3,3.1.4,4.5C157.2,129.5,157.5,133.5,156.7,134.7Z" opacity="0.72" fill="url(#bp)" style="mix-blend-mode:soft-light"/><path d="M150.9,90.4v-.2a8.8,8.8,0,0,0-.2-1.7,5.1,5.1,0,0,0-.2-1.3.1.1,0,0,0-.1-.1.6.6,0,0,0-.1-.4h0c0-.1-.1-.2-.1-.3l-.3-.7a20.7,20.7,0,0,1,4.6-1v1.4h0V87c0,.6.1,1.1.1,1.7v1.5a1.7,1.7,0,0,0,.1.7A14.7,14.7,0,0,0,150.9,90.4Z" opacity="0.57" fill="url(#bq)" style="mix-blend-mode:multiply"/><path d="M154.7,88.5a10.7,10.7,0,0,0-3.9-.2l-.3-1.1h0a.6.6,0,0,0-.1-.4h0c0-.1-.1-.2-.1-.3l-.3-.7c0-.1-.1-.2-.1-.3v-.2a3.5,3.5,0,0,0-.5-.8l-.3-.5a23.3,23.3,0,0,1,5.6-.5v1.3h0v1.4h0V87A7.6,7.6,0,0,0,154.7,88.5Z" fill="url(#br)" style="mix-blend-mode:multiply"/><path d="M27.1,70.1v.5a1.5,1.5,0,0,1-.6.9h-.1l-1.3,1.1H25l-.2.3-.5.6a.3.3,0,0,0-.1.2h-.1c-.1.1-.1.1-.1.2h0a4.1,4.1,0,0,0-.5.9,4.3,4.3,0,0,0-.1.5,7.5,7.5,0,0,0-.2,1.1c-.1,1.1-.2,3-.2,6v1.7h0q.2,3.1.3,6.9c.3,9.4,1,20.6,1.6,27.4s1.3,13.2.6,15.3h0c0,.2-.1.3-.2.5a3.6,3.6,0,0,1-2.3,1.3H21.4a7.8,7.8,0,0,1-2.2-.3H19a2.8,2.8,0,0,1-1.4-1c-1.1-1.6-.4-7.1.4-15.9.5-6.7,1.2-17.9,1.6-27.1h0v-1c.1-1.9.1-3.8.2-5.5V83.4a41.3,41.3,0,0,0-.2-6.9,7.8,7.8,0,0,0-.3-1.4h0c-.1-.2-.2-.3-.2-.4l-.4-.7h0a7.1,7.1,0,0,0-1.2-1.3l-.4-.5-.8-.6a1.7,1.7,0,0,1-.6-1.4h0v-.7l.2-3.1h0V44.4a5.2,5.2,0,0,1,.4-2.1h.2v.7c.1,1,.1,2.2.1,3.6h0c.1,5.8.2,14.8.4,19.3,0,1.5.1,2.5.1,2.8s.9.8,2,.9a15.5,15.5,0,0,0,4.3,0l1.2-.3L25,69l.2-.2a3,3,0,0,0,.4-1v-.2c0-.2.1-.4.1-.7a5.3,5.3,0,0,0,.1-1.3,8.8,8.8,0,0,0,0-2.3c0-.9,0-3.2.1-6s.1-9.7.2-13.4h0V42.4c0-.1.1-.1.1-.2h.1a5.2,5.2,0,0,1,.4,2.1V70.1Z" fill="url(#bs)"/><path d="M26.3,42.2c-.1,3.1-.2,8.6-.3,13.2h0c-.1,3.6-.1,6.8-.1,7.8.1,2.9,0,4.3-.7,5.5s-7.8,1.2-8-.2-.1-.8-.1-1.6V65.8c-.1-3.2-.2-8.8-.3-13.8h0c-.1-3.9-.1-7.4-.2-9.3v-.3h.2a4.1,4.1,0,0,1,.4,1.9v2.1h0l.4,18.7h0v.8H19v-.6h0V65h0V63h0V61.4h0V60.2h0v-.8h0V57.7h0V52c.1-.1.1-.1.1-.2V49.9h0v-.3h0V43.8h0a.1.1,0,0,0,.1-.1h0c0-.1,0-.1.1-.1v-.2c0-.1,0-.1.1-.2h0c0-.1,0-.1.1-.2h.4a.3.3,0,0,1,.1.2h.1c0,.2.1.3.1.4v.4h0a.6.6,0,0,1,.1.4v.4h0v3.1h0v3.5l.2,9,.2,4.9h0v.4h0v.6H22V65h0v-.5h0l.4-18.3h0v-2a4.1,4.1,0,0,1,.5-1.9h0c0-.1,0-.1.1-.1h.1c.1,0,.1,0,.1.1h0a.4.4,0,0,1,.1.3.3.3,0,0,1,.1.2h0a.1.1,0,0,0,.1.1h0v.2c0,.1.1.1.1.2h0v.3h0v.7h0v7.9h0V63h0v3.1a.8.8,0,0,0,.2.5h.1c0,.1,0,.1.1.1h.6c0-.1,0-.1.1-.1h0v-.2a.1.1,0,0,0,.1-.1h0v-.2h0V61.3h0V55.5a8.1,8.1,0,0,1,.1-1.6V50.2h0V50c0-.1,0-.2.1-.2v-.4h0V49h0V48h0v-.2h0v-.4a6.6,6.6,0,0,1,.1-1.5h0v-.5h0v-.2a4.1,4.1,0,0,1,.4-1.9v-.2Z" fill="url(#bt)"/><path d="M26.8,70.1h0v.3h0v.2h-.1c0,.1,0,.1-.1.1v.2h-.3l-.3.2h0l-.3.2h0l-.2.2H25l-.2.2h-.2l-.2.3h0a5.9,5.9,0,0,0-1,1.6l-.2.3h0a3.9,3.9,0,0,0-.2,1.3h0a1.3,1.3,0,0,0-.1.6v.4c0,.8-.1,1.7-.1,2.7v3.1h0v1.4a25.3,25.3,0,0,1,.1,2.8h0c.3,10.2,1.1,23.8,1.8,31.4.1,1.7.2,3.2.4,4.6.5,5.9.9,9.9,0,11.1a3.1,3.1,0,0,1-2.1,1.2H21.4a7.1,7.1,0,0,1-2.1-.3h-.2a3.4,3.4,0,0,1-1.3-1c-.8-1.2-.5-5.2.1-11.1.1-1.4.2-2.9.4-4.6.6-7.4,1.4-20.7,1.7-30.8h0a16.9,16.9,0,0,1,.1-2.3V80.8a41.9,41.9,0,0,0-.2-4.2,15.7,15.7,0,0,0-.3-1.6,9.4,9.4,0,0,0-1.2-2h-.1v-.2l-.6-.6-.4-.4-.7-.5h-.1a1.5,1.5,0,0,1-.4-1.1V67h0v-.8h0V44.4a4.1,4.1,0,0,1,.3-1.6h0v-.7h.2a4.1,4.1,0,0,1,.4,1.9v2.1h0l.4,18.7h0v.8H19v-.6h0v-.4h0v-.4h0v-.5h0v-.2h0v-2h0V60.2h0v-.8h0V58h0v-1h0v-.3h0V52c.1-.1.1-.1.1-.2V49.9h0v-.2h0V49h0V43.8h.1c0-.1,0-.1.1-.1v-.2c0-.1,0-.1.1-.2h0c0-.1,0-.1.1-.2h.4a.3.3,0,0,1,.1.2h.1c0,.2.1.3.1.4h0v.2h0a.6.6,0,0,1,.1.4v.4h0v3.1h0v3.5l.2,7.6v1.4l.2,4.9v.4h0v.6h.9a.1.1,0,0,0,.1-.1H22V65h0v-.5h0l.3-16h0V46.1h0v-2a4.1,4.1,0,0,1,.5-1.9h0c0-.1,0-.1.1-.1h.1a.1.1,0,0,1,.1.1h0a.4.4,0,0,1,.1.3.3.3,0,0,1,.1.2h0a.1.1,0,0,0,.1.1h0v.2c0,.1.1.1.1.2h0v.3h0v.7h0v7.9h0V63h0v3.1a.8.8,0,0,0,.2.5h.1c0,.1,0,.1.1.1h.6a.1.1,0,0,1,.1-.1h0v-.2a.1.1,0,0,0,.1-.1h0v-.2h0v-.8h0v-.2h0V63.3h0v-.9c0-.1.1-.1.1-.2h0v-.8h0V58.9c0-.4.1-.7.1-1.1V55.5a8.1,8.1,0,0,1,.1-1.6V52.3h0V50c0-.1,0-.2.1-.2v-.4h0V49h0v-.7h0v-.2h0v-.2h0v-.2h0v-.4a6.6,6.6,0,0,1,.1-1.5h0v-.5h0v-.2h0a5.8,5.8,0,0,1,.4-1.9h.3a.7.7,0,0,0,.1.5h0v.2h0a.4.4,0,0,0,.1.3V44h0V59.9c.1,3.2.1,5.6.1,5.6v4.6Z" fill="url(#bu)"/><path d="M18.5,72.9h-.2a5.9,5.9,0,0,0-1.8-1.7,1.7,1.7,0,0,1-.5-1.2l.2-4.2V44a10.8,10.8,0,0,1,.4-1.7h0c.1,4.5.3,25.6.3,26.3s-.7,1.3,0,2.4A7.2,7.2,0,0,0,18.5,72.9Z" fill="url(#bv)" style="mix-blend-mode:screen"/><path d="M17.3,46.5h0s-.3-.9-.6,0h0a10.6,10.6,0,0,0-.4,2.9c-.1,1.5-.2,3.6-.3,6.6V44.4a5.2,5.2,0,0,1,.4-2.1h.3v.2a4.1,4.1,0,0,1,.4,1.9Z" fill="url(#bw)" style="mix-blend-mode:screen"/><path d="M17.7,65.9c-.5-3-.7-10.5-.8-17.4,0-.4-.2-4-.3-4.7V42.3h.1v.2a4.1,4.1,0,0,1,.4,1.9v2.1h0S17.6,65.8,17.7,65.9Z" fill="url(#bx)" style="mix-blend-mode:multiply"/><path d="M17.1,43.5s-.2-.9-.5-.9-.6,26.6-.5,26.7,1-3.4,1.2-3.7-.1-15.4-.1-17.1S17.1,43.5,17.1,43.5Z" fill="url(#by)" style="mix-blend-mode:screen"/><path d="M18.2,66.7a1.1,1.1,0,0,1-1.1-.8c-.1-.5-.2-19.4-.3-21.8-.1-.5-.1-1-.2-1.3h0v-.6h.1v.2a4.1,4.1,0,0,1,.4,1.9v2.1h0l.4,18.7v.9a.4.4,0,0,0,.1.3h0C17.8,66.6,18,66.7,18.2,66.7Z" fill="url(#bz)" style="mix-blend-mode:multiply"/><path d="M20.9,66.5H22a.7.7,0,0,1-.6.4A.5.5,0,0,1,20.9,66.5Z" opacity="0.1" fill="url(#ca)" style="mix-blend-mode:multiply"/><path d="M24.5,66.8h0Z" opacity="0.1" fill="url(#cb)" style="mix-blend-mode:multiply"/><path d="M26.8,70.1h0v.3h0v.2h-.1c0,.1,0,.1-.1.1v.2h-.3l-.3.2h0l-.3.2h0l-.2.2H25l-.2.2c0,.1-.1.1-.2.2l-.2.3a5.9,5.9,0,0,0-1,1.6,1.7,1.7,0,0,1,.2-.9,11.7,11.7,0,0,0,1.1-1.6c0-.2-.1-.2-.4-.1a19.9,19.9,0,0,1-5.1.1,3.9,3.9,0,0,1-1.5-.4h-.3c-.9-.6-.8-1.3-.8-2.1V42.3h.2a4.1,4.1,0,0,1,.4,1.9v2.1l.4,18.7h0v.8H19v-.6h0v-.9h0v-.5h0v-.5h0V61.4h0V60.2h0v-.8h0V58h0v-.2h0v-.7h0V52.1h0a1.1,1.1,0,0,0,.1-.5V48.8h0V43.8h0a.1.1,0,0,0,.1-.1h0c0-.1,0-.1.1-.1v-.2c0-.1,0-.1.1-.2h0c0-.1,0-.1.1-.2h.4a.3.3,0,0,1,.1.2h.1c0,.2.1.3.1.4v.2h0a.6.6,0,0,1,.1.4v3.5h0v3.5l.2,9,.2,4.9v.4h0v.6H22V65h0v-.5l.4-18.3v-2a4.1,4.1,0,0,1,.5-1.9h0c0-.1,0-.1.1-.1h.1c.1,0,.1,0,.1.1h0a.4.4,0,0,1,.1.3.3.3,0,0,1,.1.2h0a.1.1,0,0,0,.1.1h0v.2c0,.1.1.1.1.2v.3h0v.7h0v7.9h0V63h0v3.1a.8.8,0,0,0,.2.5h.1c0,.1,0,.1.1.1h.6c0-.1,0-.1.1-.1h0v-.2a.1.1,0,0,0,.1-.1h0V64.9h0V62.2h0v-.8h0V59.7h0V58.2a.6.6,0,0,0,.1-.4V55.5a8.1,8.1,0,0,1,.1-1.6V52.3h0V50.2h0V50c0-.1,0-.2.1-.2v-.4h0V49h0V48h0v-.2h0v-.4a6.6,6.6,0,0,1,.1-1.5h0v-.5h0v-.2a4.1,4.1,0,0,1,.4-1.9v-.2h.2a.7.7,0,0,0,.1.5h0a.9.9,0,0,0,.1.5V59.9c.1,3.2.1,5.6.1,5.6v4.6Z" opacity="0.12" fill="url(#cc)" style="mix-blend-mode:multiply"/><path d="M26.8,70.1h0v.3h0v.2h-.1c0,.1,0,.1-.1.1v.2h-.3l-.3.2h0l-.3.2h0l-.2.2h-.3c.1-.5.1-.8-.3-.8a26.6,26.6,0,0,1-4.4.4c-1.9.1-2.8-.3-3.2-1.1a2.3,2.3,0,0,1-.4-1.4V67a5.3,5.3,0,0,0-.1-1.2V52h0V42.4h0a4.1,4.1,0,0,1,.4,1.9v2.1h0l.4,18.7h0v.8H19v-.6h0v-.4h0v-.4h0v-.5h0v-.5h0V61.4h0V60.2h0v-.8h0V58h0v-.2h0V52.4a1.3,1.3,0,0,1,.1-.6V49.9h0V49h0V43.8h0a.1.1,0,0,0,.1-.1h0c0-.1,0-.1.1-.1v-.2c0-.1,0-.1.1-.2h0c0-.1,0-.1.1-.2h.4a.3.3,0,0,1,.1.2h.1c0,.2.1.3.1.4h0v.2h0a.6.6,0,0,1,.1.4v.4h0v3.1h0v3.5l.2,9,.2,4.9v.4h0v.6H22V65h0v-.5h0l.4-18.3h0v-2a4.1,4.1,0,0,1,.5-1.9h0c0-.1,0-.1.1-.1h.1c.1,0,.1,0,.1.1h0a.4.4,0,0,1,.1.3.3.3,0,0,1,.1.2h0a.1.1,0,0,0,.1.1h0v.2c0,.1.1.1.1.2h0v.3h0v.7h0v7.9h0V63h0v3.1a.8.8,0,0,0,.2.5h.1c0,.1,0,.1.1.1h.6c0-.1,0-.1.1-.1h0v-.2a.1.1,0,0,0,.1-.1h0v-.2h0v-.8h0v-.5h0V63.3h0V62.2h0v-.8h0V59.7h0V58.2a.6.6,0,0,0,.1-.4V55.5a8.1,8.1,0,0,1,.1-1.6V52.3h0V50.2h0V50c0-.1,0-.2.1-.2v-.4h0V49h0V48h0v-.2h0v-.4a6.6,6.6,0,0,1,.1-1.5h0v-.5h0v-.2a4.1,4.1,0,0,1,.4-1.9v-.2h.2a.7.7,0,0,0,.1.5h0a.9.9,0,0,0,.1.5V59.9c.1,3.2.1,5.6.1,5.6v4.6Z" opacity="0.08" fill="url(#cd)" style="mix-blend-mode:multiply"/><path d="M26.8,70.1a2,2,0,0,1-.3,1.1c-.4-.4-1.6.1-5.4.2a6.8,6.8,0,0,1-3.8-.7,2.3,2.3,0,0,1-.4-1.4c0-.3,0-1.6-.1-3.5h.4l.5-.4v.6a.4.4,0,0,0,.1.3h0a.5.5,0,0,0,.4.2h.3a.7.7,0,0,0,.5-.4v-2h.1s.4,3.2.8,1.7.3-21.8.3-22.5.1,1.9.2,4.2h0L20.8,65v1.1c0,.2,0,.3.1.4h0a.5.5,0,0,0,.5.3h.1l.3-.2.2-.2h0c1-1.1,1.7-22.7,1.7-23v1.2h0V66.1a.7.7,0,0,0,.7.7.7.7,0,0,0,.5-.4c.9-.2,1.3-20.5,1.4-23.7h0a.9.9,0,0,0,.1.5V67Z" opacity="0.08" fill="url(#ce)" style="mix-blend-mode:multiply"/><path d="M23.8,73.9c-.1.4-.5.7-.6,1a6.4,6.4,0,0,0-.3,2,37.9,37.9,0,0,0-.2,3.8V84c0,1,.1,2.1.1,3.3a13.6,13.6,0,0,0-.6-2.9c-.9-1.5-2.1,3.2-2.2,3.5,0-1.4.1-2.7.1-3.9V80.8a41.9,41.9,0,0,0-.2-4.2,15.7,15.7,0,0,0-.3-1.6,9.4,9.4,0,0,0-1.2-2h-.1v-.2a17.6,17.6,0,0,0,3.9.2c.4-.1,1.7-.3,1.9.3A.7.7,0,0,1,23.8,73.9Z" opacity="0.08" fill="url(#cf)" style="mix-blend-mode:multiply"/><path d="M26.8,70.1a2,2,0,0,1-.3,1.1h-.2l-.9.7h0l-.6.6a.6.6,0,0,0,0-.6c-.2-1.4-1.7-.1-4.4-.8s-1.8-1.9-.8-3.5.9-4.3,1-6.3V60.1l.2,4.9v1.1c0,.2,0,.3.1.4h0a.5.5,0,0,0,.5.3h.1l.3-.2.2-.2v-3h0v-2l1.2,1.1.5.5h0v3.1a.7.7,0,0,0,.7.7h.4l.6.6,1.2,1.3v1.6Z" opacity="0.13" fill="url(#cg)" style="mix-blend-mode:multiply"/><path d="M26.8,70.1a2,2,0,0,1-.3,1.1h-.2l-.9.7a1.2,1.2,0,0,0-.6-.9c-.9-.6-2.8.3-4.7-.6s-.8-1.3,0-2.8a27.6,27.6,0,0,0,.5-6.3V60.1l.2,4.9v1.1c0,.2,0,.3.1.4h0a.5.5,0,0,0,.5.3h.1l.3-.2.2-.2v-3c.3,1.6.6,2.8.8,1.9a40.3,40.3,0,0,0,.9-4.3v2h0v3.1a.7.7,0,0,0,.7.7h.2a33.9,33.9,0,0,0,2.1,2.8Z" opacity="0.13" fill="url(#ch)" style="mix-blend-mode:multiply"/><path d="M26.8,70.1a2,2,0,0,1-.3,1.1h-.2l-.6.5a1.8,1.8,0,0,0-.6-.9c-.9-.6-2.2-.3-3.7-.4s-1.9-1-1.2-1.8a3.6,3.6,0,0,0,.8-2.1.5.5,0,0,0,.4.2h.1l.3-.2.2-.2V65.1a5.3,5.3,0,0,1,1.8.1h0v.8a.7.7,0,0,0,.6.7c.1.8.8,1.4,1.3,2A7.5,7.5,0,0,1,26.8,70.1Z" opacity="0.13" fill="url(#ci)" style="mix-blend-mode:multiply"/><path d="M25.1,63.4v0Z" opacity="0.47" fill="url(#cj)" style="mix-blend-mode:multiply"/><path d="M27.1,70.1a1.7,1.7,0,0,1-.6,1.4h-.1a.4.4,0,0,0-.1-.3,3.8,3.8,0,0,0-1.6-2.1h-.2a2.5,2.5,0,0,1-1.2-2.7c.2-.4.5-5.2.5-5.2h0V63h0v3.1a.7.7,0,0,0,.6.7h.1a.5.5,0,0,0,.4-.2v-.2a.4.4,0,0,0,.1-.3h0v-.2h0v-.8c.4-.7.7-4,.9-7.8.3-6.7.3-15.1.3-15.1h.1a5.2,5.2,0,0,1,.4,2.1V65.5Z" fill="url(#ck)" style="mix-blend-mode:multiply"/><path d="M27.1,70.6a.4.4,0,0,0-.1.3,1.5,1.5,0,0,1-.5.6h-.1A8,8,0,0,0,24,74.2h-.4a10.2,10.2,0,0,1-4.5-.3h-.4a10.8,10.8,0,0,0-2.4-2.4,1.4,1.4,0,0,1-.6-1.2v-.2H16a3.3,3.3,0,0,0,1.7-.1l1.5-.4a10.4,10.4,0,0,1,4.3,0l.5.2a14.8,14.8,0,0,0,2.8.9Z" opacity="0.08" fill="url(#cl)" style="mix-blend-mode:multiply"/><path d="M27,70.9a1.5,1.5,0,0,1-.5.6h-.1A8,8,0,0,0,24,74.2h-.4a10.2,10.2,0,0,1-4.5-.3h-.4a10.8,10.8,0,0,0-2.4-2.4,1.4,1.4,0,0,1-.6-1.2,4.3,4.3,0,0,0,2.9-.2c1.7-.7,4.9-.4,5.7.2A3.5,3.5,0,0,0,27,70.9Z" opacity="0.08" fill="url(#cm)" style="mix-blend-mode:multiply"/><path d="M17.7,65.6Z" opacity="0.3" fill="url(#cn)" style="mix-blend-mode:multiply"/><path d="M26.8,70.1h0v.3h0v.2h-.1c0,.1,0,.1-.1.1v.2h-.3l-.3.2h0l-.3.2h0l-.2.2H25l-.3-.2c-.6-.2-1.1.5-1.7.7s-2.1,1.2-3.8-.7a2,2,0,0,0-1.8-.5h-.2l-.7-.5h-.2a2.5,2.5,0,0,1-.6-1.7.9.9,0,0,1,.1-.5v-2h1.2a1.1,1.1,0,0,0,.7-.6H19v-.6h0v-.2h0l.2.3.3.3h.2c.1,0,.2-.2.2-.7s-.2-15.4-.2-20.8v-2h.2a.3.3,0,0,1,.1.2h.1c0,.2.1.3.1.4h0v.2h0a.6.6,0,0,1,.1.4v.4h0v3.1h0v3.5l.2,7.6v1.4l.2,4.9v.4h0v.6H22V65h0v-.5a1.5,1.5,0,0,0,.2.8c.3.8.5.6.4,0V62.1c0-5.7.2-17.6.3-19.9h0c0-.1,0-.1.1-.1h.1c.1,0,.1,0,.1.1h0a.4.4,0,0,1,.1.3.3.3,0,0,1,.1.2h0a.1.1,0,0,0,.1.1h0v.2c0,.1.1.1.1.2h0v.3h0v.7h0v7.9h0V63h0v3.1a.8.8,0,0,0,.2.5h.1c0,.1,0,.1.1.1h.6c0-.1,0-.1.1-.1h0v-.2a.1.1,0,0,0,.1-.1h0v-.2h0v-.8h0v-.4h0V63.3h0V62.2h0v-.8h0V58.9c0-.4.1-.7.1-1.1V55.5a8.1,8.1,0,0,1,.1-1.6V52.3h0V50c0-.1,0-.2.1-.2v-.4h0V49h0V48h0v-.2h0v-.2h0v-.4a6.6,6.6,0,0,1,.1-1.5h0v-.5h0v-.2a4.1,4.1,0,0,1,.4-1.9v-.2h.2a.7.7,0,0,0,.1.5h0a.9.9,0,0,0,.1.5V59.9c.1,3.2.1,5.6.1,5.6v4.6Z" opacity="0.04" fill="url(#co)" style="mix-blend-mode:multiply"/><path d="M19.9,84.7a.8.8,0,0,0-.1.4V82.6c.1-4.8-.2-6.7-.5-7.5h0c-.1-.2-.2-.3-.2-.4l-.4-.7h0a10.8,10.8,0,0,0-2.4-2.4,1.7,1.7,0,0,1-.6-1.4h0v-.7a2.2,2.2,0,0,0,1.5,1.6c1.3.4,2.5.3,2.6.7s-1,.5-1.3.6,1.2,1.4,1.4,2.9A38.7,38.7,0,0,1,19.9,84.7Z" opacity="0.33" fill="url(#cp)" style="mix-blend-mode:multiply"/><path d="M27.1,70.1v.5a1.5,1.5,0,0,1-.6.9h-.1A8,8,0,0,0,24,74.2a4.1,4.1,0,0,0-.5.9,12.8,12.8,0,0,0-.4,3.4c-.1,1-.1,2.4-.1,4.2v1.7c0-.1-.3-1.3-.3-1.3V77.9c0-5.2,1.5-5,1.3-5.6h-.3c-.6-.3-1.6-.3-1-.5s1.6.5,2.6-.4.1-1.4-.3-2.2l-.3-.3a3.3,3.3,0,0,1-1.2-2.3h0a3.4,3.4,0,0,1-.1-1c.2-1.4.4-2.4.4-2.4v3.1a.7.7,0,0,0,.6.7h.1l1.2.8,1,1.1.4.3v1Z" opacity="0.41" fill="url(#cq)" style="mix-blend-mode:multiply"/><path d="M20,80a17.2,17.2,0,0,0-.2,2.6V78.5h0a11.9,11.9,0,0,0-.5-3.4h0c-.1-.2-.2-.3-.2-.4l-.4-.7h0a10.8,10.8,0,0,0-2.4-2.4,1.4,1.4,0,0,1-.6-1.2v-.2h0v-.2A3.3,3.3,0,0,0,17,71.1c1.1.3,2.1.1,2.4.3s.5.3,0,.5-1.1.1-1.1.4.9,1,1.3,2S20.1,79,20,80Z" opacity="0.37" fill="url(#cr)" style="mix-blend-mode:multiply"/><path d="M19.8,78.5a11.9,11.9,0,0,0-.5-3.4h0c-.1-.2-.2-.3-.2-.4l-.4-.7h0a10.8,10.8,0,0,0-2.4-2.4,1.4,1.4,0,0,1-.6-1.2,2.4,2.4,0,0,0,.9.8,7.2,7.2,0,0,0,2.5.5c.2,0,.3.2-.5.3s-.6.3-.3.7A7.6,7.6,0,0,1,19.6,75,25.1,25.1,0,0,1,19.8,78.5Z" opacity="0.37" fill="url(#cs)" style="mix-blend-mode:multiply"/><path d="M27.1,70.1v.5a1.5,1.5,0,0,1-.6.9h-.1A8,8,0,0,0,24,74.2a4.1,4.1,0,0,0-.5.9,12.8,12.8,0,0,0-.4,3.4h0a13.3,13.3,0,0,1,0-2.9c.1-.9.3-2.3.7-2.6s.5-.5.1-.8h-.2l-.6-.3h1.3a1.3,1.3,0,0,0,1.4-1.1,2.3,2.3,0,0,0-1-2.1,8,8,0,0,1-1.3-2.2h0c0-.1,0-1.1.1-.3s1.8,1.6,2.9,2.8a2.4,2.4,0,0,1,.6,1.1Z" opacity="0.41" fill="url(#ct)" style="mix-blend-mode:multiply"/><path d="M19.3,66.4c-.1.9-1.5,2.3-1.1,3.3s.3,1.2-.2,1.2-1.5-.7-1.4-2.1.9-10.1,1-10.4v7.1h0v.5a.4.4,0,0,0,.1.3h0a.5.5,0,0,0,.4.2h.3a.7.7,0,0,0,.5-.4V62.2h0A37,37,0,0,1,19.3,66.4Z" opacity="0" fill="url(#cu)" style="mix-blend-mode:multiply"/><path d="M18.8,67.6s-.8,2-.6,2.5-.5,1-1,.4-.3-2,.2-2.4S19.1,66.9,18.8,67.6Z" opacity="0.23" fill="url(#cv)" style="mix-blend-mode:screen"/><path d="M27.1,70.1v.5a1.5,1.5,0,0,1-.6.9h-.1l-1.3,1.1h0l-.3.3-.5.6a.3.3,0,0,0-.1.2h-.1c-.1.1-.1.1-.1.2a3.6,3.6,0,0,1,.4-1.1l.2-.5h0l.8-.8a2,2,0,0,0,.9-2,6,6,0,0,0-.7-2l-.3-.5c0-.2.1-.5.5-.4l.5.2.4.6a3.3,3.3,0,0,1,.3.6v1.8Z" opacity="0.23" fill="url(#cw)" style="mix-blend-mode:screen"/><path d="M23.8,68.4s-2.3-.4-3.4.2a1.3,1.3,0,0,0,.3,2.3c.9.3-1.5.4-2.5,0s-1-2.6.4-3.2,3.7-.2,3.9-.8.7-.7.8,0a3.9,3.9,0,0,0,1.2,1.5C24.7,68.7,23.9,68.6,23.8,68.4Z" opacity="0.04" fill="url(#cx)" style="mix-blend-mode:screen"/><path d="M19.8,44.7c-.1,1,.1,10.2.2,16h0c0,1.6.1,2.8.1,3.6a5.1,5.1,0,0,0-.1,1v.3h-.1a1.6,1.6,0,0,1-.3.6h-.1c-.1.1-.3.1-.5-.3v-.5h0v-.4h0v-.4h0v-.5h0v-.5h0V61.4h0V60.2h0v-.8h0V58h0v-1h0v-.3h0V52c.1-.1.1-.1.1-.2V49.9h0v-.2h0V49h0V43.8h0a.1.1,0,0,0,.1-.1h0c0-.1,0-.1.1-.1v-.2c0-.1,0-.1.1-.2h0c0-.1,0-.1.1-.2h.4a.3.3,0,0,1,.1.2h.1c0,.2.1.3.1.4h0s-.2,0-.3.4h0A1.5,1.5,0,0,0,19.8,44.7Z" fill="url(#cy)" style="mix-blend-mode:screen"/><path d="M26.4,42.9a114.3,114.3,0,0,1-.5,22.2c-.2,1.2-.6.7-.7.3a.6.6,0,0,1-.1-.4V63.3h0c.1-5.1.5-18.9.5-18.9a4.1,4.1,0,0,1,.4-1.9h.3a.7.7,0,0,0,.1.5h0Z" opacity="0.12" fill="url(#cz)" style="mix-blend-mode:screen"/><path d="M26.1,42.4c0,3-.2,17-.4,19.7-.2,4.3-.6,1.6-.6,1.2h0c.1-5.1.5-18.9.5-18.9a4.1,4.1,0,0,1,.4-1.9Z" opacity="0.12" fill="url(#da)" style="mix-blend-mode:screen"/><path d="M21,66.6h0c-.1.2-.1.4-.2.6s-.1.2-.2.4-1.4,1.2-2,.4a3.4,3.4,0,0,1-.4-1.2H19c.4.9,1.1.7,1.2.1h0c0-.3,0-1.7-.1-3.5a16.2,16.2,0,0,0-.1-2.1h0c-.1-2-.1-4.2-.2-5.5V52.5c0-2.1-.1-5-.1-7.1h0V42.5h0v-.4h.2a.3.3,0,0,1,.1.2h.1c0,.2.1.3.1.4h0v.2h0a.6.6,0,0,1,.1.4v.4h0v3.1h0v3.5l.2,7.6v1.4l.2,4.9v.4h0v.6H21Z" fill="url(#db)" style="mix-blend-mode:multiply"/><path d="M21.4,66.8h0c-.2.2-.3.4-.6.4h0c-.3,0-.4-.5-.5-1a2.8,2.8,0,0,1,0-1.3c0-.3,0-3.4-.1-7.2,0-1.4-.1-2.9-.1-4.3h0c-.1-4-.2-7.9-.2-9.4h0v-.5h0a4.3,4.3,0,0,0-.1-.5c0-.1-.1-.2-.1-.3h-.3c0-.1,0-.1.1-.2h.4a.3.3,0,0,1,.1.2h.1c0,.2.1.3.1.4h0v.2h0a.6.6,0,0,1,.1.4v.4h0v3.1h0v3.5l.2,7.6v1.4l.2,4.9v.4h0v.6h.6Z" fill="url(#dc)" style="mix-blend-mode:multiply"/><path d="M20.2,44.2h0c0-.1-.1-.2-.3-.2h0c-.1,0-.1,0-.1.1h0a.1.1,0,0,0-.1.1h0c0,.1-.1.2-.1.3a5.4,5.4,0,0,0-.2,1.5c-.2,1.6-.3,3.5-.3,3.9h0V48.8h0V45.3h0V43.8h0a.1.1,0,0,0,.1-.1h0c0-.1,0-.1.1-.1v-.2c0-.1,0-.1.1-.2h0c0-.1,0-.1.1-.2h.4a.3.3,0,0,1,.1.2h.1c0,.1.1.3.1.4h0v.4h0a.6.6,0,0,1,.1.4v.4A.4.4,0,0,0,20.2,44.2Z" opacity="0.71" fill="url(#dd)" style="mix-blend-mode:screen"/><path d="M20.2,43.3c-.1-.2-.3-.3-.5-.1s-.6,1.5-.6,2.1V43.8h0a.1.1,0,0,0,.1-.1h0c0-.1,0-.1.1-.1v-.2c0-.1,0-.1.1-.2h0c0-.1,0-.1.1-.2h.4a.3.3,0,0,1,.1.2h.1C20.1,43,20.2,43.2,20.2,43.3Z" opacity="0.71" fill="url(#de)" style="mix-blend-mode:screen"/><g style="mix-blend-mode:multiply"><g clip-path="url(#df)"><rect x="15.7" y="42.1" width="11.4" height="30.65" fill="#e6e6e6"/><path d="M29,68.8c0,2.3-2.8,4.1-6.4,4.2s-6.4-1.8-6.5-4,2.9-4.2,6.4-4.2S29,66.5,29,68.8Z" fill="#e6e6e6"/><path d="M29,68.8c0,2.2-2.8,4.1-6.4,4.1s-6.4-1.7-6.4-3.9,2.8-4.2,6.3-4.2S28.9,66.5,29,68.8Z" fill="#e5e5e5"/><path d="M28.9,68.8c.1,2.2-2.8,4.1-6.3,4.1s-6.3-1.7-6.4-3.9,2.8-4.1,6.3-4.2S28.9,66.6,28.9,68.8Z" fill="#e4e4e4"/><ellipse cx="22.6" cy="68.9" rx="6.3" ry="4" transform="translate(-0.9 0.3) rotate(-0.7)" fill="#e3e3e3"/><path d="M28.8,68.8c.1,2.2-2.7,4-6.2,4.1s-6.2-1.8-6.3-3.9,2.8-4.1,6.2-4.1S28.8,66.6,28.8,68.8Z" fill="#e2e2e2"/><path d="M28.8,68.8c0,2.2-2.7,4-6.2,4s-6.2-1.7-6.2-3.9,2.7-3.9,6.1-4S28.8,66.6,28.8,68.8Z" fill="#e1e1e1"/><path d="M28.7,68.8c.1,2.2-2.7,3.9-6.1,4s-6.1-1.7-6.2-3.9,2.7-3.9,6.1-4S28.7,66.6,28.7,68.8Z" fill="#e0e0e0"/><path d="M28.7,68.8c0,2.1-2.7,3.9-6.1,4s-6.1-1.7-6.1-3.9,2.7-3.9,6-3.9S28.7,66.6,28.7,68.8Z" fill="#dfdfdf"/><path d="M28.6,68.8c.1,2.1-2.6,3.9-6,3.9s-6.1-1.6-6.1-3.8,2.7-3.9,6-3.9S28.6,66.7,28.6,68.8Z" fill="#dedede"/><path d="M28.6,68.8c0,2.1-2.6,3.9-6,3.9s-6-1.6-6-3.8,2.6-3.8,5.9-3.9S28.6,66.7,28.6,68.8Z" fill="#ddd"/><path d="M28.6,68.8c0,2.1-2.7,3.8-6,3.9s-6-1.7-6-3.8,2.6-3.8,5.9-3.8S28.5,66.7,28.6,68.8Z" fill="#dcdcdc"/><path d="M28.5,68.8c0,2.1-2.6,3.8-5.9,3.8s-5.9-1.6-5.9-3.7,2.6-3.8,5.8-3.8S28.5,66.7,28.5,68.8Z" fill="#dbdbdb"/><path d="M28.5,68.8c0,2.1-2.6,3.8-5.9,3.8s-5.9-1.6-5.9-3.7,2.6-3.7,5.8-3.8S28.4,66.7,28.5,68.8Z" fill="#dadada"/><path d="M28.4,68.8c0,2-2.5,3.7-5.8,3.8s-5.8-1.6-5.9-3.7,2.6-3.7,5.8-3.7S28.4,66.7,28.4,68.8Z" fill="#d9d9d9"/><path d="M28.4,68.8c0,2-2.6,3.7-5.8,3.8s-5.8-1.6-5.8-3.7,2.5-3.7,5.7-3.7S28.3,66.8,28.4,68.8Z" fill="#d8d8d8"/><path d="M28.3,68.8c.1,2-2.5,3.7-5.7,3.7s-5.7-1.5-5.8-3.6,2.6-3.6,5.7-3.7S28.3,66.8,28.3,68.8Z" fill="#d7d7d7"/><path d="M28.3,68.8c0,2-2.5,3.7-5.7,3.7s-5.7-1.6-5.7-3.6,2.5-3.6,5.6-3.7S28.3,66.8,28.3,68.8Z" fill="#d6d6d6"/><path d="M28.2,68.8c.1,2-2.5,3.6-5.6,3.7s-5.6-1.6-5.7-3.6,2.5-3.6,5.6-3.6S28.2,66.8,28.2,68.8Z" fill="#d5d5d5"/><path d="M28.2,68.8c0,2-2.5,3.6-5.6,3.6S17,70.9,17,68.9s2.4-3.6,5.5-3.6S28.2,66.8,28.2,68.8Z" fill="#d4d4d4"/><path d="M28.1,68.8c.1,2-2.4,3.6-5.5,3.6S17,70.9,17,68.9s2.5-3.5,5.5-3.6S28.1,66.8,28.1,68.8Z" fill="#d3d3d3"/><path d="M28.1,68.8c0,1.9-2.4,3.5-5.5,3.6s-5.5-1.5-5.5-3.5,2.4-3.5,5.4-3.5S28.1,66.9,28.1,68.8Z" fill="#d2d2d2"/><path d="M28,68.8c.1,1.9-2.4,3.5-5.4,3.6s-5.5-1.5-5.5-3.5,2.4-3.5,5.4-3.5S28,66.9,28,68.8Z" fill="#d1d1d1"/><path d="M28,68.8c0,1.9-2.4,3.5-5.4,3.5s-5.4-1.5-5.4-3.4,2.3-3.4,5.3-3.5S28,66.9,28,68.8Z" fill="#d0d0d0"/><path d="M28,68.8c0,1.9-2.4,3.5-5.4,3.5s-5.4-1.5-5.4-3.4,2.4-3.4,5.3-3.5S27.9,66.9,28,68.8Z" fill="#cfcfcf"/><ellipse cx="22.6" cy="68.9" rx="5.3" ry="3.4" transform="translate(-0.9 0.3) rotate(-0.7)" fill="#cecece"/><path d="M27.9,68.8c0,1.9-2.4,3.4-5.3,3.4s-5.3-1.4-5.3-3.3,2.3-3.4,5.2-3.4S27.8,66.9,27.9,68.8Z" fill="#cdcdcd"/><path d="M27.8,68.8c0,1.8-2.3,3.4-5.2,3.4s-5.2-1.4-5.3-3.3,2.3-3.3,5.2-3.4S27.8,67,27.8,68.8Z" fill="#ccc"/><path d="M27.8,68.8c0,1.8-2.3,3.3-5.2,3.4s-5.2-1.4-5.2-3.3,2.3-3.3,5.1-3.3S27.7,67,27.8,68.8Z" fill="#cbcbcb"/><path d="M27.7,68.8c0,1.8-2.2,3.3-5.1,3.3s-5.1-1.4-5.2-3.2,2.3-3.3,5.1-3.3S27.7,67,27.7,68.8Z" fill="#cacaca"/><ellipse cx="22.6" cy="68.9" rx="5.1" ry="3.2" transform="translate(-0.9 0.3) rotate(-0.7)" fill="#c9c9c9"/><path d="M27.6,68.8c.1,1.8-2.2,3.3-5,3.3s-5-1.4-5.1-3.2,2.3-3.2,5-3.2S27.6,67,27.6,68.8Z" fill="#c8c8c8"/><path d="M27.6,68.8c0,1.8-2.2,3.2-5,3.3s-5-1.4-5-3.2,2.2-3.2,4.9-3.2S27.6,67,27.6,68.8Z" fill="#c7c7c7"/><path d="M27.5,68.8c.1,1.8-2.1,3.2-4.9,3.2s-5-1.3-5-3.1,2.2-3.2,4.9-3.2S27.5,67.1,27.5,68.8Z" fill="#c6c6c6"/><path d="M27.5,68.8c0,1.7-2.2,3.2-4.9,3.2s-4.9-1.3-4.9-3.1,2.1-3.1,4.8-3.2S27.5,67.1,27.5,68.8Z" fill="#c5c5c5"/><path d="M27.4,68.8c.1,1.7-2.1,3.1-4.8,3.2s-4.9-1.4-4.9-3.1,2.2-3.1,4.8-3.1S27.4,67.1,27.4,68.8Z" fill="#c4c4c4"/><path d="M27.4,68.8c0,1.7-2.1,3.1-4.8,3.1s-4.8-1.3-4.8-3,2.1-3.1,4.7-3.1S27.4,67.1,27.4,68.8Z" fill="#c3c3c3"/><path d="M27.4,68.8c0,1.7-2.1,3.1-4.8,3.1s-4.8-1.3-4.8-3,2.1-3,4.7-3.1S27.3,67.1,27.4,68.8Z" fill="#c2c2c2"/><path d="M27.3,68.8c0,1.7-2.1,3-4.7,3.1s-4.7-1.3-4.7-3,2-3,4.6-3S27.3,67.1,27.3,68.8Z" fill="#c1c1c1"/><path d="M27.3,68.8c0,1.7-2.1,3-4.7,3.1s-4.7-1.3-4.7-3,2.1-3,4.6-3S27.2,67.2,27.3,68.8Z" fill="silver"/><path d="M27.2,68.8c0,1.6-2,3-4.6,3s-4.6-1.2-4.7-2.9,2.1-3,4.6-3S27.2,67.2,27.2,68.8Z" fill="#bfbfbf"/><path d="M27.2,68.8c0,1.6-2,3-4.6,3S18,70.5,18,68.9s2-2.9,4.5-3S27.2,67.2,27.2,68.8Z" fill="#bebebe"/><path d="M27.1,68.8c0,1.6-2,2.9-4.5,3s-4.5-1.3-4.6-2.9S20,66,22.5,66,27.1,67.2,27.1,68.8Z" fill="#bdbdbd"/><path d="M27.1,68.8c0,1.6-2,2.9-4.5,2.9s-4.5-1.2-4.5-2.8,2-2.9,4.4-2.9S27.1,67.2,27.1,68.8Z" fill="#bcbcbc"/><path d="M27,68.8c.1,1.6-1.9,2.9-4.4,2.9s-4.5-1.2-4.5-2.8,2-2.8,4.4-2.9S27,67.2,27,68.8Z" fill="#bbb"/><path d="M27,68.8c0,1.6-1.9,2.8-4.4,2.9s-4.4-1.2-4.4-2.8,1.9-2.8,4.3-2.8S27,67.3,27,68.8Z" fill="#bababa"/><path d="M26.9,68.8c.1,1.5-1.9,2.8-4.3,2.8s-4.4-1.1-4.4-2.7,1.9-2.8,4.3-2.8S26.9,67.3,26.9,68.8Z" fill="#b9b9b9"/><path d="M26.9,68.8c0,1.5-1.9,2.8-4.3,2.8s-4.3-1.2-4.3-2.7,1.9-2.7,4.2-2.8S26.9,67.3,26.9,68.8Z" fill="#b8b8b8"/><path d="M26.9,68.8c0,1.5-1.9,2.8-4.3,2.8s-4.3-1.2-4.3-2.7,1.9-2.7,4.2-2.7S26.8,67.3,26.9,68.8Z" fill="#b7b7b7"/><path d="M26.8,68.8c0,1.5-1.9,2.7-4.2,2.8s-4.2-1.2-4.2-2.7,1.8-2.7,4.1-2.7S26.8,67.3,26.8,68.8Z" fill="#b6b6b6"/><path d="M26.8,68.8c0,1.5-1.9,2.7-4.2,2.7s-4.2-1.1-4.2-2.6,1.8-2.7,4.1-2.7S26.7,67.3,26.8,68.8Z" fill="#b5b5b5"/><path d="M26.7,68.8c0,1.5-1.8,2.7-4.1,2.7s-4.1-1.1-4.1-2.6,1.8-2.6,4-2.7S26.7,67.4,26.7,68.8Z" fill="#b4b4b4"/><path d="M26.7,68.8c0,1.5-1.8,2.6-4.1,2.7s-4.1-1.1-4.1-2.6,1.8-2.6,4-2.6S26.6,67.4,26.7,68.8Z" fill="#b2b2b2"/><path d="M26.6,68.8c0,1.4-1.8,2.6-4,2.6s-4-1.1-4.1-2.5,1.8-2.6,4-2.6S26.6,67.4,26.6,68.8Z" fill="#b1b1b1"/><path d="M26.6,68.8c0,1.4-1.8,2.6-4,2.6s-4-1.1-4-2.5,1.7-2.5,3.9-2.6S26.6,67.4,26.6,68.8Z" fill="#b0b0b0"/><path d="M26.5,68.8c0,1.4-1.7,2.6-3.9,2.6s-3.9-1.1-4-2.5,1.8-2.5,3.9-2.5S26.5,67.4,26.5,68.8Z" fill="#afafaf"/><path d="M26.5,68.8c0,1.4-1.7,2.5-3.9,2.6s-3.9-1.1-3.9-2.5,1.7-2.5,3.8-2.5S26.5,67.4,26.5,68.8Z" fill="#aeaeae"/><path d="M26.4,68.8c.1,1.4-1.7,2.5-3.8,2.5s-3.9-1-3.9-2.4,1.7-2.5,3.9-2.5S26.4,67.5,26.4,68.8Z" fill="#adadad"/><path d="M26.4,68.8c0,1.4-1.7,2.5-3.8,2.5s-3.8-1-3.8-2.4,1.6-2.4,3.8-2.5S26.4,67.5,26.4,68.8Z" fill="#acacac"/><path d="M26.3,68.8c.1,1.3-1.6,2.4-3.7,2.5s-3.8-1.1-3.8-2.4,1.7-2.4,3.8-2.4S26.3,67.5,26.3,68.8Z" fill="#ababab"/><path d="M26.3,68.8c0,1.3-1.6,2.4-3.7,2.4s-3.7-1-3.7-2.3,1.6-2.4,3.7-2.4S26.3,67.5,26.3,68.8Z" fill="#aaa"/><path d="M26.3,68.8c0,1.3-1.7,2.4-3.7,2.4s-3.7-1-3.7-2.3,1.6-2.3,3.7-2.4S26.2,67.5,26.3,68.8Z" fill="#a9a9a9"/><path d="M26.2,68.8c0,1.3-1.6,2.4-3.6,2.4s-3.6-1-3.6-2.3,1.6-2.3,3.6-2.3S26.2,67.5,26.2,68.8Z" fill="#a8a8a8"/><path d="M26.2,68.8c0,1.3-1.6,2.3-3.6,2.3S19,70.2,19,68.9s1.6-2.3,3.6-2.3S26.1,67.6,26.2,68.8Z" fill="#a7a7a7"/><path d="M26.1,68.8c0,1.3-1.5,2.3-3.5,2.3s-3.5-.9-3.5-2.2,1.5-2.3,3.5-2.3S26.1,67.6,26.1,68.8Z" fill="#a6a6a6"/><path d="M26.1,68.8c0,1.3-1.6,2.3-3.5,2.3s-3.5-1-3.5-2.2,1.5-2.2,3.5-2.3S26.1,67.6,26.1,68.8Z" fill="#a5a5a5"/><path d="M26,68.8c0,1.2-1.5,2.2-3.4,2.3s-3.4-1-3.5-2.2,1.6-2.2,3.5-2.2S26,67.6,26,68.8Z" fill="#a4a4a4"/><path d="M26,68.8C26,70,24.5,71,22.6,71s-3.4-.9-3.4-2.1,1.5-2.2,3.4-2.2S26,67.6,26,68.8Z" fill="#a3a3a3"/><path d="M25.9,68.8c0,1.2-1.4,2.2-3.3,2.2s-3.3-.9-3.4-2.1,1.5-2.1,3.4-2.2S25.9,67.6,25.9,68.8Z" fill="#a2a2a2"/><path d="M25.9,68.8c0,1.2-1.5,2.1-3.3,2.2s-3.3-.9-3.3-2.1,1.4-2.1,3.3-2.1S25.9,67.7,25.9,68.8Z" fill="#a1a1a1"/><ellipse cx="22.6" cy="68.9" rx="3.3" ry="2.1" transform="translate(-0.9 0.3) rotate(-0.7)" fill="#a0a0a0"/><path d="M25.8,68.8c0,1.2-1.4,2.1-3.2,2.1s-3.2-.9-3.2-2,1.4-2.1,3.2-2.1S25.8,67.7,25.8,68.8Z" fill="#9f9f9f"/><path d="M25.7,68.8c.1,1.1-1.3,2.1-3.1,2.1s-3.2-.9-3.2-2,1.4-2,3.2-2S25.7,67.7,25.7,68.8Z" fill="#9e9e9e"/><path d="M25.7,68.8c0,1.1-1.4,2-3.1,2.1s-3.1-.9-3.1-2,1.3-2,3.1-2S25.7,67.7,25.7,68.8Z" fill="#9d9d9d"/><path d="M25.7,68.8c0,1.1-1.4,2-3.1,2s-3.1-.8-3.1-1.9,1.4-2,3.1-2S25.6,67.7,25.7,68.8Z" fill="#9c9c9c"/><path d="M25.6,68.8c0,1.1-1.3,2-3,2s-3-.8-3-1.9,1.3-1.9,3-2S25.6,67.8,25.6,68.8Z" fill="#9b9b9b"/><path d="M25.6,68.8c0,1.1-1.3,1.9-3,2s-3-.8-3-1.9,1.3-1.9,3-1.9S25.5,67.8,25.6,68.8Z" fill="#9a9a9a"/><path d="M25.5,68.8c0,1.1-1.3,1.9-2.9,1.9s-2.9-.8-2.9-1.8S20.9,67,22.6,67,25.5,67.8,25.5,68.8Z" fill="#999"/><path d="M25.5,68.8c0,1-1.3,1.9-2.9,1.9s-2.9-.8-2.9-1.8S21,67.1,22.6,67,25.5,67.8,25.5,68.8Z" fill="#989898"/><path d="M25.4,68.8c0,1-1.2,1.9-2.8,1.9s-2.8-.8-2.9-1.8,1.3-1.8,2.9-1.8S25.4,67.8,25.4,68.8Z" fill="#979797"/><path d="M25.4,68.8c0,1-1.3,1.8-2.8,1.8s-2.8-.7-2.8-1.7,1.2-1.8,2.8-1.8S25.4,67.9,25.4,68.8Z" fill="#969696"/><path d="M25.3,68.8c0,1-1.2,1.8-2.7,1.8s-2.8-.7-2.8-1.7,1.2-1.8,2.8-1.8S25.3,67.9,25.3,68.8Z" fill="#959595"/><path d="M25.3,68.8c0,1-1.2,1.8-2.7,1.8s-2.7-.7-2.7-1.7,1.2-1.7,2.7-1.8S25.3,67.9,25.3,68.8Z" fill="#949494"/><path d="M25.2,68.8c0,1-1.1,1.7-2.6,1.8s-2.7-.8-2.7-1.7,1.2-1.7,2.7-1.7S25.2,67.9,25.2,68.8Z" fill="#939393"/><path d="M25.2,68.8c0,1-1.2,1.7-2.6,1.7S20,69.8,20,68.9s1.1-1.7,2.6-1.7S25.2,67.9,25.2,68.8Z" fill="#929292"/><path d="M25.1,68.8c.1.9-1.1,1.7-2.5,1.7S20,69.8,20,68.9s1.1-1.6,2.6-1.7S25.1,67.9,25.1,68.8Z" fill="#919191"/><path d="M25.1,68.8c0,.9-1.1,1.7-2.5,1.7s-2.5-.7-2.5-1.6,1.1-1.6,2.5-1.6S25.1,68,25.1,68.8Z" fill="#909090"/><path d="M25.1,68.8c0,.9-1.1,1.6-2.5,1.6s-2.5-.6-2.5-1.5,1.1-1.6,2.5-1.6S25,68,25.1,68.8Z" fill="#8f8f8f"/><path d="M25,68.8c0,.9-1.1,1.6-2.4,1.6s-2.4-.6-2.4-1.5,1-1.6,2.4-1.6S25,68,25,68.8Z" fill="#8e8e8e"/><path d="M25,68.8c0,.9-1.1,1.6-2.4,1.6s-2.4-.7-2.4-1.5,1-1.5,2.4-1.5A2.1,2.1,0,0,1,25,68.8Z" fill="#8d8d8d"/><path d="M24.9,68.8c0,.9-1,1.5-2.3,1.6s-2.3-.7-2.4-1.5,1.1-1.5,2.4-1.5S24.9,68,24.9,68.8Z" fill="#8c8c8c"/><path d="M24.9,68.8c0,.8-1,1.5-2.3,1.5s-2.3-.6-2.3-1.4,1-1.5,2.3-1.5S24.9,68,24.9,68.8Z" fill="#8b8b8b"/><path d="M24.8,68.8c0,.8-1,1.5-2.2,1.5s-2.2-.6-2.3-1.4,1-1.4,2.3-1.5S24.8,68.1,24.8,68.8Z" fill="#8a8a8a"/><path d="M24.8,68.8c0,.8-1,1.5-2.2,1.5s-2.2-.6-2.2-1.4,1-1.4,2.2-1.4S24.8,68.1,24.8,68.8Z" fill="#898989"/><path d="M24.7,68.8c0,.8-.9,1.4-2.1,1.4s-2.2-.5-2.2-1.3,1-1.4,2.2-1.4S24.7,68.1,24.7,68.8Z" fill="#888"/><path d="M24.7,68.8c0,.8-.9,1.4-2.1,1.4s-2.1-.6-2.1-1.3.9-1.4,2.1-1.4S24.7,68.1,24.7,68.8Z" fill="#878787"/><path d="M24.6,68.8c0,.8-.9,1.4-2,1.4s-2.1-.6-2.1-1.3.9-1.3,2.1-1.3S24.6,68.1,24.6,68.8Z" fill="#868686"/><path d="M24.6,68.8c0,.8-.9,1.3-2,1.4s-2-.6-2-1.3.9-1.3,2-1.3S24.6,68.1,24.6,68.8Z" fill="#858585"/><path d="M24.5,68.8c.1.7-.8,1.3-1.9,1.3s-2-.5-2-1.2.9-1.3,2-1.3S24.5,68.2,24.5,68.8Z" fill="#848484"/><path d="M24.5,68.8c0,.7-.8,1.3-1.9,1.3s-1.9-.5-1.9-1.2.8-1.2,1.9-1.3S24.5,68.2,24.5,68.8Z" fill="#838383"/><path d="M24.5,68.8c0,.7-.9,1.2-1.9,1.3s-1.9-.5-1.9-1.2.8-1.2,1.9-1.2S24.4,68.2,24.5,68.8Z" fill="#828282"/><path d="M24.4,68.8c0,.7-.8,1.2-1.8,1.2s-1.8-.5-1.8-1.1.8-1.2,1.8-1.2S24.4,68.2,24.4,68.8Z" fill="#818181"/><path d="M24.4,68.8c0,.7-.8,1.2-1.8,1.2s-1.8-.5-1.8-1.1.8-1.2,1.8-1.2S24.4,68.2,24.4,68.8Z" fill="gray"/></g></g><path d="M23.5,73.5l-.4,1v-.2s-.1-1.2-.6-.9-1.4.4-2.5,0-.5.4-.1,1.2a5.5,5.5,0,0,1,.5,2.4s1.2.3,1.7,0,.5-.1.5-.6.2.5.1,1.1-1.5.9-1.8.7-.4.6,0,.9-.6,11.6-1.2,12.5-.1.1-.1,0h0c.1-2.3.1-4.5.2-6.5V83.4c.1-5.4-.2-7.4-.5-8.3h0c-.1-.2-.2-.3-.2-.4l-.4-.7h0a7.1,7.1,0,0,0-1.2-1.3,1.8,1.8,0,0,1-.1-.5,1.9,1.9,0,0,1,1.6,0c.9.5,1-.1,2.1-.2a1.4,1.4,0,0,1,1.3.3c.6.7.7.2,1.1.1S23.7,73.1,23.5,73.5Z" opacity="0.05" fill="url(#dg)" style="mix-blend-mode:screen"/><path d="M19.7,65.8a.2.2,0,0,1-.2.2h-.1l-.2-.2c-.1-.2-.1-.5-.2-.8V64c0-6.2.1-12.4.1-18.6,0-.9-.1-2.8.6-3.3v.4c-.1,7.4,0,14.7.2,22.1A2.3,2.3,0,0,1,19.7,65.8Z" opacity="0.21" fill="url(#dh)" style="mix-blend-mode:screen"/><path d="M19.7,42.5c-.2.4-.4.2-.4,2.2s.2,20.4.1,21.1V66c-.1.4-.4.2-.4-1.2V64c0-6.2.1-12.4.1-18.6,0-.9-.1-2.8.6-3.3Z" opacity="0.55" fill="url(#di)" style="mix-blend-mode:screen"/><path d="M20.3,45.9c0-.2-.1-1.2-.5-1.2s-.7,4-.7,4V43.8h0a.1.1,0,0,0,.1-.1h0c0-.1,0-.1.1-.1v-.2c0-.1,0-.1.1-.2h0c0-.1,0-.1.1-.2h.4a.3.3,0,0,1,.1.2h.1c0,.2.1.3.1.4h0v.2h0a.6.6,0,0,1,.1.4v.4h0Z" fill="url(#dj)" style="mix-blend-mode:screen"/><path d="M19.5,42.2s.6,23.1.2,23.6-.7.4-.7-.8S18.8,42.3,19.5,42.2Z" fill="url(#dk)" style="mix-blend-mode:screen"/><path d="M24.9,66.6v-.2c0,.9,1.1,2.3-.9,1-.4-.2-1.2-.6-1.6.1s-1.3.2-1.7-.3,0-2.2,0-2.2v.4h0v.6H22v-1s.5,1.1.7.7.6-18.9.6-20.5a25,25,0,0,0-.3-3.2h.2c.1,0,.1,0,.1.1h0a.4.4,0,0,1,.1.3.3.3,0,0,1,.1.2h0a.1.1,0,0,0,.1.1h0v.2c0,.1.1.1.1.2h0v.3h0v.7h0v7.9h0V63h0v3.1a.8.8,0,0,0,.2.5h.1c0,.1,0,.1.1.1h.6c0-.1,0-.1.1-.1Z" opacity="0.47" fill="url(#dl)" style="mix-blend-mode:multiply"/><path d="M23.7,43.4s-.5-.2-.7,1.3,0,17.9-.3,20.2-.5,1.7-.7,1.1h0V65h0v-.5h0l.4-18.3h0v-2a4.1,4.1,0,0,1,.5-1.9h.2c.1,0,.1,0,.1.1h0a.4.4,0,0,1,.1.3.3.3,0,0,1,.1.2h0a.1.1,0,0,0,.1.1h0v.2C23.6,43.3,23.7,43.3,23.7,43.4Z" fill="url(#dm)" style="mix-blend-mode:screen"/><path d="M23.3,45.2v.6c.1,6.2.2,12.3.1,18.5a3.8,3.8,0,0,1-.3,1.8l-.4.2-.2-.2a3.3,3.3,0,0,1-.4-2c0-6.2.3-12.4.5-18.6V43.8a2.9,2.9,0,0,1,.4-1.6h.1l.4.2v.5A19.4,19.4,0,0,0,23.3,45.2Z" opacity="0.27" fill="url(#dn)" style="mix-blend-mode:screen"/><path d="M22.8,42.9s-.7,22-.5,22.7.5.4.5-1.7.3-13.7.4-16.3S22.9,42.2,22.8,42.9Z" opacity="0.33" fill="url(#do)" style="mix-blend-mode:screen"/><path d="M23.7,47.4h0s-.1-3.9-.6-3.9-.6,1.9-.6,1.9h0V44.1a4.1,4.1,0,0,1,.5-1.9h.2c.1,0,.1,0,.1.1h0a.4.4,0,0,1,.1.3.1.1,0,0,1,.1.1h0a.1.1,0,0,0,.1.1h0v.2c0,.1.1.1.1.2h0v.3h0v.7h0Z" fill="url(#dp)" style="mix-blend-mode:screen"/><path d="M24.5,66.8a1,1,0,0,1-1.3-1c0-.8.3-20.8.3-22a4.3,4.3,0,0,0-.5-1.6h.2c.1,0,.1,0,.1.1h0a.4.4,0,0,1,.1.3.1.1,0,0,1,.1.1h0a.1.1,0,0,0,.1.1h0v.2c0,.1.1.1.1.2h0v.3h0v.7h0v7.9h0V63h0v3.1a.8.8,0,0,0,.2.5h.1c0,.1,0,.1.1.1h.3Z" fill="url(#dq)" style="mix-blend-mode:multiply"/><path d="M21.4,66.8c-.7.1-1.1-.4-1.2-1.2s-.4-20.7-.5-21.7a10.5,10.5,0,0,0,0-1.8h.2a.3.3,0,0,1,.1.2h.1c0,.2.1.3.1.4h0v.2h0a.6.6,0,0,1,.1.4v.4h0v1.4h0v1.6h0v3.5l.2,7.6v1.4l.2,4.9v.4h0v.6h.6Z" fill="url(#dr)" style="mix-blend-mode:multiply"/><path d="M26.6,42.9a4.9,4.9,0,0,0-.2,1.5c-.1,3.6-.2,21.1-.3,21.8s-.5.6-.8,0h0v-.2h0v-.8h.1v-.3h0v-.7h0V62.3h0V56.6c.1-.1.1-.1.1-.2v-3a3.1,3.1,0,0,1,.1-1h0V49.4h0v-.2h0v-.5a.6.6,0,0,1,.1-.4h0v-.2h0v-.2h0V45.4h0v-.4h0v-.3a6.7,6.7,0,0,1,.5-1.9h.1a.1.1,0,0,1,.1-.1.9.9,0,0,1,.1.5h.1Z" fill="url(#ds)" style="mix-blend-mode:screen"/><path d="M26.8,44.4v.2l-.3-.5c0-.1-.1-.1-.1-.2s-.6.1-.8.5a5.8,5.8,0,0,1,.4-1.9v-.2h.3A5.2,5.2,0,0,1,26.8,44.4Z" fill="url(#dt)" style="mix-blend-mode:screen"/><path d="M26.3,42.2a30.6,30.6,0,0,0-.4,3.1c0,1.6-.3,14-.3,15.5a23,23,0,0,1-.5,4.2v-.2h0V63.3h0a.4.4,0,0,0,.1-.3v-.8h0v-.8h0V59.1c.1-.1.1-.1.1-.2V55.5c0-.6.1-1.1.1-1.6V52.3h0V50.9c0-.1,0-.2.1-.2V49.4h0V49h0V48h0v-.2h0v-.2h0v-.4a8.6,8.6,0,0,0,.1-1.5h0v-.5h0v-.2a5.8,5.8,0,0,1,.4-1.9v-.2Z" fill="url(#du)" style="mix-blend-mode:screen"/><path d="M23.4,42.7c-.1-.3-.4-.3-.5-.1s-.2.4-.3.6-.4,19.5-.4,21.1.7,1.7.7,1S23.8,46.1,23.4,42.7Z" fill="url(#dv)" style="mix-blend-mode:screen"/><path d="M26.6,43.3c-.1-.3-.4-.3-.5-.1s-.1.4-.1.7-.6,19.4-.5,21,.6,1.7.6,1S27,46.7,26.6,43.3Z" fill="url(#dw)" style="mix-blend-mode:screen"/><path d="M19.7,43.1c-.1-.3-.4-.3-.4-.1a6.4,6.4,0,0,0-.2.7c-.1.8,0,19.4.2,21.1s.7,1.6.7.9S20.2,46.5,19.7,43.1Z" fill="url(#dx)" style="mix-blend-mode:screen"/><path d="M27.1,70.1v.5a1.5,1.5,0,0,1-.6.9h-.1c.7-.5.4-1.9.3-3.1s-.2-22.2-.2-24.1a4.9,4.9,0,0,0-.3-2c0-.1.1-.1.1-.2h.1a5.2,5.2,0,0,1,.4,2.1V70.1Z" opacity="0.67" fill="url(#dy)" style="mix-blend-mode:multiply"/><path d="M16.6,42.9Z" fill="url(#dz)"/><path d="M17.7,65.2h0v.8c-.8-.5-.8-9.6-.8-11.3s0-11.7-.3-12.1v-.6h.2a4.1,4.1,0,0,1,.4,1.9v2.1h0Z" fill="url(#ea)" style="mix-blend-mode:multiply"/><path d="M24.3,66.7a.9.9,0,0,1-1.3-.6c-.3-.9.3-18,.3-20.8a20,20,0,0,0-.2-3.2h.1c.1,0,.1,0,.1.1h0a.4.4,0,0,1,.1.3.3.3,0,0,1,.1.2h0a.1.1,0,0,0,.1.1h0v.2c0,.1.1.1.1.2h0v.3h0v.7h0v7.9h0V63h0v3.1a.8.8,0,0,0,.2.5h.1c0,.1,0,.1.1.1h.1Z" fill="url(#eb)" style="mix-blend-mode:multiply"/><path d="M27.1,70.1v.5a1.5,1.5,0,0,1-.6.9h-.1l-1.3,1.1H25l.7-1.1.7-.9a2.2,2.2,0,0,0,.4-1.3,1.3,1.3,0,0,0-.1-.6,11,11,0,0,0-.3-1.6c-.3-1.2-.3-18.5-.2-21.1a8.8,8.8,0,0,0,0-2.3h0a6.1,6.1,0,0,0-.2-1.5h.4a5.2,5.2,0,0,1,.4,2.1V70.1Z" fill="url(#ec)" style="mix-blend-mode:multiply"/><path d="M25.7,44.4a5.9,5.9,0,0,1,.5-1.9v-.2h-.1v.2a4.1,4.1,0,0,0-.4,1.9l-.5,21.7h.1Z" fill="url(#ed)" style="mix-blend-mode:screen"/><path d="M16.2,65.9h-.1V44.4a5.2,5.2,0,0,1,.4-2.1h-.2a7.8,7.8,0,0,0-.4,2.1V65.9Z" fill="url(#ee)" style="mix-blend-mode:screen"/><path d="M19.6,42.3h0c.1,0,.1,0,.1-.1s-.2,0-.2.1h0a3.7,3.7,0,0,0-.4,1.8V66.2h.1l.2-22.1A5.2,5.2,0,0,1,19.6,42.3Z" fill="url(#ef)" style="mix-blend-mode:screen"/><path d="M23.1,42.2h-.2a5.8,5.8,0,0,0-.4,1.9L22,66.2h.2l.5-22A5.8,5.8,0,0,1,23.1,42.2Z" fill="url(#eg)" style="mix-blend-mode:screen"/><path d="M16.5,71.5a1.3,1.3,0,0,1-.6-1.4V67.4l-.2,2.7a1.5,1.5,0,0,0,.6,1.4c3.1,2.2,3.3,4.7,3.3,4.7S19.5,73.7,16.5,71.5Z" fill="url(#eh)" style="mix-blend-mode:screen"/><polygon points="16 65.1 15.9 67.4 16.1 65.2 16 65.1" fill="url(#ei)" style="mix-blend-mode:screen"/><path d="M20.8,80s-2.2,47.8-2.5,51,1.7,3.9,2.9,3.9,1.1-6.2.7-14.4S21.4,78.6,20.8,80Z" opacity="0.14" fill="url(#ej)" style="mix-blend-mode:screen"/><path d="M25.4,134.4a3.1,3.1,0,0,1-2.1,1.1l-1.5.2a6.4,6.4,0,0,1-2-.3h-.2a2.5,2.5,0,0,1-1.3-.9,6,6,0,0,1-.5-2.8,7.6,7.6,0,0,0,0-2.2c.3,5.3,6.1,4.9,6.6,1.7s-1.8-46.2-2.1-50.7,2-5.8,2-5.8a.3.3,0,0,0,.1.2V75h0a5.4,5.4,0,0,0-.9,2.2h0a38.9,38.9,0,0,0-.3,7.6c.2,10.1,1.1,25.7,1.8,34,.1,1.6.3,3,.4,4.4C25.8,129.3,26.2,133.2,25.4,134.4Z" opacity="0.07" fill="url(#ek)" style="mix-blend-mode:multiply"/><path d="M23.3,91.3a6.3,6.3,0,0,0-3.7-.7c.1-1.9.1-3.8.2-5.5V83.4a41.3,41.3,0,0,0-.2-6.9,13.2,13.2,0,0,0,3.6.2c-.1,1.1-.2,3-.2,6v1.7h0Q23.2,87.6,23.3,91.3Z" fill="url(#el)" style="mix-blend-mode:multiply"/><path d="M23.7,45.1c-.3-.8-.7-1.2-.8-.9a40.5,40.5,0,0,0-.5,4.2V46.1h0v-2a4.1,4.1,0,0,1,.5-1.9h0c0-.1,0-.1.1-.1h.1a.1.1,0,0,1,.1.1h0a.4.4,0,0,1,.1.3.3.3,0,0,1,.1.2h0a.1.1,0,0,0,.1.1h0v.2c0,.1.1.1.1.2h0v.3h0v.7h0Z" fill="url(#em)" style="mix-blend-mode:screen"/><path d="M26.8,46.5h0a24.2,24.2,0,0,0-.3-2.5c-.1-.3-.2-.6-.3-.6h0c-.3,0-.6,1.1-.6,1.1h0a5.8,5.8,0,0,1,.4-1.9h.4a5.2,5.2,0,0,1,.4,2.1Z" fill="url(#en)" style="mix-blend-mode:screen"/><path d="M27.1,70a1.3,1.3,0,0,1-.6,1.4,8.8,8.8,0,0,0-3,3.6,1.4,1.4,0,0,1-.2.6,47,47,0,0,0-.3,5.8v2.5c.2,10,1.1,26.2,1.9,35l.3,3.8c.6,6.6,1,10.8.1,12.2a3.6,3.6,0,0,1-2.3,1.3H21.4a7.3,7.3,0,0,1-2.2-.3H19a3.1,3.1,0,0,1-1.5-1c-.8-1.3-.6-4.8-.1-10.4.2-1.7.4-3.5.5-5.6.8-8.8,1.7-25,1.9-35V81.2a28.3,28.3,0,0,0-.4-6c-.1,0-.1-.1-.1-.2a10.2,10.2,0,0,0-3-3.6,1.3,1.3,0,0,1-.6-1.4l.2-4.3V44.1a5.4,5.4,0,0,1,.5-2.1c0-.1.1-.1.2-.1h0c0,.1,0,.1.1.1v.2a4.1,4.1,0,0,1,.5,1.9v2.2h0l.5,18.8v1.1h.1a.4.4,0,0,0,.4.3h.1a.6.6,0,0,0,.6-.5h0v-.9l.2-21.3a5.8,5.8,0,0,1,.3-1.9h0a.2.2,0,0,1,.4,0,3.7,3.7,0,0,1,.4,1.4h0v.4l.5,21.1v.5a1.8,1.8,0,0,1,.1.6A.6.6,0,1,0,22,66V64.8l.5-18.9h0V43.8a4.1,4.1,0,0,1,.5-1.9c0-.1,0-.1.1-.1s.2,0,.2.1h0a4.1,4.1,0,0,1,.4,1.9v.4h0V66a.7.7,0,0,0,.7.6.6.6,0,0,0,.6-.6h0v-.2h0v-.8l.5-20.8a5.8,5.8,0,0,1,.4-1.9V42h.3a5.2,5.2,0,0,1,.4,2.1V65.3Z" opacity="0.72" fill="url(#eo)" style="mix-blend-mode:soft-light"/><path d="M23.3,75.6c-.1.9-.3,3.5-.3,6.6a10.7,10.7,0,0,0-3.1,0,39.5,39.5,0,0,0-.5-7A9,9,0,0,1,23.3,75.6Z" fill="url(#ep)" style="mix-blend-mode:multiply"/><path d="M25.3,134.9a3.6,3.6,0,0,1-2.3,1.3H21.4a7.3,7.3,0,0,1-2.2-.3H19a3.1,3.1,0,0,1-1.5-1c-.8-1.2-.6-4.3-.2-9.2a4.9,4.9,0,0,0,.1-1.2c2.6.7,5.9-.7,7.8-1.8.1.6.1,1.2.2,1.8C25.9,130.1,26.1,133.6,25.3,134.9Z" opacity="0.55" fill="url(#eq)" style="mix-blend-mode:multiply"/><path d="M25.3,134.9a3.6,3.6,0,0,1-2.3,1.3H21.4a7.3,7.3,0,0,1-2.2-.3H19a3.1,3.1,0,0,1-1.5-1c-.7-1-.6-3.5-.3-7.4,0-.5.1-1.1.1-1.8,2.5,1.2,5.9-.1,8.1-1.2,0,.6.1,1.2.1,1.8C25.9,130.8,26,133.8,25.3,134.9Z" opacity="0.22" fill="url(#er)" style="mix-blend-mode:multiply"/><path d="M25.3,134.9a3.6,3.6,0,0,1-2.3,1.3H21.4a7.3,7.3,0,0,1-2.2-.3H19a3.1,3.1,0,0,1-1.5-1c-.6-.9-.6-2.7-.5-5.6.1-.5.1-1.1.2-1.8,2.5,1.4,6.1-.1,8.3-1.2a8.6,8.6,0,0,1,.1,1.6C25.9,131.5,25.9,133.9,25.3,134.9Z" opacity="0.22" fill="url(#es)" style="mix-blend-mode:multiply"/><path d="M25.3,134.9a3.6,3.6,0,0,1-2.3,1.3H21.4a7.3,7.3,0,0,1-2.2-.3H19a3.1,3.1,0,0,1-1.5-1c-.5-.7-.6-2.1-.5-4.2v-1.4c2.7,1.4,6.5-.2,8.6-1.4a6.6,6.6,0,0,1,.1,1.4C25.9,132.1,25.9,134,25.3,134.9Z" opacity="0.22" fill="url(#et)" style="mix-blend-mode:multiply"/><path d="M25.3,134.9a3.6,3.6,0,0,1-2.3,1.3H21.4a7.3,7.3,0,0,1-2.2-.3H19a3.1,3.1,0,0,1-1.5-1,5.6,5.6,0,0,1-.5-2.7v-1.5c2.7,1.5,6.6-.2,8.7-1.4a7.6,7.6,0,0,1,.1,1.5C25.9,132.8,25.8,134.2,25.3,134.9Z" opacity="0.22" fill="url(#eu)" style="mix-blend-mode:multiply"/><path d="M25.8,132.9a4.4,4.4,0,0,1-.5,2,3.6,3.6,0,0,1-2.3,1.3H21.4a7.3,7.3,0,0,1-2.2-.3H19a3.1,3.1,0,0,1-1.5-1,3,3,0,0,1-.4-1,8.6,8.6,0,0,1-.1-1.7c2.7,1.5,6.6-.2,8.8-1.4Z" opacity="0.22" fill="url(#ev)" style="mix-blend-mode:multiply"/><path d="M25.8,132.9a4.4,4.4,0,0,1-.5,2,3.6,3.6,0,0,1-2.3,1.3H21.4a7.3,7.3,0,0,1-2.2-.3H19a3.1,3.1,0,0,1-1.5-1,3,3,0,0,1-.4-1C19.7,135.6,23.5,134.2,25.8,132.9Z" opacity="0.22" fill="url(#ew)" style="mix-blend-mode:multiply"/><path d="M22,79s2.3,49,2.6,52.4-1.7,3.9-2.9,3.9-1.2-6.4-.8-14.8S21.4,77.6,22,79Z" opacity="0.14" fill="url(#ex)" style="mix-blend-mode:screen"/></g></svg>