<?xml version="1.0" encoding="utf-8"?>
<svg viewBox="0 74.46 344.72 235.31" width="344.72" height="235.31" xmlns="http://www.w3.org/2000/svg">
  <path fill="#f98012" d="M 289.61 309.77 L 289.61 201.51 C 289.61 178.883 280.277 167.567 261.61 167.56 C 242.943 167.553 233.59 178.87 233.55 201.51 L 233.55 309.77 L 178.4 309.77 L 178.4 201.51 C 178.4 178.883 169.21 167.567 150.83 167.56 C 132.13 167.56 122.797 178.877 122.83 201.51 L 122.83 309.77 L 67.67 309.77 L 67.67 195.12 C 67.67 171.5 75.87 153.623 92.27 141.49 C 106.71 130.657 126.23 125.24 150.83 125.24 C 175.77 125.24 194.143 131.637 205.95 144.43 C 216.123 131.637 234.663 125.24 261.57 125.24 C 286.17 125.24 305.683 130.657 320.11 141.49 C 336.51 153.617 344.713 171.493 344.72 195.12 L 344.72 309.77 L 289.61 309.77 Z"/>
  <path fill="#333" d="m174.74 116.9 54.74-40-.7-2.44C130 86.57 85.08 95.15 0 144.47l.79 2.24 6.76.07c-.62 6.81-1.7 23.64-.32 48.95-9.44 27.32-.24 45.88 8.4 66.07 1.37-21 1.23-44-5.22-66.89-1.35-25.14-.24-41.67.37-48.1l56.4.54a258 258 0 0 0 1.67 33.06c50.4 17.71 101.09-.06 128-43.72-7.47-8.37-22.11-19.79-22.11-19.79Z"/>
</svg>