<svg xmlns="http://www.w3.org/2000/svg" version="1.1" xmlns:xlink="http://www.w3.org/1999/xlink" xmlns:svgjs="http://svgjs.com/svgjs" x="0px" y="0px" viewBox="0 0 512 512" style="enable-background:new 0 0 512 512;" xml:space="preserve"><path d="M144,279h-32c-8.3,0-15-6.7-15-15c0-8.3,6.7-15,15-15h32c8.3,0,15,6.7,15,15C159,272.3,152.3,279,144,279z M159,328 c0-8.3-6.7-15-15-15h-32c-8.3,0-15,6.7-15,15s6.7,15,15,15h32C152.3,343,159,336.3,159,328z M159,392c0-8.3-6.7-15-15-15h-32 c-8.3,0-15,6.7-15,15s6.7,15,15,15h32C152.3,407,159,400.3,159,392z M287,264c0-8.3-6.7-15-15-15h-32c-8.3,0-15,6.7-15,15 c0,8.3,6.7,15,15,15h32C280.3,279,287,272.3,287,264z M287,328c0-8.3-6.7-15-15-15h-32c-8.3,0-15,6.7-15,15s6.7,15,15,15h32 C280.3,343,287,336.3,287,328z M287,392c0-8.3-6.7-15-15-15h-32c-8.3,0-15,6.7-15,15s6.7,15,15,15h32C280.3,407,287,400.3,287,392z M415,264c0-8.3-6.7-15-15-15h-32c-8.3,0-15,6.7-15,15c0,8.3,6.7,15,15,15h32C408.3,279,415,272.3,415,264z M415,328 c0-8.3-6.7-15-15-15h-32c-8.3,0-15,6.7-15,15s6.7,15,15,15h32C408.3,343,415,336.3,415,328z M415,392c0-8.3-6.7-15-15-15h-32 c-8.3,0-15,6.7-15,15s6.7,15,15,15h32C408.3,407,415,400.3,415,392z M467,65h-36V40c0-8.3-6.7-15-15-15s-15,6.7-15,15v25H271V40 c0-8.3-6.7-15-15-15s-15,6.7-15,15v25H111V40c0-8.3-6.7-15-15-15s-15,6.7-15,15v25H45C20.2,65,0,85.2,0,110v74v258 c0,24.8,20.2,45,45,45h422c24.8,0,45-20.2,45-45V184v-74C512,85.2,491.8,65,467,65z M30,110c0-8.3,6.7-15,15-15h36v25 c0,8.3,6.7,15,15,15s15-6.7,15-15V95h130v25c0,8.3,6.7,15,15,15s15-6.7,15-15V95h130v25c0,8.3,6.7,15,15,15s15-6.7,15-15V95h36 c8.3,0,15,6.7,15,15v59H30V110z M467,457H45c-8.3,0-15-6.7-15-15V199h452v243C482,450.3,475.3,457,467,457z"/></svg>
