<svg xmlns="http://www.w3.org/2000/svg" version="1.1" xmlns:xlink="http://www.w3.org/1999/xlink" width="512" height="512" x="0" y="0" viewBox="0 0 511 512" style="enable-background:new 0 0 512 512" xml:space="preserve" class=""><path d="M478.45 313.09c-.024-.024-.067-.043-.087-.086l-32.812-30.145c1.11-9.09 1.687-18.09 1.687-26.859s-.578-17.77-1.687-26.86l32.898-30.23c10.856-10.219 13.332-26.43 5.973-39.57l-36.203-62.594c-7.254-12.906-23.02-19.05-37.461-14.547l-42.582 13.438c-14.442-11.242-30.016-20.29-46.403-26.946l-9.832-43.71C308.72 10.515 295.641 0 280.836 0h-72.531c-14.809 0-27.883 10.516-31.106 24.96l-9.836 43.731c-16.383 6.657-31.957 15.704-46.398 26.946L78.34 82.199c-14.356-4.46-30.164 1.621-37.332 14.418L4.656 159.465c-7.297 13.015-4.824 29.226 6.145 39.531l32.808 30.145c-1.129 9.09-1.707 18.09-1.707 26.859s.578 17.77 1.688 26.86L10.69 313.09C-.168 323.309-2.64 339.52 4.72 352.64l36.203 62.59c7.254 12.93 22.996 19.051 37.46 14.57l42.583-13.437c14.441 11.242 30.015 20.29 46.398 26.946l9.836 43.687C180.422 501.484 193.496 512 208.305 512h72.53c14.806 0 27.884-10.516 31.106-24.96l9.832-43.731c16.387-6.657 31.961-15.684 46.403-26.946l42.625 13.438c14.398 4.504 30.164-1.64 37.351-14.442l36.356-62.847a32.352 32.352 0 0 0-6.059-39.422zm-233.88 49.578c-58.816 0-106.668-47.852-106.668-106.668s47.852-106.668 106.668-106.668c58.817 0 106.668 47.852 106.668 106.668S303.387 362.668 244.57 362.668zm0 0"></path></svg>