<?xml version="1.0" encoding="utf-8"?>
<!-- Generator: Adobe Illustrator 25.2.3, SVG Export Plug-In . SVG Version: 6.00 Build 0)  -->
<svg version="1.1" id="Layer_1" xmlns="http://www.w3.org/2000/svg" xmlns:xlink="http://www.w3.org/1999/xlink" x="0px" y="0px"
	 viewBox="0 0 2900 2000" style="enable-background:new 0 0 2900 2000;" xml:space="preserve">
<style type="text/css">
	.st0{fill:#F4A640;}
	.st1{fill:#ADCFD8;}
	.st2{fill:#55769F;}
	.st3{fill:#DAEEF7;}
	.st4{fill:#FEB546;}
	.st5{fill:#FF5B7E;}
	.st6{fill:#E03268;}
	.st7{fill:#02CCC0;}
	.st8{fill:#06BFAD;}
	.st9{fill:#07085B;}
	.st10{opacity:0.5;fill:#55769F;}
	.st11{fill:#FFC0BB;}
	.st12{fill:#F99893;}
	.st13{fill:#333333;}
	.st14{fill:#FFFFFF;}
	.st15{opacity:0.6;fill:#FC8D84;}
	.st16{opacity:0.3;fill:#F99893;}
	.st17{fill:#C4DFE8;}
</style>
<g>
	<g>
		<path class="st0" d="M1371,1534.8l-303.4,121.9L691.9,721.4l256.5-103c25.9-10.4,55.4,2.2,65.8,28.1L1371,1534.8z"/>
		<g>
			
				<rect x="748.8" y="728.3" transform="matrix(0.9846 -0.1746 0.1746 0.9846 -183.5086 199.7504)" class="st1" width="590.1" height="829.6"/>
			
				<rect x="854.2" y="815.7" transform="matrix(0.9846 -0.1746 0.1746 0.9846 -127.7701 184.667)" class="st2" width="263.5" height="5.9"/>
			
				<rect x="796.2" y="801" transform="matrix(0.9846 -0.1746 0.1746 0.9846 -125.2316 183.9825)" class="st2" width="374.2" height="5.9"/>
			
				<rect x="769.8" y="876.9" transform="matrix(0.9846 -0.1746 0.1746 0.9846 -138.2809 187.5004)" class="st2" width="454" height="5.9"/>
			
				<rect x="774.7" y="904.9" transform="matrix(0.9846 -0.1746 0.1746 0.9846 -143.0951 188.7977)" class="st2" width="454" height="5.9"/>
			
				<rect x="784.7" y="960.9" transform="matrix(0.9846 -0.1746 0.1746 0.9846 -152.7222 191.3903)" class="st2" width="454" height="5.9"/>
			
				<rect x="789.6" y="989" transform="matrix(0.9846 -0.1746 0.1746 0.9846 -157.536 192.6871)" class="st2" width="454" height="5.9"/>
			
				<rect x="794.6" y="1017" transform="matrix(0.9846 -0.1746 0.1746 0.9846 -162.35 193.9841)" class="st2" width="454" height="5.9"/>
			
				<rect x="816.4" y="1140.2" transform="matrix(0.9846 -0.1746 0.1746 0.9846 -183.5217 199.6863)" class="st2" width="454" height="5.9"/>
			
				<rect x="821.6" y="1169.2" transform="matrix(0.9846 -0.1746 0.1746 0.9846 -188.5159 201.0342)" class="st2" width="454" height="5.9"/>
			
				<rect x="826.7" y="1198.3" transform="matrix(0.9846 -0.1746 0.1746 0.9846 -193.5057 202.3766)" class="st2" width="454" height="5.9"/>
			
				<rect x="831.9" y="1227.3" transform="matrix(0.9846 -0.1746 0.1746 0.9846 -198.4999 203.7244)" class="st2" width="454" height="5.9"/>
			
				<rect x="837" y="1256.4" transform="matrix(0.9846 -0.1746 0.1746 0.9846 -203.4916 205.0692)" class="st2" width="454" height="5.9"/>
			
				<rect x="842.2" y="1285.4" transform="matrix(0.9846 -0.1746 0.1746 0.9846 -208.4856 206.4166)" class="st2" width="454" height="5.9"/>
			
				<rect x="847.3" y="1314.5" transform="matrix(0.9846 -0.1746 0.1746 0.9846 -213.4751 207.7589)" class="st2" width="454" height="5.9"/>
		</g>
		<g>
			
				<rect x="703.4" y="724.2" transform="matrix(0.9671 -0.2545 0.2545 0.9671 -257.0033 291.6072)" class="st3" width="590.1" height="829.6"/>
			
				<rect x="782.4" y="817.4" transform="matrix(0.9671 -0.2545 0.2545 0.9671 -178.6968 259.6876)" class="st2" width="263.5" height="5.9"/>
			
				<rect x="723.3" y="802.9" transform="matrix(0.9671 -0.2545 0.2545 0.9671 -175.1295 258.2365)" class="st2" width="374.2" height="5.9"/>
			
				<rect x="703" y="877.5" transform="matrix(0.9671 -0.2545 0.2545 0.9671 -193.4639 265.6876)" class="st2" width="454" height="5.9"/>
			
				<rect x="710.2" y="905" transform="matrix(0.9671 -0.2545 0.2545 0.9671 -200.2282 268.4363)" class="st2" width="454" height="5.9"/>
			
				<rect x="724.7" y="960.1" transform="matrix(0.9671 -0.2545 0.2545 0.9671 -213.7555 273.9319)" class="st2" width="454" height="5.9"/>
			
				<rect x="732" y="987.6" transform="matrix(0.9671 -0.2545 0.2545 0.9671 -220.5207 276.6822)" class="st2" width="454" height="5.9"/>
			
				<rect x="739.2" y="1015.1" transform="matrix(0.9671 -0.2545 0.2545 0.9671 -227.2851 279.4314)" class="st2" width="454" height="5.9"/>
			
				<rect x="771.1" y="1136.1" transform="matrix(0.9671 -0.2545 0.2545 0.9671 -257.0411 291.528)" class="st2" width="454" height="5.9"/>
			
				<rect x="778.6" y="1164.7" transform="matrix(0.9671 -0.2545 0.2545 0.9671 -264.0535 294.3756)" class="st2" width="454" height="5.9"/>
			
				<rect x="786.1" y="1193.2" transform="matrix(0.9671 -0.2545 0.2545 0.9671 -271.0641 297.2206)" class="st2" width="454" height="5.9"/>
			
				<rect x="793.6" y="1221.7" transform="matrix(0.9671 -0.2545 0.2545 0.9671 -278.0804 300.0743)" class="st2" width="454" height="5.9"/>
			
				<rect x="801.1" y="1250.2" transform="matrix(0.9671 -0.2545 0.2545 0.9671 -285.095 302.9252)" class="st2" width="454" height="5.9"/>
			
				<rect x="808.6" y="1278.8" transform="matrix(0.9671 -0.2545 0.2545 0.9671 -292.1135 305.7813)" class="st2" width="454" height="5.9"/>
			
				<rect x="816.1" y="1307.3" transform="matrix(0.9671 -0.2545 0.2545 0.9671 -299.123 308.6254)" class="st2" width="454" height="5.9"/>
		</g>
		<path class="st4" d="M1255.9,1581.1L645,1826.4L288.7,939.2L802,622.6c28.9-17.8,66.8-5.3,79.4,26.1L1255.9,1581.1z"/>
	</g>
	<g>
		<path class="st5" d="M447.8,1682.9l-87.1-1.6c-30.3-54.8-52.5-102.5-52.5-102.5c98.4-22.7,181.5-13.4,250.7,13.2l38.1,92.6
			l8.2-71.3c171.5,92.6,242.2,288.5,242.2,288.5s-303.1-32.3-367.4-62.2c-24.8-11.5-56.1-53.1-85.1-99.7
			C418.1,1717.8,447.8,1682.9,447.8,1682.9z"/>
		<path class="st6" d="M308.2,1578.8c0,0,389.2,163.8,539.2,323c0,0-303.1-32.3-367.4-62.2c-24.8-11.5-56.1-53.1-85.1-99.7
			c23.2-22.1,52.9-57.1,52.9-57.1l-87.1-1.6C330.4,1626.4,308.2,1578.8,308.2,1578.8z"/>
		<path class="st5" d="M320.6,1840.5c52.4-31.9,105.3-49,156.4-55.8c15,18.6,33.4,40.6,33.4,40.6l1.9-43.7
			c196.3-8.9,358.9,122.6,358.9,122.6c-113.7,71.7-210.7,91.4-290.1,85c-4.7-15.3-11.4-38.1-11.4-38.1l-14,35.1
			c-38.1-6-71.7-17.8-100.7-32.4c7.4-18.2,15.3-39,15.3-39l-42.3,24C357.2,1895.5,320.6,1840.5,320.6,1840.5z"/>
		<path class="st6" d="M581.2,1989.2c-4.7-15.3-11.4-38.1-11.4-38.1l-14,35.1c-38.1-6-71.7-17.8-100.7-32.4
			c7.4-18.2,15.3-39,15.3-39l-42.3,24c-70.9-43.3-107.4-98.3-107.4-98.3c228.7-26.4,550.7,63.6,550.7,63.6
			C757.7,1975.8,660.7,1995.6,581.2,1989.2z"/>
	</g>
	<path class="st7" d="M1466,661.4l70.3-51.6c-6.9-62.2-16.3-114-16.3-114c-93.5,38.3-155.9,93.8-197.1,155.5l22.3,97.7l-47.8-53.5
		c-86.6,174.6-31.2,375.4-31.2,375.4S1495,869.5,1530.2,808c13.6-23.7,15.2-75.7,12-130.5C1510.4,672.8,1466,661.4,1466,661.4z"/>
	<path class="st8" d="M1519.9,495.8c0,0-223.3,358.4-253.8,575c0,0,228.9-201.3,264.1-262.8c13.6-23.7,15.2-75.7,12-130.5
		c-31.7-4.7-76.2-16.1-76.2-16.1l70.3-51.6C1529.3,547.5,1519.9,495.8,1519.9,495.8z"/>
	<path class="st7" d="M1660.9,716.7c-61.2,4.2-114.2,20.8-159.9,44.7c-1.5,23.9-3.9,52.4-3.9,52.4l-26.8-34.6
		c-165.5,106-222.4,307.3-222.4,307.3c134.2-7.1,224.8-47,286-98c-5-15.2-12.7-37.7-12.7-37.7l31.7,20.6
		c27.7-26.8,48.2-55.9,63.6-84.5c-16.6-10.6-35-23.1-35-23.1l48.4-4.8C1662.8,782.7,1660.9,716.7,1660.9,716.7z"/>
	<path class="st8" d="M1533.9,988.5c-5-15.2-12.7-37.7-12.7-37.7l31.7,20.6c27.7-26.8,48.2-55.9,63.6-84.5
		c-16.6-10.6-35-23.1-35-23.1l48.4-4.8c32.9-76.3,31-142.3,31-142.3c-202,110.4-413,369.9-413,369.9
		C1382.1,1079.4,1472.7,1039.6,1533.9,988.5z"/>
	<g>
		<path class="st6" d="M2222.5,972h41.8c-6.8-4.7-15.4-7.5-24.7-7.5H1193c-54.8,0-99.1,39.3-99.1,87.9v55.8
			c0,48.5,44.4,87.9,99.1,87.9l1034.8-0.3L2222.5,972z"/>
		<path class="st4" d="M1181.6,1108.2v-55.8c0-48.5,44.4-87.9,99.1-87.9h-22.5c-54.8,0-99.1,39.3-99.1,87.9v55.8
			c0,48.5,44.4,87.9,99.1,87.9l22.2,0C1225.9,1196,1181.6,1156.7,1181.6,1108.2z"/>
		<path class="st4" d="M1426.7,1108.2v-55.8c0-48.5,44.4-87.9,99.1-87.9h-22.5c-54.8,0-99.1,39.3-99.1,87.9v55.8
			c0,48.5,44.4,87.9,99.1,87.9l22.2,0C1471,1196,1426.7,1156.7,1426.7,1108.2z"/>
		<path class="st5" d="M1628.3,964.7c-52.4,0-94.8,37.6-94.8,84v63.1c0,46.4,42.4,84,94.8,84h651.5v-14.1h-2.7l-165.6-13.9
			l-33.5-116.4c0,0,64.6-64.3,68.8-66c4.2-1.7,130.3-6.7,130.3-6.7l2.7,0v-14H1628.3z"/>
		<path class="st3" d="M2237.6,1079.9c0-68.1,39.7-101.1,39.7-101.1h-635.6c-48.1,0-87.1,34.6-87.1,77.2v48.6
			c0,42.6,39,77.2,87.1,77.2h635.6C2277.2,1181.8,2237.6,1165.6,2237.6,1079.9z"/>
		<path class="st3" d="M1554.6,1056v48.6c0,6.4,0.9,12.6,2.5,18.5c21.4-46.5,62.5-91.3,140.7-105.7
			c182.6-33.6,579.4-38.6,579.4-38.6h-635.6C1593.6,978.8,1554.6,1013.4,1554.6,1056z"/>
	</g>
	<g>
		<path class="st9" d="M2205.2,1434.9h47.3c-7.7-5.9-17.4-9.4-27.9-9.4H1040.1c-62,0-112.2,49.3-112.2,110v69.9
			c0,60.8,50.2,110,112.2,110l1171.2-0.4L2205.2,1434.9z"/>
		<path class="st2" d="M1532.8,1425.8c-59.3,0-107.3,47.1-107.3,105.2v79c0,58.1,48,105.2,107.3,105.2h737.4v-17.7h-3l-187.5-17.4
			l-37.9-145.7c0,0,73.1-80.5,77.9-82.6c4.8-2.1,147.4-8.4,147.4-8.4l3,0v-17.6H1532.8z"/>
		<path class="st3" d="M2222.3,1569.9c0-85.2,44.9-126.5,44.9-126.5h-719.4c-54.4,0-98.6,43.3-98.6,96.6v60.8
			c0,53.4,44.1,96.6,98.6,96.6h719.4C2267.2,1697.5,2222.3,1677.2,2222.3,1569.9z"/>
		<path class="st3" d="M1449.3,1540.1v60.8c0,8,1,15.7,2.9,23.2c24.3-58.2,70.8-114.2,159.3-132.3c206.7-42.1,655.8-48.3,655.8-48.3
			h-719.4C1493.4,1443.4,1449.3,1486.7,1449.3,1540.1z"/>
	</g>
	<g>
		<path class="st7" d="M888.8,1202.9h-47.3c7.7-4.6,17.4-7.4,28-7.4h1185c62,0,112.3,39.1,112.3,87.3v55.4
			c0,48.2-50.3,87.3-112.3,87.3l-1171.7-0.3L888.8,1202.9z"/>
		<path class="st8" d="M1561.5,1195.7c59.3,0,107.4,37.4,107.4,83.5v62.7c0,46.1-48.1,83.5-107.4,83.5H823.9v-14h3l187.5-13.8
			l37.9-115.6c0,0-73.2-63.9-77.9-65.5c-4.8-1.6-147.5-6.6-147.5-6.6l-3,0v-13.9H1561.5z"/>
		<path class="st3" d="M871.7,1310.1c0-67.6-44.9-100.4-44.9-100.4h719.6c54.5,0,98.6,34.3,98.6,76.7v48.2
			c0,42.3-44.1,76.7-98.6,76.7H826.8C826.8,1411.3,871.7,1395.2,871.7,1310.1z"/>
		<path class="st3" d="M1645,1286.4v48.2c0,6.3-1,12.5-2.9,18.4c-24.3-46.2-70.8-90.7-159.3-105c-206.7-33.4-656-38.3-656-38.3
			h719.6C1600.9,1209.7,1645,1244.1,1645,1286.4z"/>
		<path class="st10" d="M1949.6,1338.2v-55.4c0-48.2-50.3-87.3-112.3-87.3h112.5c62,0,112.3,39.1,112.3,87.3v55.4
			c0,48.2-50.3,87.3-112.3,87.3l-111,0C1900.1,1424.9,1949.6,1386.1,1949.6,1338.2z"/>
	</g>
	<path class="st4" d="M799.4,1724.3h-51c8.3-5.2,18.8-8.3,30.1-8.3h1277.4c66.8,0,121,43.7,121,97.5v61.9c0,53.9-54.2,97.5-121,97.5
		l-1263.1-0.3L799.4,1724.3z"/>
	<path class="st0" d="M1524.6,1716.2c63.9,0,115.7,41.8,115.7,93.3v70c0,51.5-51.8,93.3-115.7,93.3H729.4v-15.7h3.3l202.2-15.4
		l40.9-129.2c0,0-78.9-71.4-84-73.2c-5.1-1.8-159-7.4-159-7.4l-3.3,0v-15.6H1524.6z"/>
	<path class="st3" d="M780.9,1844c0-75.5-48.4-112.1-48.4-112.1h775.8c58.7,0,106.3,38.4,106.3,85.7v53.9
		c0,47.3-47.6,85.7-106.3,85.7H732.5C732.5,1957.1,780.9,1939.1,780.9,1844z"/>
	<path class="st9" d="M825,1900l10.9,24.2c0.9,2,0,4.3-2,5.2l-56.7,25.4c-4.1,1.8-8.1-2.8-5.6-6.6l21.9-34.2
		C793.5,1914.1,810.9,1917.3,825,1900z"/>
	<path class="st9" d="M897.1,1900l10.9,24.2c0.9,2,0,4.3-2,5.2l-56.7,25.4c-4.1,1.8-8.1-2.8-5.6-6.6l21.9-34.2
		C865.6,1914.1,882.9,1917.3,897.1,1900z"/>
	<path class="st9" d="M2113.4,1173.7l-10.9,24.2c-0.9,2,0,4.3,2,5.2l56.7,25.4c4.1,1.8,8.1-2.8,5.6-6.6l-21.9-34.2
		C2144.9,1187.9,2127.6,1191,2113.4,1173.7z"/>
	<path class="st9" d="M2039.9,1170.8l-10.9,24.2c-0.9,2,0,4.3,2,5.2l56.7,25.4c4.1,1.8,8.1-2.8,5.6-6.6l-21.9-34.2
		C2071.4,1185,2054.1,1188.1,2039.9,1170.8z"/>
	<path class="st3" d="M1614.6,1817.6v53.9c0,7.1-1.1,14-3.1,20.5c-26.2-51.6-76.3-101.3-171.8-117.3
		c-222.9-37.3-707.2-42.8-707.2-42.8h775.8C1567,1731.9,1614.6,1770.2,1614.6,1817.6z"/>
	<path class="st9" d="M1019.6,1232.3l6,37.8l12.7-50.4c0,0-17.9-8.7-18.6-5.5C1018.9,1217.3,1019.6,1232.3,1019.6,1232.3z"/>
	<polygon class="st11" points="1120.9,1313.7 1126.4,1379.1 1068.7,1376.3 1075.4,1318.4 	"/>
	<path class="st12" d="M1072.2,1345.9l3.2-27.5l45.5-4.7l1.9,22.6C1113.8,1345.3,1097.5,1354.7,1072.2,1345.9z"/>
	<g>
		<path class="st12" d="M1036.8,1269.6c3.5,7.2,1.6,15.2-4.1,18c-5.7,2.8-13.2-0.8-16.7-8c-3.5-7.2-1.6-15.2,4.1-18
			C1025.9,1258.9,1033.4,1262.4,1036.8,1269.6z"/>
		<path class="st11" d="M1028.5,1274.9c-0.3-1.9-0.7-3.7-1.2-5.6c-1.8-7.4-2.3-15.4-1-23.7c4-26.8,25.5-48.1,52.3-51.8
			c36.1-5,67.9,21.7,70.1,57.1c3.7-2.4,8-3.2,11.9-1.7c7.5,2.8,10.8,12.7,7.3,22.1c-3.5,9.4-12.4,14.7-19.9,11.9
			c-1-0.4-2-0.9-2.9-1.6c-1.2,30.3-24.4,55.1-54,56.5c-14.5,0.7-28-4.4-38.4-13.2C1038.5,1314.5,1031.3,1292.3,1028.5,1274.9z"/>
		<path class="st12" d="M1073.4,1255.1c-0.1,3.5-0.1,7-0.3,10.4c-0.2,3.3-0.6,6.8-1.9,9.2c-1.3,1.9-2.4,3.1-2.4,5.4
			c-0.1,2.3,1.2,4.4,2.7,5.7c3.1,2.6,7.2,2.9,10.6,2.1c-3.4-0.6-6.8-1.8-8.7-4c-0.9-1.1-1.5-2.4-1.3-3.5c0.1-1.3,0.5-1.6,2.1-3.7
			c1.1-1.9,1.5-3.8,1.7-5.6c0.2-1.9,0.1-3.7,0-5.4C1075.5,1261.9,1074.7,1258.4,1073.4,1255.1z"/>
		<path class="st13" d="M1093.9,1259.8c0.1,3,2.7,5.3,5.6,5.1s5.3-2.7,5.1-5.6c-0.1-3-2.7-5.3-5.6-5.1
			C1096,1254.3,1093.7,1256.8,1093.9,1259.8z"/>
		<path class="st13" d="M1047.8,1265c0.1,3,2.7,5.3,5.6,5.1c3-0.1,5.3-2.7,5.1-5.6c-0.1-3-2.7-5.3-5.6-5.1S1047.7,1262,1047.8,1265z
			"/>
		<path class="st12" d="M1102.9,1296.2c-1.4,1.2-2.9,2.4-4.4,3.4c-1.5,1-3.1,2-4.8,2.8c-3.3,1.6-6.8,2.8-10.4,3.2
			c-3.6,0.5-7.3,0.1-10.8-0.8c-3.5-1-6.9-2.6-10.1-4.6c3.5,2.9,6.3,4.4,9.8,5.6c3.6,1.2,7.3,1.6,11.3,1.2c3.8-0.5,7.5-1.8,10.8-3.7
			C1097.4,1301.4,1100.5,1299.1,1102.9,1296.2z"/>
		<path class="st9" d="M1087.1,1247.6c2.7-0.8,5.3-1.5,7.9-1.9c2.5-0.4,5-0.5,7.5-0.2c2.4,0.3,4.9,0.8,7.2,1.9
			c1.8,0.6,6.1,3.1,7.3,3.6c-1.3-2.4-3.3-5.1-5.6-6.5c-2.4-1.8-5.3-2.8-8.3-3.2c-3-0.4-6.1,0.1-8.8,1.2
			C1091.4,1243.7,1088.9,1245.3,1087.1,1247.6z"/>
		<path class="st9" d="M1063.4,1250.3c-2.2-1.9-4.9-3.1-7.8-3.6c-2.9-0.5-6-0.4-8.9,0.6c-2.9,1-5.6,2.5-7.6,4.8
			c-2.1,1.9-3.4,4.8-4.3,7.5c1-0.7,4.8-4.1,6.4-5c2.1-1.5,4.4-2.5,6.7-3.3c2.3-0.8,4.8-1.2,7.4-1.3
			C1057.9,1249.9,1060.5,1250,1063.4,1250.3z"/>
	</g>
	<path class="st8" d="M1089.1,1620.4c0,0,12,81.6-66.8,95.8c-78.9,14.2-177,10-177,10l-13.7,187.5l-41.2,2.1
		c0,0-106-260.5,40.7-301.2l131.9,0.6l54.3-3.9c0,0,54.9-13.6,55.6-11C1073.6,1602.9,1087.8,1621.7,1089.1,1620.4z"/>
	<path class="st7" d="M1161.6,1620.8c0,0,12,81.6-66.8,95.8c-78.9,14.2-177,10-177,10l-13.7,187.5l-41.2,2.1
		c0,0-106-260.5,40.7-301.2l131.9,0.6l54.3-3.9c0,0,54.9-13.6,55.6-11C1146.1,1603.3,1160.3,1622.1,1161.6,1620.8z"/>
	<path class="st5" d="M1062.3,1353c0,0-54.3,6.9-68.1,18.1c-13.8,11.2-80.1,175.8-80.1,175.8l55.2,64.6l117.2,0.9
		c0,0,87.9,47.4,143.1,2.6c55.2-44.8,26.7-200.8-5.2-234.4s-88.8-32.7-88.8-32.7S1083.8,1384,1062.3,1353z"/>
	<path class="st14" d="M1167.4,1434.9c-1.9,9-3.1,18.1-4,27.2c-0.5,4.6-0.7,9.2-0.9,13.7c-0.1,4.6-0.2,9.2-0.2,13.8
		c0.2,9.2,0.7,18.4,2.3,27.5c1.5,9.1,3.8,18.2,8,26.3c-2.8-8.7-4.2-17.7-5.3-26.7c-1-9-1.3-18.1-1.5-27.2c-0.2-9.1,0-18.2,0.3-27.3
		C1166.5,1453.1,1166.9,1444,1167.4,1434.9z"/>
	<path class="st14" d="M1005,1428.8c-2.5,13.4-5.1,26.7-7.8,39.9c-2.7,13.3-5.5,26.5-8.8,39.6c-3.2,13.1-6.7,26.2-11,39
		c-2.1,6.4-4.5,12.7-7.3,18.8c-2.8,6.1-6,12.1-10.4,17.3c5-4.7,8.7-10.6,12-16.5c3.2-6,6-12.3,8.4-18.7c2.4-6.4,4.5-12.9,6.5-19.4
		c1.9-6.5,3.7-13.1,5.3-19.7c1.6-6.6,3-13.3,4.4-19.9c1.3-6.7,2.6-13.4,3.6-20.1C1002.1,1455.8,1003.8,1442.4,1005,1428.8z"/>
	<path class="st11" d="M977.7,1574.3c0.3-2.7,21.1-5.8,28.7-6.2c5.8-0.3,44-1.6,57-2.2l-1,3.3l0.2,14.8l2.1,9.8
		c-11.4,0.7-39.3,1.8-45.1,3c-7.8,1.5-21.2,7.4-21.2,7.4s-5.6-1.3,1.5-4.3c5.7-2.5,9.7-6.3,11.4-8.2c1-1.1-0.1-3-0.8-2.8
		c-19.4,5.1-21.4,5.9-21.4,5.9s-22.8-0.1-0.1-5.2c13.6-3.1,18.4-4.8,19.6-6.4c0.5-0.6-0.4-2.9-1.2-2.9c-11.8-0.7-32.9,3.4-27.1,0.7
		c4.7-2.2,19.6-4.7,25.3-5.6c0.4-0.1,0.9-2.2-0.6-2.3C993.9,1572.1,977.4,1576.8,977.7,1574.3z"/>
	<path class="st14" d="M1180.7,1541.2c-4.8,1.2-9.5,2.5-14.3,3.5c-4.8,1.1-9.6,2-14.3,3c-9.6,1.8-19.2,3.3-28.9,4.6
		c-9.7,1.3-19.4,2.4-29.1,3.4c-9.7,1-19.5,1.8-29.1,2.3l-1.3,0.1l-0.3,1.1c-0.8,3.2-1.4,6.4-1.8,9.7c-0.4,3.2-0.6,6.5-0.6,9.8
		c0,3.3,0.3,6.5,0.8,9.8c0.6,3.2,1.6,6.4,2.8,9.4l0.1,0.3l0.2,0.1l10.6,7.1c3.5,2.4,7.1,4.7,10.7,7.1c-3.3-2.7-6.7-5.3-10.1-7.9
		l-10.1-7.8l0.3,0.4c-1.1-2.9-1.8-6-2.2-9.1c-0.4-3.1-0.5-6.2-0.5-9.4c0.1-3.1,0.4-6.3,0.9-9.4c0.5-3.1,1.1-6.2,1.9-9.2l-1.6,1.2
		c5.1-0.1,9.9-0.5,14.8-0.8c4.9-0.4,9.8-0.7,14.7-1.3c9.8-1,19.5-2.2,29.2-3.8c9.7-1.6,19.3-3.5,28.9-5.7c4.8-1.2,9.5-2.4,14.2-3.9
		C1171.4,1544.5,1176.1,1542.8,1180.7,1541.2z"/>
	<path class="st9" d="M732.5,1464.6h212l60.1,146.7h102.1c2.9,0,5.2,2.3,5.2,5.2l0,0c0,2.9-2.3,5.2-5.2,5.2H803L732.5,1464.6z"/>
	<path class="st3" d="M837.6,1548.3c1.3,6.3,6.7,10.4,12.2,9.3c5.5-1.1,8.9-7.1,7.6-13.3c-1.3-6.3-6.7-10.4-12.2-9.3
		C839.8,1536.1,836.4,1542.1,837.6,1548.3z"/>
	<path class="st9" d="M1018.4,1196.5c0,0-18.1,0.6,0.9-14.7c19-15.3,70-33.3,102.7-16c0,0,6.5-13.9,16-10.6
		c9.4,3.3-6.1,12.9-6.1,12.9s12.1-0.4,15.7,5.5c2.7,4.4-4.7,4.6-8.7,4.4c6.9,1.2,33.2,17.8,20,70.9c-4.7-1-31.5-39.9-31.5-39.9
		s-61.2,34-55.2,7c0,0-63.4,39.6-54.4,6.9C1017.8,1222.9,993.3,1224.7,1018.4,1196.5z"/>
	<path class="st9" d="M1158.9,1249.2c0,0-5.1-1.8-10.5,2.5c-5.5,4.3-4.8,19.5-4.8,19.5s-26,16.8-23.3-54.2
		c2.9-75.5,21.7,6.1,21.7,6.1L1158.9,1249.2z"/>
	<g>
		
			<rect x="1975.8" y="1894.4" transform="matrix(-1 -1.224647e-16 1.224647e-16 -1 4489.8438 3818.6533)" class="st3" width="538.2" height="29.8"/>
		<path class="st3" d="M2499,1663.5l8.2,37.5c3.1,14.4-6.1,28.6-20.5,31.6l-480.6,101.4c-14.7,3.1-29.1-6.7-31.7-21.5l-4.2-24.7
			c-1.9-11.2,3.5-22.4,13.5-27.8l143.9-78.3c3-1.7,6.4-2.7,9.8-3.1l329.7-35.6l2.4-0.3C2483.2,1641,2496.1,1650,2499,1663.5z"/>
		<path class="st6" d="M2012.9,1775c0,0-68.6,50-18.7,132.4l-3,21.3l-88,6l-80.6-16.4l-14.9-134.3l193.2-57.4L2012.9,1775z"/>
		<path class="st5" d="M1811.6,1973h747.3c7.1,0,12.8-5.7,12.8-12.8v-39.9c0-7.1-5.7-12.8-12.8-12.8h-747.3
			c-7.1,0-12.8,5.7-12.8,12.8v39.9C1798.8,1967.3,1804.5,1973,1811.6,1973z"/>
		<path class="st5" d="M2554.4,1654.9l-549.3,129.5c-4.4,1-9,0.9-13.3-0.3c-21.6-6.2-94.9-21.7-156.6,30.9
			c-14.6,12.4-37,5.8-42.3-12.6l-9.8-34.6c-3.2-11.2,1.4-23.1,11.3-29.3c79.8-49.9,428.9-258.9,658.8-243
			c21.7,1.5,41.2,13.6,52.3,32.3l59.9,101.5C2571.3,1639.3,2565.8,1652.2,2554.4,1654.9z"/>
		<circle class="st5" cx="1907.2" cy="1855" r="32.8"/>
	</g>
	<path class="st5" d="M1973.7,386.6c0,0,61.8-10.4,82.5,58.6l-25.6,38.3c0,0-53.7-20.6-53.9-22.6
		C1976.5,458.9,1973.7,386.6,1973.7,386.6z"/>
	<path class="st5" d="M1874.2,417.7c0,0-18,27.1-27.2,37.9c-23.1,27-26.1,18.6-40.5,41.8c-15.5,25.1,0.2,40.8,9.1,48.1
		c8.9,7.2-6,34,10.6,49c21.8,19.6,41.9,1.1,56.9,12.1c15,11,18.2,27.3,53.7,24.2c35.5-3.1,35.1-119.1,35.1-119.1s-29.1-61.5-30.2-62
		C1940.6,449.1,1874.2,417.7,1874.2,417.7z"/>
	<path class="st5" d="M2056.2,445.2c0,0,2.1,21.3,9.2,33.6c17.7,30.9,27.3,20.8,37.1,46.3c10.6,27.5-7.7,40.1-17.9,45.5
		c-10.1,5.5-0.4,34.5-19.5,46.2c-25,15.3-41.4-6.7-58.1,1.4c-16.8,8-23,23.5-57.3,13.8c-34.3-9.6-12.4-123.6-12.4-123.6
		s40-55.1,41.2-55.4C1979.6,452.8,2056.2,445.2,2056.2,445.2z"/>
	<path class="st11" d="M1966.5,582.7c0,0-59.2-10.9-86.5-10c-27.2,0.9,16.5,71.7,16.5,71.7l44.5,1c0,0,27.3-30.5,25.5-34
		c-1.8-3.5,0.1-26.8,0.1-26.8L1966.5,582.7z"/>
	<g>
		<path class="st11" d="M1913.7,526.1l-15.6,47.4c0,0,13.6,28.1,55.3,16c0,0-4.8-9.8,1.6-30C1961.5,538.8,1913.7,526.1,1913.7,526.1
			z"/>
		<path class="st15" d="M1913.7,526.1l-7.3,22.2c4.4,16.2,18.5,27.2,45.3,30.6c0-4.8,0.7-11.3,3.3-19.4
			C1961.5,538.8,1913.7,526.1,1913.7,526.1z"/>
		<g>
			<path class="st12" d="M2009,491.4c-3.4,7.7-1.1,16.1,5,18.8c6.2,2.7,13.9-1.3,17.3-9c3.4-7.7,1.1-16.1-5-18.8
				C2020.1,479.7,2012.4,483.7,2009,491.4z"/>
			<path class="st11" d="M2010.8,526.4c4-9.9,6.2-20.5,7.3-29.8c0.2-2,0.6-4,1-5.9c1.6-7.9,1.8-16.3,0.2-25.1
				c-5.3-28.1-28.8-49.7-57.2-52.6c-38.3-3.9-70.8,25.6-71.8,63c-4-2.4-8.6-3-12.6-1.3c-7.8,3.2-10.9,13.8-6.8,23.5
				c4.1,9.8,13.7,15,21.5,11.8c1.1-0.5,2.1-1.1,3-1.8c2.4,31.9,27.8,57.2,59.1,57.5C1977.9,566.1,2001,551.8,2010.8,526.4z"/>
			<path class="st12" d="M1969.9,477.5c-1.2,3.5-1.9,7.2-2.1,11c-0.1,1.9-0.1,3.8,0.2,5.7c0.3,1.9,0.7,3.9,2,5.8
				c1.4,1.8,2.2,2.4,2.4,3.9c0.3,1.3-0.3,2.6-1.2,3.8c-2,2.5-5.4,3.8-9,4.5c3.6,0.7,7.9,0.3,11.1-2.6c1.6-1.4,2.8-3.6,2.6-6.1
				c-0.2-2.5-1.3-3.6-2.8-5.6c-0.8-1.2-1.2-2.8-1.6-4.4c-0.4-1.7-0.5-3.4-0.7-5.2C1970.3,484.9,1970.1,481.2,1969.9,477.5z"/>
			<path class="st13" d="M1948.5,483.2c0,3.1-2.6,5.7-5.7,5.6c-3.1,0-5.7-2.6-5.6-5.7c0-3.1,2.6-5.7,5.7-5.6
				C1946,477.5,1948.5,480.1,1948.5,483.2z"/>
			<path class="st13" d="M1997.2,486.9c0,3.1-2.6,5.7-5.7,5.6c-3.1,0-5.7-2.6-5.6-5.7c0-3.1,2.6-5.7,5.7-5.6
				C1994.8,481.2,1997.3,483.8,1997.2,486.9z"/>
			<path class="st16" d="M1947.5,526.4c0,0,8.1-2.9,15.8,2.1c0,0,8.3-5.2,14.8-0.2c0,0-3,12.3-16.6,11.5
				C1947.9,538.9,1947.5,526.4,1947.5,526.4z"/>
			<path class="st12" d="M1940.4,522c1.5,1.2,3.1,2.4,4.8,3.4c1.7,1,3.4,2,5.2,2.7c3.6,1.6,7.3,2.7,11.1,3c3.8,0.3,7.7-0.1,11.4-1.3
				c3.7-1.2,7.2-3,10.5-5.2c-1.5,1.3-3,2.5-4.7,3.6c-1.7,1.1-3.5,1.9-5.4,2.7c-1.9,0.7-3.8,1.2-5.8,1.5c-2,0.3-4,0.3-6.1,0.2
				c-4-0.4-8-1.6-11.5-3.4C1946.3,527.3,1943.1,525,1940.4,522z"/>
			<path class="st5" d="M1955.2,470.2c-2.9-0.8-5.7-1.4-8.4-1.7c-2.7-0.3-5.3-0.3-7.9,0.1c-2.5,0.4-5.1,1.1-7.5,2.3
				c-1.9,0.7-6.4,3.5-7.5,4.1c1.3-2.6,3.2-5.5,5.7-7.1c2.4-2,5.5-3.2,8.7-3.7c3.2-0.5,6.4-0.2,9.4,0.9
				C1950.5,466.2,1953.2,467.8,1955.2,470.2z"/>
			<path class="st5" d="M1980.3,472.1c2.2-2.1,5.1-3.4,8.1-4.1c3-0.7,6.3-0.6,9.4,0.2c3.1,0.9,6,2.5,8.2,4.7c2.2,1.9,3.8,5,4.8,7.7
				c-1.1-0.7-5.2-4.1-7-5c-2.3-1.5-4.7-2.4-7.2-3.2c-2.5-0.7-5.1-1.1-7.8-1.1C1986.1,471.4,1983.3,471.6,1980.3,472.1z"/>
		</g>
	</g>
	<path class="st0" d="M1863.5,872.4c0,0-17.5,82.2,61.8,101.7c79.3,19.5,179.3,21.5,179.3,21.5l1.9,191.5l41.7,4.8
		c0,0,124.5-258-22.1-308.9l-134.1-7.8l-55-7.4c0,0-55-17.3-55.8-14.7C1880.4,855.7,1864.7,873.8,1863.5,872.4z"/>
	<path class="st4" d="M1789.8,868.2c0,0-17.5,82.2,61.8,101.7c79.3,19.5,179.3,21.5,179.3,21.5l1.8,191.5l41.7,4.8
		c0,0,124.5-258-22.1-308.9l-134.1-7.8l-55-7.4c0,0-55-17.3-55.8-14.7C1806.7,851.4,1791,869.6,1789.8,868.2z"/>
	<path class="st3" d="M2054.9,996.9c-2.3-0.4-4.6-0.8-6.8-1.3c-2.3-0.5-4.5-1.1-6.7-1.8c-1.1-0.3-2.2-0.7-3.3-1.1
		c1.1-0.2,2.3-0.6,3.4-1c2.2-0.8,4.2-1.9,6.1-3.1c1.8-1.4,3.6-2.8,5.1-4.5c1.5-1.7,2.9-3.5,4-5.4l-2.3,2.5c-0.8,0.8-1.6,1.6-2.4,2.3
		c-1.6,1.5-3.4,2.8-5.3,3.9c-1.9,1.1-3.8,2-5.9,2.8c-2,0.7-4.2,1.2-6.2,1.3l-3.7,0.1l3.3,1.5c2.2,1,4.5,1.7,6.7,2.4
		c2.3,0.6,4.6,1.1,6.9,1.5c2.3,0.4,4.6,0.7,7,0.9c2.3,0.2,4.7,0.3,7,0.3C2059.4,997.6,2057.1,997.3,2054.9,996.9z"/>
	<path class="st11" d="M2033.9,698.1c0,0,5.4,134.3,20.5,155.4l-83.1-18.9V688.4L2033.9,698.1z"/>
	<path class="st7" d="M1998.5,716.4c0,0-11.6,33.8-13.7,51.8c-5.2,44.6,0.5,76.1,9.7,101.4c12.9,35.6-92.8,22.7-94.9,21.6
		c-2.2-1.1-92.8-36.1-92.8-36.1l-17.3-50.2v-88.5l4.9-40.5L1998.5,716.4z"/>
	<path class="st11" d="M1745.3,676l66.5,22.7c0,0-11.5,106.4-7.9,121.6c3.1,12.9,51.3,38.6,81.9,52.9c4.9,2.3,10.3,3.3,15.8,2.9
		c17.4-1.4,48.3-4.1,53.1-4.5c7.6-0.5,28.5,0,29.2,2.7c0.6,2.5-16.3-0.3-27.3,2c-1.5,0.3-0.7,2.4-0.4,2.4c5.8,0.2,20.9,0.9,25.8,2.5
		c6.1,2-15.4,0.4-27,2.5c-0.8,0.1-1.5,2.4-0.9,3c1.4,1.4,6.4,2.6,20.3,4c23.1,2.4,0.5,5.2,0.5,5.2s-2.1-0.6-21.9-3.3
		c-0.7-0.1-1.5,2-0.4,2.9c1.9,1.7,6.3,5,12.3,6.7c7.4,2.2,2,4.1,2,4.1s-14.1-4.2-22-4.8c-5.9-0.4-33.7,1.8-45.1,2.5l-0.9-2
		c-15.5-0.5-138.9-3.7-150.8-80.2C1735.9,743.2,1745.3,676,1745.3,676z"/>
	<g>
		<path class="st9" d="M2228.8,752.2h-212l-60.1,146.7h-102.1c-2.9,0-5.2,2.3-5.2,5.2l0,0c0,2.9,2.3,5.2,5.2,5.2h303.8L2228.8,752.2
			z"/>
		<path class="st3" d="M2123.7,835.9c-1.3,6.3-6.7,10.4-12.2,9.3c-5.5-1.1-8.9-7.1-7.6-13.3c1.3-6.3,6.7-10.4,12.2-9.3
			C2121.5,823.7,2125,829.7,2123.7,835.9z"/>
	</g>
	<path class="st7" d="M1966.5,582.7c0,0-40.3,47-86.5-10c0,0-50.5-4.1-87.7,22.3c-37.2,26.4-59.5,85.8-59.5,85.8s67.4,34,84.2,35.6
		h187.2c0,0,28.6-2.2,56.1-16.2C2060.3,700.2,2055.5,605.9,1966.5,582.7z"/>
	<path class="st9" d="M1841.6,662.9c-1.7,5.8-3.3,11.7-4.9,17.6c-2.9,11.5-5.6,22.5-7.5,34.4c-3.6,0.2-7.8-0.4-11.4-0.9
		c-19.4-3.5-32.2-8.9-49.5-16c-25.9-11.8-22.4-10.7-35.5-17.1c15.2,9.6,23.4,13.9,34.4,19.5c15.2,7,29.7,13.5,50.1,17.1
		c8.9,1.2,11.5,0.9,14.9,0.6c1.3-8.7,2.8-17.5,7-37l3.9-17.8l4-17.8C1845.1,651.2,1843.3,657,1841.6,662.9z"/>
	<path class="st9" d="M1989.3,631.8c2.6,6.9,5,13.8,7.2,20.8c2.1,7,4,14,5.2,21.2c1.2,6.1,2,14.1,1.7,21.6
		c-0.3,7.2-10.9,41.1-14.1,47.8c4.4-6,16.1-40.1,16.8-47.6c0.9-7.5,0.3-15.1-1-22.4c-1.4-7.4-3.3-14.3-6.1-21.5
		C1996.4,644.8,1993.3,638,1989.3,631.8z"/>
	<path class="st5" d="M1890.3,476.1c0,0,69.2-16.7,102.2-63.7c0,0,0.6-42.8-62.9-33.1C1867.9,388.7,1853.4,448.8,1890.3,476.1z"/>
	<path class="st17" d="M2576,1999.6H421.6c-6.4,0-11.5-5.2-11.5-11.5v-5.3c0-6.4,5.2-11.5,11.5-11.5H2576c6.4,0,11.5,5.2,11.5,11.5
		v5.3C2587.6,1994.4,2582.4,1999.6,2576,1999.6z"/>
	<polygon class="st0" points="396.9,1037.2 812.8,799.3 869,910.6 443.5,1135.8 	"/>
	<path class="st7" d="M1180.7,359.6c0,0-3.3,32.3-28.8,34.6c25.5,2.2,28.8,34.6,28.8,34.6s3.3-32.3,28.8-34.6
		C1184,391.9,1180.7,359.6,1180.7,359.6z"/>
	<path class="st4" d="M739.6,111.1c0,0-4.4,43.1-38.4,46.1c34,3,38.4,46.1,38.4,46.1s4.4-43.1,38.4-46.1
		C744,154.1,739.6,111.1,739.6,111.1z"/>
	<path class="st5" d="M561.5,496.4c0,0-2.9,28.9-25.8,30.9c22.8,2,25.8,30.9,25.8,30.9s2.9-28.9,25.8-30.9
		C564.4,525.4,561.5,496.4,561.5,496.4z"/>
	<path class="st5" d="M2507.8,1089.7c0,0-4.4,43.1-38.4,46.1c34,3,38.4,46.1,38.4,46.1s4.4-43.1,38.4-46.1
		C2512.1,1132.8,2507.8,1089.7,2507.8,1089.7z"/>
	<path class="st7" d="M147.1,807.4c0,0-4.4,43.1-38.4,46.1c34,3,38.4,46.1,38.4,46.1s4.4-43.1,38.4-46.1
		C151.4,850.4,147.1,807.4,147.1,807.4z"/>
	<path class="st7" d="M2637,753.2c0,0-4.4,43.1-38.4,46.1c34,3,38.4,46.1,38.4,46.1s4.4-43.1,38.4-46.1
		C2641.3,796.3,2637,753.2,2637,753.2z"/>
	<path class="st5" d="M1614.6,84.6c0,0-4.4,43.1-38.4,46.1c34,3,38.4,46.1,38.4,46.1s4.4-43.1,38.4-46.1
		C1619,127.6,1614.6,84.6,1614.6,84.6z"/>
	<path class="st4" d="M2343,415.3c0,0-2.4,27.2-20.9,29.1c18.5,1.9,20.9,29.1,20.9,29.1s2.4-27.2,20.9-29.1
		C2345.4,442.5,2343,415.3,2343,415.3z"/>
</g>
</svg>
